{
.appVersion = "1271";
classes = (
{
code = "Alif-adlam Daali-adlam Daali-adlam Laam-adlam Miim-adlam Ba-adlam Sinnyiiyhe-adlam Pe-adlam Bhe-adlam Ra-adlam E-adlam Fa-adlam I-adlam O-adlam Dha-adlam Yhe-adlam Waw-adlam Nun-adlam Kaf-adlam Ya-adlam U-adlam Jiim-adlam Chi-adlam Ha-adlam Qaaf-adlam Ga-adlam Nya-adlam Tu-adlam Nha-adlam Va-adlam Kha-adlam Gbe-adlam Zal-adlam Kpo-adlam Sha-adlam";
name = Uppercase;
},
{
code = "alif-adlam daali-adlam daali-adlam.medi laam-adlam miim-adlam ba-adlam sinnyiiyhe-adlam pe-adlam bhe-adlam ra-adlam e-adlam fa-adlam i-adlam o-adlam dha-adlam yhe-adlam waw-adlam nun-adlam kaf-adlam ya-adlam u-adlam jiim-adlam chi-adlam ha-adlam qaaf-adlam ga-adlam nya-adlam tu-adlam nha-adlam va-adlam kha-adlam gbe-adlam zal-adlam kpo-adlam sha-adlam";
name = Lowercase;
},
{
code = "Alif-adlam Daali-adlam Laam-adlam Miim-adlam Ba-adlam Sinnyiiyhe-adlam Pe-adlam Bhe-adlam Ra-adlam E-adlam Fa-adlam I-adlam O-adlam Dha-adlam Yhe-adlam Waw-adlam Nun-adlam Kaf-adlam Ya-adlam U-adlam Jiim-adlam Chi-adlam Ha-adlam Qaaf-adlam Ga-adlam Nya-adlam Tu-adlam Nha-adlam Va-adlam Kha-adlam Gbe-adlam Zal-adlam Kpo-adlam Sha-adlam alif-adlam daali-adlam daali-adlam.medi laam-adlam miim-adlam ba-adlam sinnyiiyhe-adlam pe-adlam bhe-adlam ra-adlam e-adlam fa-adlam i-adlam o-adlam dha-adlam yhe-adlam waw-adlam nun-adlam kaf-adlam ya-adlam u-adlam jiim-adlam chi-adlam ha-adlam qaaf-adlam ga-adlam nya-adlam tu-adlam nha-adlam va-adlam kha-adlam gbe-adlam zal-adlam kpo-adlam sha-adlam kashida-ar aliflengthencomb-adlam vowellengthencomb-adlam gemination-adlam hamza-adlam consonantmodcomb-adlam gemconsonantmodcomb-adlam hoortobbhere-adlam hoortobbhere-adlam.below aliflengthencomb-adlam.case vowellengthencomb-adlam.case gemination-adlam.case ";
name = adlamChars;
},
{

glyphs = (
{
glyphname = .notdef;
lastChange = "2019-08-14 14:22:59 +0000";
layers = (
{
layerId = master01;
paths = (
{
closed = 1;
nodes = (
"479 0 LINE",
"479 714 LINE",
"94 714 LINE",
"94 0 LINE"
);
},
{
closed = 1;
nodes = (
"118 690 LINE",
"455 690 LINE",
"455 24 LINE",
"118 24 LINE"
);
}
);
userData = {
com.schriftgestaltung.Glyphs.lastChange = "2017/01/05 17:36:54";
};
width = 574;
},
{
layerId = "201D1995-4E5E-441E-AFED-969F1360B126";
paths = (
{
closed = 1;
nodes = (
"505 0 LINE",
"505 714 LINE",
"94 714 LINE",
"94 0 LINE"
);
},
{
closed = 1;
nodes = (
"145 663 LINE",
"454 663 LINE",
"454 51 LINE",
"145 51 LINE"
);
}
);
width = 600;
}
);
},
{
export = 0;
glyphname = A;
lastChange = "2019-11-20 18:03:36 +0000";
layers = (
{
anchors = (
{
name = bottom;
position = "{324, 0}";
},
{
name = top;
position = "{318, 714}";
},
{
name = topright;
position = "{519, 714}";
}
);
layerId = master01;
paths = (
{
closed = 1;
nodes = (
"638 0 LINE",
"360 717 LINE",
"279 717 LINE",
"0 0 LINE",
"91 0 LINE",
"176 221 LINE",
"459 221 LINE",
"545 0 LINE"
);
},
{
closed = 1;
nodes = (
"206 301 LINE",
"287 517 LINE SMOOTH",
"295 540 OFFCURVE",
"308 583 OFFCURVE",
"318 624 CURVE",
"325 599 OFFCURVE",
"346 533 OFFCURVE",
"352 517 CURVE SMOOTH",
"432 301 LINE"
);
}
);
userData = {
com.schriftgestaltung.Glyphs.category = Letter;
com.schriftgestaltung.Glyphs.lastChange = "2017/12/05 22:37:38";
com.schriftgestaltung.Glyphs.script = latin;
com.schriftgestaltung.Glyphs.subCategory = Uppercase;
};
width = 639;
},
{
anchors = (
{
name = bottom;
position = "{351, 0}";
},
{
name = top;
position = "{345, 714}";
},
{
name = topright;
position = "{546, 714}";
}
);
layerId = "201D1995-4E5E-441E-AFED-969F1360B126";
paths = (
{
closed = 1;
nodes = (
"690 0 LINE",
"437 717 LINE",
"252 717 LINE",
"0 0 LINE",
"163 0 LINE",
"215 170 LINE",
"475 170 LINE",
"527 0 LINE"
);
},
{
closed = 1;
nodes = (
"253 297 LINE",
"304 463 LINE",
"310.776 481.633 OFFCURVE",
"337.821 577.284 OFFCURVE",
"345 606 CURVE",
"351.706 579.175 OFFCURVE",
"378.25 492.75 OFFCURVE",
"387 463 CURVE SMOOTH",
"439 297 LINE"
);
}
);
width = 690;
}
);
leftKerningGroup = A;
rightKerningGroup = A;
unicode = 0041;
},
{
export = 0;
glyphname = B;
lastChange = "2019-11-20 18:03:36 +0000";
layers = (
{
anchors = (
{
name = bottom;
position = "{315, 0}";
},
{
name = top;
position = "{322, 714}";
},
{
name = topright;
position = "{630, 714}";
}
);
layerId = master01;
paths = (
{
closed = 1;
nodes = (
"97 0 LINE",
"348 0 LINE SMOOTH",
"501 0 OFFCURVE",
"596 73 OFFCURVE",
"596 203 CURVE SMOOTH",
"596 314 OFFCURVE",
"526 359 OFFCURVE",
"436 374 CURVE",
"436 379 LINE",
"524 395 OFFCURVE",
"572 453 OFFCURVE",
"572 537 CURVE SMOOTH",
"572 667 OFFCURVE",
"479 714 OFFCURVE",
"301 714 CURVE SMOOTH",
"97 714 LINE"
);
},
{
closed = 1;
nodes = (
"187 637 LINE",
"305 637 LINE SMOOTH",
"426 637 OFFCURVE",
"479 605 OFFCURVE",
"479 527 CURVE SMOOTH",
"479 450 OFFCURVE",
"441 410 OFFCURVE",
"319 410 CURVE SMOOTH",
"187 410 LINE"
);
},
{
closed = 1;
nodes = (
"324 335 LINE SMOOTH",
"456 335 OFFCURVE",
"500 285 OFFCURVE",
"500 210 CURVE SMOOTH",
"500 130 OFFCURVE",
"457 76 OFFCURVE",
"331 76 CURVE SMOOTH",
"187 76 LINE",
"187 335 LINE"
);
}
);
userData = {
com.schriftgestaltung.Glyphs.category = Letter;
com.schriftgestaltung.Glyphs.lastChange = "2017/12/05 22:37:38";
com.schriftgestaltung.Glyphs.script = latin;
com.schriftgestaltung.Glyphs.subCategory = Uppercase;
};
width = 650;
},
{
anchors = (
{
name = bottom;
position = "{318, 0}";
},
{
name = top;
position = "{325, 714}";
},
{
name = topright;
position = "{633, 714}";
}
);
layerId = "201D1995-4E5E-441E-AFED-969F1360B126";
paths = (
{
closed = 1;
nodes = (
"90 0 LINE",
"357 0 LINE SMOOTH",
"518.333 0 OFFCURVE",
"619 77.667 OFFCURVE",
"619 207 CURVE SMOOTH",
"619 299 OFFCURVE",
"585 353 OFFCURVE",
"491 374 CURVE",
"491 379 LINE",
"561.667 391 OFFCURVE",
"601 451.667 OFFCURVE",
"601 533 CURVE SMOOTH",
"601 667.667 OFFCURVE",
"501.333 714 OFFCURVE",
"312 714 CURVE SMOOTH",
"90 714 LINE"
);
},
{
closed = 1;
nodes = (
"241 590 LINE",
"321 590 LINE SMOOTH",
"407.667 590 OFFCURVE",
"446 567.667 OFFCURVE",
"446 513 CURVE SMOOTH",
"446 458.333 OFFCURVE",
"417 431 OFFCURVE",
"329 431 CURVE SMOOTH",
"241 431 LINE"
);
},
{
closed = 1;
nodes = (
"335 311 LINE SMOOTH",
"431 311 OFFCURVE",
"462 275.333 OFFCURVE",
"462 222 CURVE SMOOTH",
"462 163.333 OFFCURVE",
"430.667 125 OFFCURVE",
"340 125 CURVE SMOOTH",
"241 125 LINE",
"241 311 LINE"
);
}
);
width = 672;
}
);
unicode = 0042;
},
{
export = 0;
glyphname = C;
lastChange = "2019-11-20 18:03:36 +0000";
layers = (
{
anchors = (
{
name = bottom;
position = "{372, 0}";
},
{
name = top;
position = "{380, 714}";
},
{
name = topright;
position = "{612, 714}";
}
);
layerId = master01;
paths = (
{
closed = 1;
nodes = (
"467 645 OFFCURVE",
"521 626 OFFCURVE",
"565 606 CURVE",
"601 682 LINE",
"547 709 OFFCURVE",
"477 724 OFFCURVE",
"404 724 CURVE SMOOTH",
"183 724 OFFCURVE",
"61 574 OFFCURVE",
"61 358 CURVE SMOOTH",
"61 133 OFFCURVE",
"170 -10 OFFCURVE",
"389 -10 CURVE SMOOTH",
"468 -10 OFFCURVE",
"520 -1 OFFCURVE",
"573 19 CURVE",
"573 97 LINE",
"519 81 OFFCURVE",
"464 69 OFFCURVE",
"402 69 CURVE SMOOTH",
"238 69 OFFCURVE",
"156 180 OFFCURVE",
"156 357 CURVE SMOOTH",
"156 536 OFFCURVE",
"250 645 OFFCURVE",
"403 645 CURVE SMOOTH"
);
}
);
userData = {
com.schriftgestaltung.Glyphs.category = Letter;
com.schriftgestaltung.Glyphs.lastChange = "2017/12/05 22:37:38";
com.schriftgestaltung.Glyphs.script = latin;
com.schriftgestaltung.Glyphs.subCategory = Uppercase;
};
width = 632;
},
{
anchors = (
{
name = bottom;
position = "{379, 0}";
},
{
name = top;
position = "{387, 714}";
},
{
name = topright;
position = "{619, 714}";
}
);
layerId = "201D1995-4E5E-441E-AFED-969F1360B126";
paths = (
{
closed = 1;
nodes = (
"445 598 OFFCURVE",
"499.667 576.333 OFFCURVE",
"553 551 CURVE",
"602 674 LINE",
"536.667 704.667 OFFCURVE",
"463.667 724 OFFCURVE",
"393 724 CURVE SMOOTH",
"180 724 OFFCURVE",
"58 575 OFFCURVE",
"58 356 CURVE SMOOTH",
"58 135 OFFCURVE",
"157 -10 OFFCURVE",
"379 -10 CURVE SMOOTH",
"455 -10 OFFCURVE",
"512.333 1.667 OFFCURVE",
"575 27 CURVE",
"575 154 LINE",
"507 130 OFFCURVE",
"450.333 116 OFFCURVE",
"393 116 CURVE SMOOTH",
"267.667 116 OFFCURVE",
"214 203 OFFCURVE",
"214 355 CURVE SMOOTH",
"214 505.667 OFFCURVE",
"277 598 OFFCURVE",
"393 598 CURVE SMOOTH"
);
}
);
width = 637;
}
);
leftKerningGroup = C;
rightKerningGroup = C;
unicode = 0043;
},
{
export = 0;
glyphname = D;
lastChange = "2019-11-20 18:03:36 +0000";
layers = (
{
anchors = (
{
name = bottom;
position = "{342, 0}";
},
{
name = center;
position = "{365, 357}";
},
{
name = top;
position = "{361, 714}";
},
{
name = topright;
position = "{710, 714}";
}
);
layerId = master01;
paths = (
{
closed = 1;
nodes = (
"669 593 OFFCURVE",
"532 714 OFFCURVE",
"317 714 CURVE SMOOTH",
"97 714 LINE",
"97 0 LINE",
"296 0 LINE SMOOTH",
"531 0 OFFCURVE",
"669 123 OFFCURVE",
"669 364 CURVE SMOOTH"
);
},
{
closed = 1;
nodes = (
"574 173 OFFCURVE",
"477 77 OFFCURVE",
"284 77 CURVE SMOOTH",
"187 77 LINE",
"187 637 LINE",
"304 637 LINE SMOOTH",
"476 637 OFFCURVE",
"574 551 OFFCURVE",
"574 361 CURVE SMOOTH"
);
}
);
userData = {
com.schriftgestaltung.Glyphs.category = Letter;
com.schriftgestaltung.Glyphs.lastChange = "2017/12/05 22:37:38";
com.schriftgestaltung.Glyphs.script = latin;
com.schriftgestaltung.Glyphs.subCategory = Uppercase;
};
width = 730;
},
{
anchors = (
{
name = bottom;
position = "{345, 0}";
},
{
name = center;
position = "{368, 357}";
},
{
name = top;
position = "{364, 714}";
},
{
name = topright;
position = "{713, 714}";
}
);
layerId = "201D1995-4E5E-441E-AFED-969F1360B126";
paths = (
{
closed = 1;
nodes = (
"682 588 OFFCURVE",
"542 714 OFFCURVE",
"314 714 CURVE SMOOTH",
"90 714 LINE",
"90 0 LINE",
"292 0 LINE SMOOTH",
"537.333 0 OFFCURVE",
"682 122.667 OFFCURVE",
"682 364 CURVE SMOOTH"
);
},
{
closed = 1;
nodes = (
"525 203.333 OFFCURVE",
"452 125 OFFCURVE",
"306 125 CURVE SMOOTH",
"241 125 LINE",
"241 590 LINE",
"322 590 LINE SMOOTH",
"454 590 OFFCURVE",
"525 517.333 OFFCURVE",
"525 360 CURVE SMOOTH"
);
}
);
width = 740;
}
);
rightKerningGroup = D;
unicode = 0044;
},
{
export = 0;
glyphname = E;
lastChange = "2019-11-20 18:03:36 +0000";
layers = (
{
anchors = (
{
name = bottom;
position = "{300, 0}";
},
{
name = top;
position = "{305, 714}";
},
{
name = topright;
position = "{536, 714}";
}
);
layerId = master01;
paths = (
{
closed = 1;
nodes = (
"496 79 LINE",
"187 79 LINE",
"187 334 LINE",
"478 334 LINE",
"478 412 LINE",
"187 412 LINE",
"187 635 LINE",
"496 635 LINE",
"496 714 LINE",
"97 714 LINE",
"97 0 LINE",
"496 0 LINE"
);
}
);
userData = {
com.schriftgestaltung.Glyphs.category = Letter;
com.schriftgestaltung.Glyphs.lastChange = "2017/12/05 22:37:38";
com.schriftgestaltung.Glyphs.script = latin;
com.schriftgestaltung.Glyphs.subCategory = Uppercase;
};
width = 556;
},
{
anchors = (
{
name = bottom;
position = "{303, 0}";
},
{
name = top;
position = "{308, 714}";
},
{
name = topright;
position = "{539, 714}";
}
);
layerId = "201D1995-4E5E-441E-AFED-969F1360B126";
paths = (
{
closed = 1;
nodes = (
"501 125 LINE",
"241 125 LINE",
"241 309 LINE",
"483 309 LINE",
"483 433 LINE",
"241 433 LINE",
"241 590 LINE",
"501 590 LINE",
"501 714 LINE",
"90 714 LINE",
"90 0 LINE",
"501 0 LINE"
);
}
);
width = 560;
}
);
rightKerningGroup = E;
unicode = 0045;
},
{
export = 0;
glyphname = F;
lastChange = "2019-11-20 18:03:36 +0000";
layers = (
{
anchors = (
{
name = bottom;
position = "{260, 0}";
},
{
name = top;
position = "{298, 714}";
},
{
name = topright;
position = "{499, 714}";
}
);
layerId = master01;
paths = (
{
closed = 1;
nodes = (
"187 303 LINE",
"477 303 LINE",
"477 382 LINE",
"187 382 LINE",
"187 635 LINE",
"496 635 LINE",
"496 714 LINE",
"97 714 LINE",
"97 0 LINE",
"187 0 LINE"
);
}
);
userData = {
com.schriftgestaltung.Glyphs.category = Letter;
com.schriftgestaltung.Glyphs.lastChange = "2017/12/05 22:37:38";
com.schriftgestaltung.Glyphs.script = latin;
com.schriftgestaltung.Glyphs.subCategory = Uppercase;
};
width = 519;
},
{
anchors = (
{
name = bottom;
position = "{273, 0}";
},
{
name = top;
position = "{311, 714}";
},
{
name = topright;
position = "{505, 714}";
}
);
layerId = "201D1995-4E5E-441E-AFED-969F1360B126";
paths = (
{
closed = 1;
nodes = (
"239 282 LINE",
"481 282 LINE",
"481 406 LINE",
"239 406 LINE",
"239 590 LINE",
"499 590 LINE",
"499 714 LINE",
"90 714 LINE",
"90 0 LINE",
"239 0 LINE"
);
}
);
width = 549;
}
);
unicode = 0046;
},
{
export = 0;
glyphname = G;
lastChange = "2019-11-20 18:03:36 +0000";
layers = (
{
anchors = (
{
name = bottom;
position = "{402, 0}";
},
{
name = top;
position = "{405, 714}";
},
{
name = topright;
position = "{708, 714}";
}
);
layerId = master01;
paths = (
{
closed = 1;
nodes = (
"407 297 LINE",
"564 297 LINE",
"564 85 LINE",
"528 76 OFFCURVE",
"487 68 OFFCURVE",
"424 68 CURVE SMOOTH",
"232 68 OFFCURVE",
"155 186 OFFCURVE",
"155 357 CURVE SMOOTH",
"155 535 OFFCURVE",
"255 645 OFFCURVE",
"426 645 CURVE SMOOTH",
"494 645 OFFCURVE",
"559 626 OFFCURVE",
"610 604 CURVE",
"644 682 LINE",
"583 708 OFFCURVE",
"511 724 OFFCURVE",
"431 724 CURVE SMOOTH",
"197 724 OFFCURVE",
"61 580 OFFCURVE",
"61 357 CURVE SMOOTH",
"61 131 OFFCURVE",
"181 -10 OFFCURVE",
"403 -10 CURVE SMOOTH",
"503 -10 OFFCURVE",
"577 2 OFFCURVE",
"654 27 CURVE",
"654 377 LINE",
"407 377 LINE"
);
}
);
userData = {
com.schriftgestaltung.Glyphs.category = Letter;
com.schriftgestaltung.Glyphs.lastChange = "2017/12/05 22:37:38";
com.schriftgestaltung.Glyphs.script = latin;
com.schriftgestaltung.Glyphs.subCategory = Uppercase;
};
width = 728;
},
{
anchors = (
{
name = bottom;
position = "{429, 0}";
},
{
name = top;
position = "{432, 714}";
},
{
name = topright;
position = "{735, 714}";
}
);
layerId = "201D1995-4E5E-441E-AFED-969F1360B126";
paths = (
{
closed = 1;
nodes = (
"361 275 LINE",
"496 275 LINE",
"496 126 LINE",
"469.333 120.667 OFFCURVE",
"442.667 116 OFFCURVE",
"400 116 CURVE SMOOTH",
"269 116 OFFCURVE",
"214 213 OFFCURVE",
"214 355 CURVE SMOOTH",
"214 493 OFFCURVE",
"290 598 OFFCURVE",
"430 598 CURVE SMOOTH",
"491.333 598 OFFCURVE",
"549 581.667 OFFCURVE",
"593 559 CURVE",
"643 680 LINE",
"583 706.667 OFFCURVE",
"507 724 OFFCURVE",
"431 724 CURVE SMOOTH",
"198 724 OFFCURVE",
"58 589 OFFCURVE",
"58 358 CURVE SMOOTH",
"58 118 OFFCURVE",
"176.667 -10 OFFCURVE",
"390 -10 CURVE SMOOTH",
"491.333 -10 OFFCURVE",
"569.333 5.667 OFFCURVE",
"644 31 CURVE",
"644 401 LINE",
"361 401 LINE"
);
}
);
width = 724;
}
);
leftKerningGroup = C;
unicode = 0047;
},
{
export = 0;
glyphname = H;
lastChange = "2019-11-20 18:03:36 +0000";
layers = (
{
anchors = (
{
name = bottom;
position = "{368, 0}";
},
{
name = center;
position = "{371, 357}";
},
{
name = top;
position = "{371, 714}";
},
{
name = topright;
position = "{721, 714}";
}
);
layerId = master01;
paths = (
{
closed = 1;
nodes = (
"643 714 LINE",
"553 714 LINE",
"553 412 LINE",
"187 412 LINE",
"187 714 LINE",
"97 714 LINE",
"97 0 LINE",
"187 0 LINE",
"187 333 LINE",
"553 333 LINE",
"553 0 LINE",
"643 0 LINE"
);
}
);
userData = {
com.schriftgestaltung.Glyphs.category = Letter;
com.schriftgestaltung.Glyphs.lastChange = "2017/12/05 22:37:38";
com.schriftgestaltung.Glyphs.script = latin;
com.schriftgestaltung.Glyphs.subCategory = Uppercase;
};
width = 741;
},
{
anchors = (
{
name = bottom;
position = "{381, 0}";
},
{
name = center;
position = "{384, 357}";
},
{
name = top;
position = "{384, 714}";
},
{
name = topright;
position = "{734, 714}";
}
);
layerId = "201D1995-4E5E-441E-AFED-969F1360B126";
paths = (
{
closed = 1;
nodes = (
"675 714 LINE",
"524 714 LINE",
"524 434 LINE",
"241 434 LINE",
"241 714 LINE",
"90 714 LINE",
"90 0 LINE",
"241 0 LINE",
"241 308 LINE",
"524 308 LINE",
"524 0 LINE",
"675 0 LINE"
);
}
);
width = 765;
}
);
unicode = 0048;
},
{
export = 0;
glyphname = I;
lastChange = "2019-11-20 18:03:36 +0000";
layers = (
{
anchors = (
{
name = bottom;
position = "{170, 0}";
},
{
name = top;
position = "{170, 714}";
},
{
name = topright;
position = "{319, 714}";
}
);
layerId = master01;
paths = (
{
closed = 1;
nodes = (
"298 52 LINE",
"214 71 LINE",
"214 642 LINE",
"298 662 LINE",
"298 714 LINE",
"40 714 LINE",
"40 662 LINE",
"124 642 LINE",
"124 71 LINE",
"40 52 LINE",
"40 0 LINE",
"298 0 LINE"
);
}
);
userData = {
com.schriftgestaltung.Glyphs.category = Letter;
com.schriftgestaltung.Glyphs.lastChange = "2017/12/05 22:37:38";
com.schriftgestaltung.Glyphs.script = latin;
com.schriftgestaltung.Glyphs.subCategory = Uppercase;
};
width = 339;
},
{
anchors = (
{
name = bottom;
position = "{192, 0}";
},
{
name = top;
position = "{192, 714}";
},
{
name = topright;
position = "{341, 714}";
}
);
layerId = "201D1995-4E5E-441E-AFED-969F1360B126";
paths = (
{
closed = 1;
nodes = (
"357 86 LINE",
"270 126 LINE",
"270 588 LINE",
"357 628 LINE",
"357 714 LINE",
"32 714 LINE",
"32 628 LINE",
"119 588 LINE",
"119 126 LINE",
"32 86 LINE",
"32 0 LINE",
"357 0 LINE"
);
}
);
width = 389;
}
);
unicode = 0049;
},
{
export = 0;
glyphname = J;
lastChange = "2019-11-20 18:03:36 +0000";
layers = (
{
anchors = (
{
name = bottom;
position = "{-4, -170}";
},
{
name = top;
position = "{137, 714}";
},
{
name = topright;
position = "{253, 714}";
}
);
layerId = master01;
paths = (
{
closed = 1;
nodes = (
"108 -190 OFFCURVE",
"182 -127 OFFCURVE",
"182 11 CURVE SMOOTH",
"182 714 LINE",
"92 714 LINE",
"92 4 LINE SMOOTH",
"92 -87 OFFCURVE",
"44 -111 OFFCURVE",
"-6 -111 CURVE SMOOTH",
"-33 -111 OFFCURVE",
"-57 -107 OFFCURVE",
"-78 -101 CURVE",
"-78 -177 LINE",
"-60 -185 OFFCURVE",
"-36 -190 OFFCURVE",
"-4 -190 CURVE SMOOTH"
);
}
);
userData = {
com.schriftgestaltung.Glyphs.category = Letter;
com.schriftgestaltung.Glyphs.lastChange = "2017/12/05 22:37:38";
com.schriftgestaltung.Glyphs.script = latin;
com.schriftgestaltung.Glyphs.subCategory = Uppercase;
};
width = 273;
},
{
anchors = (
{
name = bottom;
position = "{30, -170}";
},
{
name = top;
position = "{171, 714}";
},
{
name = topright;
position = "{287, 714}";
}
);
layerId = "201D1995-4E5E-441E-AFED-969F1360B126";
paths = (
{
closed = 1;
nodes = (
"168 -210 OFFCURVE",
"241 -118 OFFCURVE",
"241 46 CURVE SMOOTH",
"241 714 LINE",
"90 714 LINE",
"90 45 LINE SMOOTH",
"90 -32 OFFCURVE",
"72 -83 OFFCURVE",
"-3 -83 CURVE SMOOTH",
"-29.667 -83 OFFCURVE",
"-52.667 -78.333 OFFCURVE",
"-74 -73 CURVE",
"-74 -199 LINE",
"-52.667 -205.667 OFFCURVE",
"-23.667 -210 OFFCURVE",
"15 -210 CURVE SMOOTH"
);
}
);
width = 331;
}
);
unicode = 004A;
},
{
export = 0;
glyphname = K;
lastChange = "2019-11-20 18:03:36 +0000";
layers = (
{
anchors = (
{
name = bottom;
position = "{330, 0}";
},
{
name = top;
position = "{340, 714}";
},
{
name = topright;
position = "{599, 714}";
}
);
layerId = master01;
paths = (
{
closed = 1;
nodes = (
"325 403 LINE",
"608 714 LINE",
"503 714 LINE",
"310 498 LINE SMOOTH",
"269 452 OFFCURVE",
"227 407 OFFCURVE",
"187 362 CURVE",
"187 714 LINE",
"97 714 LINE",
"97 0 LINE",
"187 0 LINE",
"187 277 LINE",
"260 341 LINE",
"513 0 LINE",
"619 0 LINE"
);
}
);
userData = {
com.schriftgestaltung.Glyphs.category = Letter;
com.schriftgestaltung.Glyphs.lastChange = "2017/12/05 22:37:38";
com.schriftgestaltung.Glyphs.script = latin;
com.schriftgestaltung.Glyphs.subCategory = Uppercase;
};
width = 619;
},
{
anchors = (
{
name = bottom;
position = "{353, 0}";
},
{
name = top;
position = "{363, 714}";
},
{
name = topright;
position = "{622, 714}";
}
);
layerId = "201D1995-4E5E-441E-AFED-969F1360B126";
paths = (
{
closed = 1;
nodes = (
"413 398 LINE",
"662 714 LINE",
"494 714 LINE",
"301 471 LINE",
"281 443 OFFCURVE",
"261 415 OFFCURVE",
"241 387 CURVE",
"241 714 LINE",
"90 714 LINE",
"90 0 LINE",
"241 0 LINE",
"241 255 LINE",
"305 301 LINE",
"492 0 LINE",
"664 0 LINE"
);
}
);
width = 664;
}
);
rightKerningGroup = K;
unicode = 004B;
},
{
export = 0;
glyphname = L;
lastChange = "2019-11-20 18:03:36 +0000";
layers = (
{
anchors = (
{
name = bottom;
position = "{300, 0}";
},
{
name = center;
position = "{262, 357}";
},
{
name = top;
position = "{140, 714}";
},
{
name = topright;
position = "{364, 714}";
}
);
layerId = master01;
paths = (
{
closed = 1;
nodes = (
"499 0 LINE",
"499 80 LINE",
"187 80 LINE",
"187 714 LINE",
"97 714 LINE",
"97 0 LINE"
);
}
);
userData = {
com.schriftgestaltung.Glyphs.category = Letter;
com.schriftgestaltung.Glyphs.lastChange = "2017/12/05 22:37:38";
com.schriftgestaltung.Glyphs.script = latin;
com.schriftgestaltung.Glyphs.subCategory = Uppercase;
};
width = 524;
},
{
anchors = (
{
name = bottom;
position = "{323, 0}";
},
{
name = center;
position = "{285, 357}";
},
{
name = top;
position = "{163, 714}";
},
{
name = topright;
position = "{387, 714}";
}
);
layerId = "201D1995-4E5E-441E-AFED-969F1360B126";
paths = (
{
closed = 1;
nodes = (
"531 0 LINE",
"531 125 LINE",
"241 125 LINE",
"241 714 LINE",
"90 714 LINE",
"90 0 LINE"
);
}
);
width = 565;
}
);
rightKerningGroup = L;
unicode = 004C;
},
{
export = 0;
glyphname = M;
lastChange = "2019-11-20 18:03:36 +0000";
layers = (
{
anchors = (
{
name = bottom;
position = "{448, 0}";
},
{
name = top;
position = "{454, 714}";
},
{
name = topright;
position = "{887, 714}";
}
);
layerId = master01;
paths = (
{
closed = 1;
nodes = (
"486 0 LINE",
"724 625 LINE",
"728 625 LINE",
"725 582 OFFCURVE",
"721 508 OFFCURVE",
"721 439 CURVE SMOOTH",
"721 0 LINE",
"810 0 LINE",
"810 714 LINE",
"678 714 LINE",
"454 129 LINE",
"450 129 LINE",
"230 714 LINE",
"97 714 LINE",
"97 0 LINE",
"180 0 LINE",
"180 433 LINE SMOOTH",
"180 509 OFFCURVE",
"177 585 OFFCURVE",
"173 626 CURVE",
"177 626 LINE",
"412 0 LINE"
);
}
);
userData = {
com.schriftgestaltung.Glyphs.category = Letter;
com.schriftgestaltung.Glyphs.lastChange = "2017/12/05 22:37:38";
com.schriftgestaltung.Glyphs.script = latin;
com.schriftgestaltung.Glyphs.subCategory = Uppercase;
};
width = 907;
},
{
anchors = (
{
name = bottom;
position = "{461, 0}";
},
{
name = top;
position = "{467, 714}";
},
{
name = topright;
position = "{900, 714}";
}
);
layerId = "201D1995-4E5E-441E-AFED-969F1360B126";
paths = (
{
closed = 1;
nodes = (
"531 0 LINE",
"715 559 LINE",
"719 559 LINE",
"715 504 OFFCURVE",
"712 419 OFFCURVE",
"712 338 CURVE SMOOTH",
"712 0 LINE",
"853 0 LINE",
"853 714 LINE",
"647 714 LINE",
"468 168 LINE",
"465 168 LINE",
"296 714 LINE",
"90 714 LINE",
"90 0 LINE",
"225 0 LINE",
"225 332 LINE SMOOTH",
"225 397 OFFCURVE",
"221 483 OFFCURVE",
"216 560 CURVE",
"220 560 LINE",
"392 0 LINE"
);
}
);
width = 943;
}
);
unicode = 004D;
},
{
export = 0;
glyphname = N;
lastChange = "2019-11-20 18:03:36 +0000";
layers = (
{
anchors = (
{
name = bottom;
position = "{380, 0}";
},
{
name = top;
position = "{380, 714}";
},
{
name = topright;
position = "{740, 714}";
}
);
layerId = master01;
paths = (
{
closed = 1;
nodes = (
"663 714 LINE",
"579 714 LINE",
"579 311 LINE SMOOTH",
"579 246 OFFCURVE",
"584 155 OFFCURVE",
"586 123 CURVE",
"582 123 LINE",
"201 714 LINE",
"97 714 LINE",
"97 0 LINE",
"180 0 LINE",
"180 399 LINE SMOOTH",
"180 472 OFFCURVE",
"175 546 OFFCURVE",
"172 593 CURVE",
"176 593 LINE",
"558 0 LINE",
"663 0 LINE"
);
}
);
userData = {
com.schriftgestaltung.Glyphs.category = Letter;
com.schriftgestaltung.Glyphs.lastChange = "2017/12/05 22:37:38";
com.schriftgestaltung.Glyphs.script = latin;
com.schriftgestaltung.Glyphs.subCategory = Uppercase;
};
width = 760;
},
{
anchors = (
{
name = bottom;
position = "{403, 0}";
},
{
name = top;
position = "{403, 714}";
},
{
name = topright;
position = "{763, 714}";
}
);
layerId = "201D1995-4E5E-441E-AFED-969F1360B126";
paths = (
{
closed = 1;
nodes = (
"723 714 LINE",
"587 714 LINE",
"587 376 LINE SMOOTH",
"587 313 OFFCURVE",
"591 222 OFFCURVE",
"594 179 CURVE",
"591 179 LINE",
"281 714 LINE",
"90 714 LINE",
"90 0 LINE",
"225 0 LINE",
"225 336 LINE SMOOTH",
"225 401 OFFCURVE",
"219 495 OFFCURVE",
"216 540 CURVE",
"220 540 LINE",
"531 0 LINE",
"723 0 LINE"
);
}
);
width = 813;
}
);
unicode = 004E;
},
{
export = 0;
glyphname = O;
lastChange = "2019-11-20 18:03:36 +0000";
layers = (
{
anchors = (
{
name = bottom;
position = "{392, 0}";
},
{
name = center;
position = "{391, 357}";
},
{
name = top;
position = "{391, 714}";
},
{
name = topright;
position = "{761, 714}";
}
);
layerId = master01;
paths = (
{
closed = 1;
nodes = (
"720 580 OFFCURVE",
"606 725 OFFCURVE",
"392 725 CURVE SMOOTH",
"168 725 OFFCURVE",
"61 578 OFFCURVE",
"61 359 CURVE SMOOTH",
"61 138 OFFCURVE",
"168 -10 OFFCURVE",
"391 -10 CURVE SMOOTH",
"606 -10 OFFCURVE",
"720 137 OFFCURVE",
"720 358 CURVE SMOOTH"
);
},
{
closed = 1;
nodes = (
"156 538 OFFCURVE",
"230 646 OFFCURVE",
"392 646 CURVE SMOOTH",
"553 646 OFFCURVE",
"625 538 OFFCURVE",
"625 358 CURVE SMOOTH",
"625 178 OFFCURVE",
"553 68 OFFCURVE",
"391 68 CURVE SMOOTH",
"230 68 OFFCURVE",
"156 178 OFFCURVE",
"156 358 CURVE SMOOTH"
);
}
);
userData = {
com.schriftgestaltung.Glyphs.category = Letter;
com.schriftgestaltung.Glyphs.lastChange = "2017/12/05 22:37:38";
com.schriftgestaltung.Glyphs.script = latin;
com.schriftgestaltung.Glyphs.subCategory = Uppercase;
};
width = 781;
},
{
anchors = (
{
name = bottom;
position = "{399, 0}";
},
{
name = center;
position = "{398, 357}";
},
{
name = top;
position = "{398, 714}";
},
{
name = topright;
position = "{768, 714}";
}
);
layerId = "201D1995-4E5E-441E-AFED-969F1360B126";
paths = (
{
closed = 1;
nodes = (
"738 584 OFFCURVE",
"628 725 OFFCURVE",
"399 725 CURVE SMOOTH",
"173 725 OFFCURVE",
"58 589 OFFCURVE",
"58 359 CURVE SMOOTH",
"58 132 OFFCURVE",
"169 -10 OFFCURVE",
"398 -10 CURVE SMOOTH",
"623 -10 OFFCURVE",
"738 128 OFFCURVE",
"738 358 CURVE SMOOTH"
);
},
{
closed = 1;
nodes = (
"217 507.333 OFFCURVE",
"271 599 OFFCURVE",
"399 599 CURVE SMOOTH",
"527 599 OFFCURVE",
"579 507.333 OFFCURVE",
"579 358 CURVE SMOOTH",
"579 208.667 OFFCURVE",
"527.333 117 OFFCURVE",
"398 117 CURVE SMOOTH",
"271.333 117 OFFCURVE",
"217 208.667 OFFCURVE",
"217 358 CURVE SMOOTH"
);
}
);
width = 796;
}
);
leftKerningGroup = C;
rightKerningGroup = D;
unicode = 004F;
},
{
export = 0;
glyphname = P;
lastChange = "2019-11-20 18:03:36 +0000";
layers = (
{
anchors = (
{
name = bottom;
position = "{303, 0}";
},
{
name = top;
position = "{317, 714}";
},
{
name = topright;
position = "{585, 714}";
}
);
layerId = master01;
paths = (
{
closed = 1;
nodes = (
"97 714 LINE",
"97 0 LINE",
"187 0 LINE",
"187 278 LINE",
"269 278 LINE SMOOTH",
"483 278 OFFCURVE",
"554 386 OFFCURVE",
"554 504 CURVE SMOOTH",
"554 637 OFFCURVE",
"473 714 OFFCURVE",
"286 714 CURVE SMOOTH"
);
},
{
closed = 1;
nodes = (
"404 637 OFFCURVE",
"461 592 OFFCURVE",
"461 500 CURVE SMOOTH",
"461 395 OFFCURVE",
"395 355 OFFCURVE",
"259 355 CURVE SMOOTH",
"187 355 LINE",
"187 637 LINE",
"278 637 LINE SMOOTH"
);
}
);
userData = {
com.schriftgestaltung.Glyphs.category = Letter;
com.schriftgestaltung.Glyphs.lastChange = "2017/12/05 22:37:38";
com.schriftgestaltung.Glyphs.script = latin;
com.schriftgestaltung.Glyphs.subCategory = Uppercase;
};
width = 605;
},
{
anchors = (
{
name = bottom;
position = "{306, 0}";
},
{
name = top;
position = "{320, 714}";
},
{
name = topright;
position = "{588, 714}";
}
);
layerId = "201D1995-4E5E-441E-AFED-969F1360B126";
paths = (
{
closed = 1;
nodes = (
"90 714 LINE",
"90 0 LINE",
"241 0 LINE",
"241 254 LINE",
"306 254 LINE SMOOTH",
"478 254 OFFCURVE",
"583 332 OFFCURVE",
"583 491 CURVE SMOOTH",
"583 629.667 OFFCURVE",
"502 714 OFFCURVE",
"318 714 CURVE SMOOTH"
);
},
{
closed = 1;
nodes = (
"390 590 OFFCURVE",
"430 555.333 OFFCURVE",
"430 486 CURVE SMOOTH",
"430 410 OFFCURVE",
"376.333 378 OFFCURVE",
"291 378 CURVE SMOOTH",
"241 378 LINE",
"241 590 LINE",
"310 590 LINE SMOOTH"
);
}
);
width = 628;
}
);
rightKerningGroup = P;
unicode = 0050;
},
{
export = 0;
glyphname = Q;
lastChange = "2019-11-20 18:03:36 +0000";
layers = (
{
anchors = (
{
name = bottom;
position = "{391, -170}";
},
{
name = top;
position = "{391, 714}";
},
{
name = topright;
position = "{761, 714}";
}
);
layerId = master01;
paths = (
{
closed = 1;
nodes = (
"720 580 OFFCURVE",
"606 725 OFFCURVE",
"392 725 CURVE SMOOTH",
"168 725 OFFCURVE",
"61 578 OFFCURVE",
"61 359 CURVE SMOOTH",
"61 138 OFFCURVE",
"168 -10 OFFCURVE",
"391 -10 CURVE SMOOTH",
"399 -10 OFFCURVE",
"408 -9 OFFCURVE",
"416 -9 CURVE",
"554 -170 LINE",
"683 -170 LINE",
"512 8 LINE",
"649 54 OFFCURVE",
"720 183 OFFCURVE",
"720 358 CURVE SMOOTH"
);
},
{
closed = 1;
nodes = (
"156 538 OFFCURVE",
"230 646 OFFCURVE",
"392 646 CURVE SMOOTH",
"553 646 OFFCURVE",
"625 538 OFFCURVE",
"625 358 CURVE SMOOTH",
"625 178 OFFCURVE",
"553 68 OFFCURVE",
"391 68 CURVE SMOOTH",
"230 68 OFFCURVE",
"156 178 OFFCURVE",
"156 358 CURVE SMOOTH"
);
}
);
userData = {
com.schriftgestaltung.Glyphs.category = Letter;
com.schriftgestaltung.Glyphs.lastChange = "2017/12/05 22:37:38";
com.schriftgestaltung.Glyphs.script = latin;
com.schriftgestaltung.Glyphs.subCategory = Uppercase;
};
width = 781;
},
{
anchors = (
{
name = bottom;
position = "{398, -170}";
},
{
name = top;
position = "{398, 714}";
},
{
name = topright;
position = "{768, 714}";
}
);
layerId = "201D1995-4E5E-441E-AFED-969F1360B126";
paths = (
{
closed = 1;
nodes = (
"738 584 OFFCURVE",
"628 725 OFFCURVE",
"399 725 CURVE SMOOTH",
"173 725 OFFCURVE",
"58 589 OFFCURVE",
"58 359 CURVE SMOOTH",
"58 132 OFFCURVE",
"169 -10 OFFCURVE",
"398 -10 CURVE SMOOTH",
"402 -10 OFFCURVE",
"405 -10 OFFCURVE",
"409 -10 CURVE",
"540 -170 LINE",
"734 -170 LINE",
"562 22 LINE",
"682 75.333 OFFCURVE",
"738 198 OFFCURVE",
"738 358 CURVE SMOOTH"
);
},
{
closed = 1;
nodes = (
"217 507.333 OFFCURVE",
"271 599 OFFCURVE",
"399 599 CURVE SMOOTH",
"527 599 OFFCURVE",
"579 507.333 OFFCURVE",
"579 358 CURVE SMOOTH",
"579 209 OFFCURVE",
"527.333 117 OFFCURVE",
"398 117 CURVE SMOOTH",
"271.333 117 OFFCURVE",
"217 208.667 OFFCURVE",
"217 358 CURVE SMOOTH"
);
}
);
width = 796;
}
);
leftKerningGroup = C;
rightKerningGroup = D;
unicode = 0051;
},
{
export = 0;
glyphname = R;
lastChange = "2019-11-20 18:03:36 +0000";
layers = (
{
anchors = (
{
name = bottom;
position = "{328, 0}";
},
{
name = top;
position = "{311, 714}";
},
{
name = topright;
position = "{602, 714}";
}
);
layerId = master01;
paths = (
{
closed = 1;
nodes = (
"97 714 LINE",
"97 0 LINE",
"187 0 LINE",
"187 295 LINE",
"329 295 LINE",
"502 0 LINE",
"607 0 LINE",
"411 320 LINE",
"483 345 OFFCURVE",
"554 397 OFFCURVE",
"554 511 CURVE SMOOTH",
"554 647 OFFCURVE",
"471 714 OFFCURVE",
"294 714 CURVE SMOOTH"
);
},
{
closed = 1;
nodes = (
"406 636 OFFCURVE",
"461 600 OFFCURVE",
"461 507 CURVE SMOOTH",
"461 417 OFFCURVE",
"410 371 OFFCURVE",
"294 371 CURVE SMOOTH",
"187 371 LINE",
"187 636 LINE",
"289 636 LINE SMOOTH"
);
}
);
userData = {
com.schriftgestaltung.Glyphs.category = Letter;
com.schriftgestaltung.Glyphs.lastChange = "2017/12/05 22:37:38";
com.schriftgestaltung.Glyphs.script = latin;
com.schriftgestaltung.Glyphs.subCategory = Uppercase;
};
width = 622;
},
{
anchors = (
{
name = bottom;
position = "{341, 0}";
},
{
name = top;
position = "{324, 714}";
},
{
name = topright;
position = "{615, 714}";
}
);
layerId = "201D1995-4E5E-441E-AFED-969F1360B126";
paths = (
{
closed = 1;
nodes = (
"90 714 LINE",
"90 0 LINE",
"241 0 LINE",
"241 274 LINE",
"322 274 LINE",
"492 0 LINE",
"660 0 LINE",
"450 311 LINE",
"529 347 OFFCURVE",
"583 408 OFFCURVE",
"583 500 CURVE SMOOTH",
"583 644 OFFCURVE",
"492.667 714 OFFCURVE",
"298 714 CURVE SMOOTH"
);
},
{
closed = 1;
nodes = (
"384.333 590 OFFCURVE",
"430 564 OFFCURVE",
"430 496 CURVE SMOOTH",
"430 430.667 OFFCURVE",
"390 397 OFFCURVE",
"290 397 CURVE SMOOTH",
"241 397 LINE",
"241 590 LINE",
"287 590 LINE SMOOTH"
);
}
);
width = 660;
}
);
unicode = 0052;
},
{
export = 0;
glyphname = S;
lastChange = "2019-11-20 18:03:36 +0000";
layers = (
{
anchors = (
{
name = bottom;
position = "{257, 0}";
},
{
name = top;
position = "{285, 714}";
},
{
name = topright;
position = "{529, 714}";
}
);
layerId = master01;
paths = (
{
closed = 1;
nodes = (
"502 303 OFFCURVE",
"433 350 OFFCURVE",
"307 397 CURVE SMOOTH",
"191 440 OFFCURVE",
"151 469 OFFCURVE",
"151 541 CURVE SMOOTH",
"151 603 OFFCURVE",
"197 645 OFFCURVE",
"286 645 CURVE SMOOTH",
"348 645 OFFCURVE",
"407 628 OFFCURVE",
"457 607 CURVE",
"485 684 LINE",
"431 708 OFFCURVE",
"366 724 OFFCURVE",
"288 724 CURVE SMOOTH",
"153 724 OFFCURVE",
"60 655 OFFCURVE",
"60 542 CURVE SMOOTH",
"60 431 OFFCURVE",
"122 374 OFFCURVE",
"244 330 CURVE SMOOTH",
"373 283 OFFCURVE",
"412 253 OFFCURVE",
"412 183 CURVE SMOOTH",
"412 112 OFFCURVE",
"357 68 OFFCURVE",
"251 68 CURVE SMOOTH",
"175 68 OFFCURVE",
"99 89 OFFCURVE",
"51 110 CURVE",
"51 24 LINE",
"96 2 OFFCURVE",
"167 -10 OFFCURVE",
"247 -10 CURVE SMOOTH",
"403 -10 OFFCURVE",
"502 64 OFFCURVE",
"502 191 CURVE SMOOTH"
);
}
);
userData = {
com.schriftgestaltung.Glyphs.category = Letter;
com.schriftgestaltung.Glyphs.lastChange = "2017/12/05 22:37:38";
com.schriftgestaltung.Glyphs.script = latin;
com.schriftgestaltung.Glyphs.subCategory = Uppercase;
};
width = 549;
},
{
anchors = (
{
name = bottom;
position = "{272, 0}";
},
{
name = top;
position = "{300, 714}";
},
{
name = topright;
position = "{544, 714}";
}
);
layerId = "201D1995-4E5E-441E-AFED-969F1360B126";
paths = (
{
closed = 1;
nodes = (
"511 304 OFFCURVE",
"454 357 OFFCURVE",
"337 412 CURVE SMOOTH",
"247.667 454.667 OFFCURVE",
"202 475.333 OFFCURVE",
"202 526 CURVE SMOOTH",
"202 568.667 OFFCURVE",
"233.667 598 OFFCURVE",
"291 598 CURVE SMOOTH",
"345.667 598 OFFCURVE",
"393.667 582.667 OFFCURVE",
"459 556 CURVE",
"508 674 LINE",
"433.333 706 OFFCURVE",
"370.667 724 OFFCURVE",
"296 724 CURVE SMOOTH",
"146.667 724 OFFCURVE",
"54 649 OFFCURVE",
"54 521 CURVE SMOOTH",
"54 399.496 OFFCURVE",
"142.695 347.026 OFFCURVE",
"224 308 CURVE SMOOTH",
"299 272 OFFCURVE",
"363 245 OFFCURVE",
"363 191 CURVE SMOOTH",
"363 147 OFFCURVE",
"334.667 115 OFFCURVE",
"260 115 CURVE SMOOTH",
"188 115 OFFCURVE",
"114 144.667 OFFCURVE",
"46 174 CURVE",
"46 33 LINE",
"105.333 4.333 OFFCURVE",
"172.667 -10 OFFCURVE",
"248 -10 CURVE SMOOTH",
"416 -10 OFFCURVE",
"511 71.333 OFFCURVE",
"511 198 CURVE SMOOTH"
);
}
);
width = 551;
}
);
unicode = 0053;
},
{
export = 0;
glyphname = T;
lastChange = "2019-11-20 18:03:36 +0000";
layers = (
{
anchors = (
{
name = bottom;
position = "{278, 0}";
},
{
name = center;
position = "{278, 357}";
},
{
name = top;
position = "{278, 714}";
},
{
name = topright;
position = "{536, 714}";
}
);
layerId = master01;
paths = (
{
closed = 1;
nodes = (
"323 635 LINE",
"545 635 LINE",
"545 714 LINE",
"10 714 LINE",
"10 635 LINE",
"233 635 LINE",
"233 0 LINE",
"323 0 LINE"
);
}
);
userData = {
com.schriftgestaltung.Glyphs.category = Letter;
com.schriftgestaltung.Glyphs.lastChange = "2017/12/05 22:37:38";
com.schriftgestaltung.Glyphs.script = latin;
com.schriftgestaltung.Glyphs.subCategory = Uppercase;
};
width = 556;
},
{
anchors = (
{
name = bottom;
position = "{288, 0}";
},
{
name = center;
position = "{288, 357}";
},
{
name = top;
position = "{288, 714}";
},
{
name = topright;
position = "{546, 714}";
}
);
layerId = "201D1995-4E5E-441E-AFED-969F1360B126";
paths = (
{
closed = 1;
nodes = (
"365 588 LINE",
"559 588 LINE",
"559 714 LINE",
"20 714 LINE",
"20 588 LINE",
"214 588 LINE",
"214 0 LINE",
"365 0 LINE"
);
}
);
width = 579;
}
);
leftKerningGroup = T;
rightKerningGroup = T;
unicode = 0054;
},
{
export = 0;
glyphname = U;
lastChange = "2019-11-20 18:03:36 +0000";
layers = (
{
anchors = (
{
name = bottom;
position = "{364, 0}";
},
{
name = top;
position = "{366, 714}";
},
{
name = topright;
position = "{711, 714}";
}
);
layerId = master01;
paths = (
{
closed = 1;
nodes = (
"551 714 LINE",
"551 252 LINE SMOOTH",
"551 144 OFFCURVE",
"496 68 OFFCURVE",
"367 68 CURVE SMOOTH",
"242 68 OFFCURVE",
"180 135 OFFCURVE",
"180 251 CURVE SMOOTH",
"180 714 LINE",
"90 714 LINE",
"90 254 LINE SMOOTH",
"90 95 OFFCURVE",
"184 -10 OFFCURVE",
"362 -10 CURVE SMOOTH",
"551 -10 OFFCURVE",
"640 104 OFFCURVE",
"640 252 CURVE SMOOTH",
"640 714 LINE"
);
}
);
userData = {
com.schriftgestaltung.Glyphs.category = Letter;
com.schriftgestaltung.Glyphs.lastChange = "2017/12/05 22:37:38";
com.schriftgestaltung.Glyphs.script = latin;
com.schriftgestaltung.Glyphs.subCategory = Uppercase;
};
width = 731;
},
{
anchors = (
{
name = bottom;
position = "{379, 0}";
},
{
name = top;
position = "{381, 714}";
},
{
name = topright;
position = "{726, 714}";
}
);
layerId = "201D1995-4E5E-441E-AFED-969F1360B126";
paths = (
{
closed = 1;
nodes = (
"520 714 LINE",
"520 278 LINE SMOOTH",
"520 167.333 OFFCURVE",
"477.667 117 OFFCURVE",
"379 117 CURVE SMOOTH",
"284.333 117 OFFCURVE",
"236 158.333 OFFCURVE",
"236 277 CURVE SMOOTH",
"236 714 LINE",
"85 714 LINE",
"85 254 LINE SMOOTH",
"85 95.333 OFFCURVE",
"185.667 -10 OFFCURVE",
"375 -10 CURVE SMOOTH",
"553 -10 OFFCURVE",
"671 85 OFFCURVE",
"671 252 CURVE SMOOTH",
"671 714 LINE"
);
}
);
width = 756;
}
);
leftKerningGroup = U;
rightKerningGroup = U;
unicode = 0055;
},
{
export = 0;
glyphname = V;
lastChange = "2019-11-20 18:03:36 +0000";
layers = (
{
anchors = (
{
name = bottom;
position = "{299, 0}";
},
{
name = top;
position = "{303, 714}";
},
{
name = topright;
position = "{580, 714}";
}
);
layerId = master01;
paths = (
{
closed = 1;
nodes = (
"505 714 LINE",
"345 258 LINE SMOOTH",
"324 198 OFFCURVE",
"309 147 OFFCURVE",
"300 100 CURVE",
"290 147 OFFCURVE",
"276 197 OFFCURVE",
"255 256 CURVE SMOOTH",
"94 714 LINE",
"0 714 LINE",
"255 0 LINE",
"345 0 LINE",
"600 714 LINE"
);
}
);
userData = {
com.schriftgestaltung.Glyphs.category = Letter;
com.schriftgestaltung.Glyphs.lastChange = "2017/12/05 22:37:38";
com.schriftgestaltung.Glyphs.script = latin;
com.schriftgestaltung.Glyphs.subCategory = Uppercase;
};
width = 600;
},
{
anchors = (
{
name = bottom;
position = "{319, 0}";
},
{
name = top;
position = "{323, 714}";
},
{
name = topright;
position = "{600, 714}";
}
);
layerId = "201D1995-4E5E-441E-AFED-969F1360B126";
paths = (
{
closed = 1;
nodes = (
"497 714 LINE",
"362 289 LINE SMOOTH",
"352.909 263.999 OFFCURVE",
"330.187 170.04 OFFCURVE",
"325 132 CURVE",
"319.631 171.37 OFFCURVE",
"294.299 262.235 OFFCURVE",
"287 289 CURVE SMOOTH",
"153 714 LINE",
"0 714 LINE",
"242 0 LINE",
"407 0 LINE",
"650 714 LINE"
);
}
);
width = 650;
}
);
leftKerningGroup = V;
rightKerningGroup = V;
unicode = 0056;
},
{
export = 0;
glyphname = W;
lastChange = "2019-11-20 18:03:36 +0000";
layers = (
{
anchors = (
{
name = bottom;
position = "{458, 0}";
},
{
name = top;
position = "{465, 714}";
},
{
name = topright;
position = "{910, 714}";
}
);
layerId = master01;
paths = (
{
closed = 1;
nodes = (
"823 714 LINE",
"713 279 LINE SMOOTH",
"697 216 OFFCURVE",
"684 157 OFFCURVE",
"678 108 CURVE",
"671 154 OFFCURVE",
"658 218 OFFCURVE",
"639 280 CURVE SMOOTH",
"508 714 LINE",
"415 714 LINE",
"289 283 LINE SMOOTH",
"272 224 OFFCURVE",
"258 160 OFFCURVE",
"251 108 CURVE",
"244 158 OFFCURVE",
"233 216 OFFCURVE",
"217 278 CURVE SMOOTH",
"106 714 LINE",
"12 714 LINE",
"201 0 LINE",
"292 0 LINE",
"427 465 LINE SMOOTH",
"445 526 OFFCURVE",
"459 591 OFFCURVE",
"461 609 CURVE",
"464 591 OFFCURVE",
"480 525 OFFCURVE",
"497 468 CURVE SMOOTH",
"636 0 LINE",
"727 0 LINE",
"917 714 LINE"
);
}
);
userData = {
com.schriftgestaltung.Glyphs.category = Letter;
com.schriftgestaltung.Glyphs.lastChange = "2017/12/05 22:37:38";
com.schriftgestaltung.Glyphs.script = latin;
com.schriftgestaltung.Glyphs.subCategory = Uppercase;
};
width = 930;
},
{
anchors = (
{
name = bottom;
position = "{476, 0}";
},
{
name = top;
position = "{483, 714}";
},
{
name = topright;
position = "{928, 714}";
}
);
layerId = "201D1995-4E5E-441E-AFED-969F1360B126";
paths = (
{
closed = 1;
nodes = (
"818 714 LINE",
"727 324 LINE SMOOTH",
"715.918 270.808 OFFCURVE",
"697.373 181.777 OFFCURVE",
"692 137 CURVE",
"686.624 180.011 OFFCURVE",
"668.541 279.652 OFFCURVE",
"659 314 CURVE SMOOTH",
"555 714 LINE",
"412 714 LINE",
"308 314 LINE SMOOTH",
"298.35 279.259 OFFCURVE",
"280.205 180.372 OFFCURVE",
"275 137 CURVE",
"269.703 179.376 OFFCURVE",
"250.783 282.664 OFFCURVE",
"240 324 CURVE SMOOTH",
"149 714 LINE",
"0 714 LINE",
"182 0 LINE",
"354 0 LINE",
"450 374 LINE SMOOTH",
"463 425 OFFCURVE",
"480.46 506.439 OFFCURVE",
"483 542 CURVE",
"486 504 OFFCURVE",
"503 425 OFFCURVE",
"516 375 CURVE SMOOTH",
"613 0 LINE",
"785 0 LINE",
"967 714 LINE"
);
}
);
width = 967;
}
);
leftKerningGroup = V;
rightKerningGroup = V;
unicode = 0057;
},
{
export = 0;
glyphname = X;
lastChange = "2019-11-20 18:03:36 +0000";
layers = (
{
anchors = (
{
name = bottom;
position = "{293, 0}";
},
{
name = top;
position = "{291, 714}";
},
{
name = topright;
position = "{565, 714}";
}
);
layerId = master01;
paths = (
{
closed = 1;
nodes = (
"344 374 LINE",
"565 714 LINE",
"470 714 LINE",
"294 434 LINE",
"119 714 LINE",
"19 714 LINE",
"241 372 LINE",
"4 0 LINE",
"99 0 LINE",
"291 310 LINE",
"480 0 LINE",
"582 0 LINE"
);
}
);
userData = {
com.schriftgestaltung.Glyphs.category = Letter;
com.schriftgestaltung.Glyphs.lastChange = "2017/12/05 22:37:38";
com.schriftgestaltung.Glyphs.script = latin;
com.schriftgestaltung.Glyphs.subCategory = Uppercase;
};
width = 586;
},
{
anchors = (
{
name = bottom;
position = "{338, 0}";
},
{
name = top;
position = "{336, 714}";
},
{
name = topright;
position = "{610, 714}";
}
);
layerId = "201D1995-4E5E-441E-AFED-969F1360B126";
paths = (
{
closed = 1;
nodes = (
"426 360 LINE",
"650 714 LINE",
"487 714 LINE",
"336 457 LINE",
"182 714 LINE",
"15 714 LINE",
"237 368 LINE",
"0 0 LINE",
"162 0 LINE",
"328 270 LINE",
"494 0 LINE",
"667 0 LINE"
);
}
);
width = 667;
}
);
rightKerningGroup = K;
unicode = 0058;
},
{
export = 0;
glyphname = Y;
lastChange = "2019-11-20 18:03:36 +0000";
layers = (
{
anchors = (
{
name = bottom;
position = "{283, 0}";
},
{
name = top;
position = "{283, 714}";
},
{
name = topright;
position = "{546, 714}";
}
);
layerId = master01;
paths = (
{
closed = 1;
nodes = (
"98 714 LINE",
"0 714 LINE",
"238 273 LINE",
"238 0 LINE",
"328 0 LINE",
"328 277 LINE",
"566 714 LINE",
"469 714 LINE",
"283 363 LINE"
);
}
);
userData = {
com.schriftgestaltung.Glyphs.category = Letter;
com.schriftgestaltung.Glyphs.lastChange = "2017/12/05 22:37:38";
com.schriftgestaltung.Glyphs.script = latin;
com.schriftgestaltung.Glyphs.subCategory = Uppercase;
};
width = 566;
},
{
anchors = (
{
name = bottom;
position = "{313, 0}";
},
{
name = top;
position = "{313, 714}";
},
{
name = topright;
position = "{576, 714}";
}
);
layerId = "201D1995-4E5E-441E-AFED-969F1360B126";
paths = (
{
closed = 1;
nodes = (
"164 714 LINE",
"0 714 LINE",
"237 273 LINE",
"237 0 LINE",
"387 0 LINE",
"387 278 LINE",
"624 714 LINE",
"461 714 LINE",
"312 420 LINE"
);
}
);
width = 624;
}
);
leftKerningGroup = Y;
rightKerningGroup = Y;
unicode = 0059;
},
{
export = 0;
glyphname = Z;
lastChange = "2019-11-20 18:03:36 +0000";
layers = (
{
anchors = (
{
name = bottom;
position = "{297, 0}";
},
{
name = top;
position = "{290, 714}";
},
{
name = topright;
position = "{552, 714}";
}
);
layerId = master01;
paths = (
{
closed = 1;
nodes = (
"533 80 LINE",
"147 80 LINE",
"523 646 LINE",
"523 714 LINE",
"50 714 LINE",
"50 634 LINE",
"414 634 LINE",
"38 68 LINE",
"38 0 LINE",
"533 0 LINE"
);
}
);
userData = {
com.schriftgestaltung.Glyphs.category = Letter;
com.schriftgestaltung.Glyphs.lastChange = "2017/12/05 22:37:38";
com.schriftgestaltung.Glyphs.script = latin;
com.schriftgestaltung.Glyphs.subCategory = Uppercase;
};
width = 572;
},
{
anchors = (
{
name = bottom;
position = "{303, 0}";
},
{
name = top;
position = "{296, 714}";
},
{
name = topright;
position = "{558, 714}";
}
);
layerId = "201D1995-4E5E-441E-AFED-969F1360B126";
paths = (
{
closed = 1;
nodes = (
"555 125 LINE",
"204 125 LINE",
"546 616 LINE",
"546 714 LINE",
"33 714 LINE",
"33 589 LINE",
"366 589 LINE",
"24 98 LINE",
"24 0 LINE",
"555 0 LINE"
);
}
);
width = 579;
}
);
leftKerningGroup = Z;
rightKerningGroup = Z;
unicode = 005A;
},
{
export = 0;
glyphname = a;
lastChange = "2019-11-20 18:03:36 +0000";
layers = (
{
anchors = (
{
name = bottom;
position = "{281, 0}";
},
{
name = top;
position = "{281, 536}";
},
{
name = topright;
position = "{511, 536}";
}
);
layerId = master01;
paths = (
{
closed = 1;
nodes = (
"218 545 OFFCURVE",
"152 524 OFFCURVE",
"105 499 CURVE",
"132 433 LINE",
"176 454 OFFCURVE",
"227 474 OFFCURVE",
"283 474 CURVE SMOOTH",
"353 474 OFFCURVE",
"394 444 OFFCURVE",
"394 355 CURVE SMOOTH",
"394 323 LINE",
"303 320 LINE SMOOTH",
"128 315 OFFCURVE",
"46 256 OFFCURVE",
"46 149 CURVE SMOOTH",
"46 40 OFFCURVE",
"118 -10 OFFCURVE",
"215 -10 CURVE SMOOTH",
"305 -10 OFFCURVE",
"348 17 OFFCURVE",
"395 76 CURVE",
"399 76 LINE",
"416 0 LINE",
"480 0 LINE",
"480 365 LINE SMOOTH",
"480 490 OFFCURVE",
"418 545 OFFCURVE",
"288 545 CURVE SMOOTH"
);
},
{
closed = 1;
nodes = (
"393 214 LINE SMOOTH",
"393 110 OFFCURVE",
"325 61 OFFCURVE",
"235 61 CURVE SMOOTH",
"177 61 OFFCURVE",
"137 88 OFFCURVE",
"137 148 CURVE SMOOTH",
"137 216 OFFCURVE",
"180 254 OFFCURVE",
"314 259 CURVE SMOOTH",
"393 262 LINE"
);
}
);
userData = {
com.schriftgestaltung.Glyphs.category = Letter;
com.schriftgestaltung.Glyphs.lastChange = "2017/12/05 22:37:38";
com.schriftgestaltung.Glyphs.script = latin;
com.schriftgestaltung.Glyphs.subCategory = Lowercase;
};
width = 561;
},
{
anchors = (
{
name = bottom;
position = "{281, 0}";
},
{
name = top;
position = "{281, 536}";
},
{
name = topright;
position = "{511, 536}";
}
);
layerId = "201D1995-4E5E-441E-AFED-969F1360B126";
paths = (
{
closed = 1;
nodes = (
"224.667 557 OFFCURVE",
"150.333 537.333 OFFCURVE",
"93 508 CURVE",
"142 407 LINE",
"192.667 429.667 OFFCURVE",
"242.667 447 OFFCURVE",
"296 447 CURVE SMOOTH",
"349.333 447 OFFCURVE",
"381 421.333 OFFCURVE",
"381 364 CURVE SMOOTH",
"381 340 LINE",
"286 337 LINE SMOOTH",
"123.333 330.333 OFFCURVE",
"42 279 OFFCURVE",
"42 163 CURVE SMOOTH",
"42 44.333 OFFCURVE",
"113.667 -10 OFFCURVE",
"211 -10 CURVE SMOOTH",
"301.667 -10 OFFCURVE",
"345.333 15.333 OFFCURVE",
"392 74 CURVE",
"396 74 LINE",
"425 0 LINE",
"529 0 LINE",
"529 364 LINE SMOOTH",
"529 494.667 OFFCURVE",
"448.667 557 OFFCURVE",
"302 557 CURVE SMOOTH"
);
},
{
closed = 1;
nodes = (
"381 208 LINE SMOOTH",
"381 138.667 OFFCURVE",
"331 99 OFFCURVE",
"267 99 CURVE SMOOTH",
"224.333 99 OFFCURVE",
"195 116.667 OFFCURVE",
"195 162 CURVE SMOOTH",
"195 214 OFFCURVE",
"227 248.333 OFFCURVE",
"323 251 CURVE SMOOTH",
"381 253 LINE"
);
}
);
width = 600;
}
);
leftKerningGroup = a;
rightKerningGroup = a;
unicode = 0061;
},
{
export = 0;
glyphname = b;
lastChange = "2019-11-20 18:03:36 +0000";
layers = (
{
anchors = (
{
name = bottom;
position = "{322, 0}";
},
{
name = top;
position = "{338, 760}";
},
{
name = topright;
position = "{515, 760}";
}
);
layerId = master01;
paths = (
{
closed = 1;
nodes = (
"85 760 LINE",
"85 0 LINE",
"148 0 LINE",
"166 68 LINE",
"173 68 LINE",
"203 25 OFFCURVE",
"255 -10 OFFCURVE",
"339 -10 CURVE SMOOTH",
"471 -10 OFFCURVE",
"560 84 OFFCURVE",
"560 268 CURVE SMOOTH",
"560 452 OFFCURVE",
"472 545 OFFCURVE",
"339 545 CURVE SMOOTH",
"255 545 OFFCURVE",
"203 510 OFFCURVE",
"173 465 CURVE",
"168 465 LINE",
"170 487 OFFCURVE",
"173 530 OFFCURVE",
"173 575 CURVE SMOOTH",
"173 760 LINE"
);
},
{
closed = 1;
nodes = (
"422 472 OFFCURVE",
"469 404 OFFCURVE",
"469 269 CURVE SMOOTH",
"469 136 OFFCURVE",
"422 63 OFFCURVE",
"326 63 CURVE SMOOTH",
"208 63 OFFCURVE",
"173 135 OFFCURVE",
"173 267 CURVE SMOOTH",
"173 271 LINE SMOOTH",
"173 408 OFFCURVE",
"210 472 OFFCURVE",
"324 472 CURVE SMOOTH"
);
}
);
userData = {
com.schriftgestaltung.Glyphs.category = Letter;
com.schriftgestaltung.Glyphs.lastChange = "2017/12/05 22:37:38";
com.schriftgestaltung.Glyphs.script = latin;
com.schriftgestaltung.Glyphs.subCategory = Lowercase;
};
width = 615;
},
{
anchors = (
{
name = bottom;
position = "{315, 0}";
},
{
name = top;
position = "{331, 760}";
},
{
name = topright;
position = "{508, 760}";
}
);
layerId = "201D1995-4E5E-441E-AFED-969F1360B126";
paths = (
{
closed = 1;
nodes = (
"78 760 LINE",
"78 0 LINE",
"192 0 LINE",
"217 60 LINE",
"227 60 LINE",
"256.333 24 OFFCURVE",
"298 -10 OFFCURVE",
"378 -10 CURVE SMOOTH",
"503.333 -10 OFFCURVE",
"588 87.333 OFFCURVE",
"588 274 CURVE SMOOTH",
"588 459.333 OFFCURVE",
"504.667 556 OFFCURVE",
"382 556 CURVE SMOOTH",
"303.333 556 OFFCURVE",
"256.333 520.333 OFFCURVE",
"227 475 CURVE",
"221 475 LINE",
"223.667 497.667 OFFCURVE",
"227 541.667 OFFCURVE",
"227 583 CURVE SMOOTH",
"227 760 LINE"
);
},
{
closed = 1;
nodes = (
"396.667 437 OFFCURVE",
"436 382.667 OFFCURVE",
"436 276 CURVE SMOOTH",
"436 169.333 OFFCURVE",
"397.333 111 OFFCURVE",
"336 111 CURVE SMOOTH",
"253.333 111 OFFCURVE",
"227 169.667 OFFCURVE",
"227 275 CURVE SMOOTH",
"227 291 LINE SMOOTH",
"228.333 388.333 OFFCURVE",
"256.667 437 OFFCURVE",
"334 437 CURVE SMOOTH"
);
}
);
width = 633;
}
);
leftKerningGroup = b;
rightKerningGroup = b;
unicode = 0062;
},
{
export = 0;
glyphname = c;
lastChange = "2019-11-20 18:03:36 +0000";
layers = (
{
anchors = (
{
name = bottom;
position = "{281, 0}";
},
{
name = top;
position = "{284, 536}";
},
{
name = topright;
position = "{460, 536}";
}
);
layerId = master01;
paths = (
{
closed = 1;
nodes = (
"361 -10 OFFCURVE",
"402 0 OFFCURVE",
"438 19 CURVE",
"438 97 LINE",
"401 80 OFFCURVE",
"357 66 OFFCURVE",
"299 66 CURVE SMOOTH",
"198 66 OFFCURVE",
"146 137 OFFCURVE",
"146 266 CURVE SMOOTH",
"146 400 OFFCURVE",
"197 469 OFFCURVE",
"304 469 CURVE SMOOTH",
"341 469 OFFCURVE",
"388 456 OFFCURVE",
"420 444 CURVE",
"447 517 LINE",
"415 533 OFFCURVE",
"360 546 OFFCURVE",
"306 546 CURVE SMOOTH",
"162 546 OFFCURVE",
"55 463 OFFCURVE",
"55 265 CURVE SMOOTH",
"55 75 OFFCURVE",
"157 -10 OFFCURVE",
"300 -10 CURVE SMOOTH"
);
}
);
userData = {
com.schriftgestaltung.Glyphs.category = Letter;
com.schriftgestaltung.Glyphs.lastChange = "2017/12/05 22:37:38";
com.schriftgestaltung.Glyphs.script = latin;
com.schriftgestaltung.Glyphs.subCategory = Lowercase;
};
width = 480;
},
{
anchors = (
{
name = bottom;
position = "{271, 0}";
},
{
name = top;
position = "{274, 536}";
},
{
name = topright;
position = "{450, 536}";
}
);
layerId = "201D1995-4E5E-441E-AFED-969F1360B126";
paths = (
{
closed = 1;
nodes = (
"376 -10 OFFCURVE",
"420.667 1.667 OFFCURVE",
"466 31 CURVE",
"466 158 LINE",
"420.667 128.667 OFFCURVE",
"375.667 111 OFFCURVE",
"313 111 CURVE SMOOTH",
"239.667 111 OFFCURVE",
"197 161.667 OFFCURVE",
"197 271 CURVE SMOOTH",
"197 381 OFFCURVE",
"235.667 436 OFFCURVE",
"313 436 CURVE SMOOTH",
"353 436 OFFCURVE",
"392.333 422.667 OFFCURVE",
"439 404 CURVE",
"483 519 LINE",
"441.667 539 OFFCURVE",
"387.667 556 OFFCURVE",
"313 556 CURVE SMOOTH",
"140 556 OFFCURVE",
"45 454 OFFCURVE",
"45 270 CURVE SMOOTH",
"45 75.333 OFFCURVE",
"137.333 -10 OFFCURVE",
"300 -10 CURVE SMOOTH"
);
}
);
width = 514;
}
);
leftKerningGroup = c;
unicode = 0063;
},
{
export = 0;
glyphname = d;
lastChange = "2019-11-20 18:03:36 +0000";
layers = (
{
anchors = (
{
name = bottom;
position = "{292, 0}";
},
{
name = center;
position = "{308, 268}";
},
{
name = top;
position = "{275, 760}";
},
{
name = topright;
position = "{553, 760}";
}
);
layerId = master01;
paths = (
{
closed = 1;
nodes = (
"359 -10 OFFCURVE",
"410 26 OFFCURVE",
"442 72 CURVE",
"446 72 LINE",
"459 0 LINE",
"530 0 LINE",
"530 760 LINE",
"442 760 LINE",
"442 546 LINE SMOOTH",
"442 526 OFFCURVE",
"446 484 OFFCURVE",
"448 467 CURVE",
"442 467 LINE",
"409 511 OFFCURVE",
"359 546 OFFCURVE",
"276 546 CURVE SMOOTH",
"143 546 OFFCURVE",
"55 451 OFFCURVE",
"55 267 CURVE SMOOTH",
"55 83 OFFCURVE",
"142 -10 OFFCURVE",
"275 -10 CURVE SMOOTH"
);
},
{
closed = 1;
nodes = (
"193 63 OFFCURVE",
"146 137 OFFCURVE",
"146 265 CURVE SMOOTH",
"146 392 OFFCURVE",
"193 473 OFFCURVE",
"288 473 CURVE SMOOTH",
"407 473 OFFCURVE",
"443 399 OFFCURVE",
"443 266 CURVE SMOOTH",
"443 250 LINE SMOOTH",
"443 125 OFFCURVE",
"402 63 OFFCURVE",
"289 63 CURVE SMOOTH"
);
}
);
userData = {
com.schriftgestaltung.Glyphs.category = Letter;
com.schriftgestaltung.Glyphs.lastChange = "2017/12/05 22:37:38";
com.schriftgestaltung.Glyphs.script = latin;
com.schriftgestaltung.Glyphs.subCategory = Lowercase;
};
width = 615;
},
{
anchors = (
{
name = bottom;
position = "{282, 0}";
},
{
name = center;
position = "{298, 268}";
},
{
name = top;
position = "{265, 760}";
},
{
name = topright;
position = "{543, 760}";
}
);
layerId = "201D1995-4E5E-441E-AFED-969F1360B126";
paths = (
{
closed = 1;
nodes = (
"329.667 -10 OFFCURVE",
"376.667 25.667 OFFCURVE",
"406 71 CURVE",
"412 71 LINE",
"441 0 LINE",
"555 0 LINE",
"555 760 LINE",
"406 760 LINE",
"406 585 LINE SMOOTH",
"406 542.333 OFFCURVE",
"413 497.333 OFFCURVE",
"417 476 CURVE",
"412 476 LINE",
"382.667 521.333 OFFCURVE",
"333.667 556 OFFCURVE",
"255 556 CURVE SMOOTH",
"129.667 556 OFFCURVE",
"45 458.667 OFFCURVE",
"45 272 CURVE SMOOTH",
"45 86.667 OFFCURVE",
"129.667 -10 OFFCURVE",
"251 -10 CURVE SMOOTH"
);
},
{
closed = 1;
nodes = (
"235 109 OFFCURVE",
"196 163.333 OFFCURVE",
"196 270 CURVE SMOOTH",
"196 376.667 OFFCURVE",
"235.667 435 OFFCURVE",
"301 435 CURVE SMOOTH",
"389 435 OFFCURVE",
"416 376.333 OFFCURVE",
"416 271 CURVE SMOOTH",
"416 255 LINE SMOOTH",
"413.333 157.667 OFFCURVE",
"384.333 109 OFFCURVE",
"303 109 CURVE SMOOTH"
);
}
);
width = 633;
}
);
leftKerningGroup = c;
rightKerningGroup = d;
unicode = 0064;
},
{
export = 0;
glyphname = e;
lastChange = "2019-11-20 18:03:36 +0000";
layers = (
{
anchors = (
{
name = bottom;
position = "{301, 0}";
},
{
name = top;
position = "{285, 536}";
},
{
name = topright;
position = "{544, 536}";
}
);
layerId = master01;
paths = (
{
closed = 1;
nodes = (
"150 546 OFFCURVE",
"55 440 OFFCURVE",
"55 264 CURVE SMOOTH",
"55 85 OFFCURVE",
"160 -10 OFFCURVE",
"313 -10 CURVE SMOOTH",
"386 -10 OFFCURVE",
"434 1 OFFCURVE",
"489 25 CURVE",
"489 102 LINE",
"433 78 OFFCURVE",
"385 65 OFFCURVE",
"317 65 CURVE SMOOTH",
"210 65 OFFCURVE",
"149 130 OFFCURVE",
"146 251 CURVE",
"513 251 LINE",
"513 304 LINE SMOOTH",
"513 450 OFFCURVE",
"429 546 OFFCURVE",
"292 546 CURVE SMOOTH"
);
},
{
closed = 1;
nodes = (
"380 474 OFFCURVE",
"420 412 OFFCURVE",
"421 321 CURVE",
"148 321 LINE",
"157 417 OFFCURVE",
"207 474 OFFCURVE",
"291 474 CURVE SMOOTH"
);
}
);
userData = {
com.schriftgestaltung.Glyphs.category = Letter;
com.schriftgestaltung.Glyphs.lastChange = "2017/12/05 22:37:38";
com.schriftgestaltung.Glyphs.script = latin;
com.schriftgestaltung.Glyphs.subCategory = Lowercase;
};
width = 564;
},
{
anchors = (
{
name = bottom;
position = "{291, 0}";
},
{
name = top;
position = "{275, 536}";
},
{
name = topright;
position = "{534, 536}";
}
);
layerId = "201D1995-4E5E-441E-AFED-969F1360B126";
paths = (
{
closed = 1;
nodes = (
"137 556 OFFCURVE",
"45 447 OFFCURVE",
"45 269 CURVE SMOOTH",
"45 91 OFFCURVE",
"150 -10 OFFCURVE",
"325 -10 CURVE SMOOTH",
"409 -10 OFFCURVE",
"462.333 2.333 OFFCURVE",
"517 29 CURVE",
"517 144 LINE",
"455.667 114.667 OFFCURVE",
"401.333 101 OFFCURVE",
"332 101 CURVE SMOOTH",
"248 101 OFFCURVE",
"198.667 152 OFFCURVE",
"196 236 CURVE",
"548 236 LINE",
"548 308 LINE SMOOTH",
"548 466.667 OFFCURVE",
"453.667 556 OFFCURVE",
"303 556 CURVE SMOOTH"
);
},
{
closed = 1;
nodes = (
"373.333 450 OFFCURVE",
"406.667 400.333 OFFCURVE",
"408 335 CURVE",
"199 335 LINE",
"205.667 413.667 OFFCURVE",
"245.333 450 OFFCURVE",
"304 450 CURVE SMOOTH"
);
}
);
width = 591;
}
);
leftKerningGroup = c;
rightKerningGroup = b;
unicode = 0065;
},
{
export = 0;
glyphname = f;
lastChange = "2019-11-20 18:03:36 +0000";
layers = (
{
anchors = (
{
name = bottom;
position = "{153, 0}";
},
{
name = top;
position = "{252, 765}";
},
{
name = topright;
position = "{380, 765}";
}
);
layerId = master01;
paths = (
{
closed = 1;
nodes = (
"332 536 LINE",
"197 536 LINE",
"197 571 LINE SMOOTH",
"197 655 OFFCURVE",
"225 693 OFFCURVE",
"284 693 CURVE SMOOTH",
"313 693 OFFCURVE",
"342 685 OFFCURVE",
"364 678 CURVE",
"387 747 LINE",
"361 756 OFFCURVE",
"325 765 OFFCURVE",
"283 765 CURVE SMOOTH",
"173 765 OFFCURVE",
"109 708 OFFCURVE",
"109 570 CURVE SMOOTH",
"109 539 LINE",
"15 509 LINE",
"15 468 LINE",
"109 468 LINE",
"109 0 LINE",
"197 0 LINE",
"197 468 LINE",
"332 468 LINE"
);
}
);
userData = {
com.schriftgestaltung.Glyphs.category = Letter;
com.schriftgestaltung.Glyphs.lastChange = "2017/12/05 22:37:38";
com.schriftgestaltung.Glyphs.script = latin;
com.schriftgestaltung.Glyphs.subCategory = Lowercase;
};
width = 344;
},
{
anchors = (
{
name = bottom;
position = "{158, 0}";
},
{
name = top;
position = "{257, 765}";
},
{
name = topright;
position = "{385, 765}";
}
);
layerId = "201D1995-4E5E-441E-AFED-969F1360B126";
paths = (
{
closed = 1;
nodes = (
"380 546 LINE",
"251 546 LINE",
"251 580 LINE SMOOTH",
"251 618.667 OFFCURVE",
"269.667 647 OFFCURVE",
"311 647 CURVE SMOOTH",
"344.333 647 OFFCURVE",
"371.333 639.667 OFFCURVE",
"394 633 CURVE",
"432 742 LINE",
"402.667 754 OFFCURVE",
"352.333 765 OFFCURVE",
"295 765 CURVE SMOOTH",
"162 765 OFFCURVE",
"102 713 OFFCURVE",
"102 586 CURVE SMOOTH",
"102 546 LINE",
"20 506 LINE",
"20 434 LINE",
"102 434 LINE",
"102 0 LINE",
"251 0 LINE",
"251 434 LINE",
"380 434 LINE"
);
}
);
width = 387;
}
);
leftKerningGroup = f;
rightKerningGroup = f;
unicode = 0066;
},
{
export = 0;
glyphname = g;
lastChange = "2019-11-20 18:03:36 +0000";
layers = (
{
anchors = (
{
name = bottom;
position = "{298, -240}";
},
{
name = top;
position = "{297, 536}";
},
{
name = topright;
position = "{555, 536}";
}
);
layerId = master01;
paths = (
{
closed = 1;
nodes = (
"137 546 OFFCURVE",
"55 438 OFFCURVE",
"55 267 CURVE SMOOTH",
"55 92 OFFCURVE",
"137 -10 OFFCURVE",
"276 -10 CURVE SMOOTH",
"349 -10 OFFCURVE",
"405 16 OFFCURVE",
"442 71 CURVE",
"446 71 LINE",
"445 59 OFFCURVE",
"443 21 OFFCURVE",
"443 5 CURVE SMOOTH",
"443 -16 LINE",
"443 -110 OFFCURVE",
"387 -167 OFFCURVE",
"295 -167 CURVE SMOOTH",
"218 -167 OFFCURVE",
"148 -152 OFFCURVE",
"97 -125 CURVE",
"97 -206 LINE",
"148 -229 OFFCURVE",
"212 -240 OFFCURVE",
"290 -240 CURVE SMOOTH",
"454 -240 OFFCURVE",
"530 -162 OFFCURVE",
"530 -9 CURVE SMOOTH",
"530 536 LINE",
"460 536 LINE",
"448 465 LINE",
"443 465 LINE",
"403 520 OFFCURVE",
"345 546 OFFCURVE",
"275 546 CURVE SMOOTH"
);
},
{
closed = 1;
nodes = (
"395 472 OFFCURVE",
"444 413 OFFCURVE",
"444 267 CURVE SMOOTH",
"444 246 LINE SMOOTH",
"444 117 OFFCURVE",
"397 62 OFFCURVE",
"289 62 CURVE SMOOTH",
"195 62 OFFCURVE",
"146 134 OFFCURVE",
"146 266 CURVE SMOOTH",
"146 398 OFFCURVE",
"197 472 OFFCURVE",
"287 472 CURVE SMOOTH"
);
}
);
userData = {
com.schriftgestaltung.Glyphs.category = Letter;
com.schriftgestaltung.Glyphs.lastChange = "2017/12/05 22:37:38";
com.schriftgestaltung.Glyphs.script = latin;
com.schriftgestaltung.Glyphs.subCategory = Lowercase;
};
width = 615;
},
{
anchors = (
{
name = bottom;
position = "{288, -240}";
},
{
name = top;
position = "{287, 536}";
},
{
name = topright;
position = "{545, 536}";
}
);
layerId = "201D1995-4E5E-441E-AFED-969F1360B126";
paths = (
{
closed = 1;
nodes = (
"124.333 556 OFFCURVE",
"45 450.667 OFFCURVE",
"45 272 CURVE SMOOTH",
"45 94.667 OFFCURVE",
"121.667 -10 OFFCURVE",
"251 -10 CURVE SMOOTH",
"316.333 -10 OFFCURVE",
"368.667 13.667 OFFCURVE",
"406 71 CURVE",
"410 71 LINE",
"407.333 52.333 OFFCURVE",
"406 25.333 OFFCURVE",
"406 4 CURVE SMOOTH",
"406 -7 LINE SMOOTH",
"406 -89.667 OFFCURVE",
"367.667 -131 OFFCURVE",
"291 -131 CURVE SMOOTH",
"215.667 -131 OFFCURVE",
"144.667 -117 OFFCURVE",
"78 -89 CURVE",
"78 -208 LINE",
"140.667 -232 OFFCURVE",
"204.667 -240 OFFCURVE",
"282 -240 CURVE SMOOTH",
"462 -240 OFFCURVE",
"555 -157 OFFCURVE",
"555 -1 CURVE SMOOTH",
"555 546 LINE",
"429 546 LINE",
"417 476 LINE",
"413 476 LINE",
"375 529.333 OFFCURVE",
"322.333 556 OFFCURVE",
"255 556 CURVE SMOOTH"
);
},
{
closed = 1;
nodes = (
"382 435 OFFCURVE",
"416 388.333 OFFCURVE",
"416 271 CURVE SMOOTH",
"416 253 LINE SMOOTH",
"416 145 OFFCURVE",
"380 107 OFFCURVE",
"304 107 CURVE SMOOTH",
"232.667 107 OFFCURVE",
"197 161.333 OFFCURVE",
"197 270 CURVE SMOOTH",
"197 380 OFFCURVE",
"232 435 OFFCURVE",
"302 435 CURVE SMOOTH"
);
}
);
width = 633;
}
);
leftKerningGroup = g;
unicode = 0067;
},
{
export = 0;
glyphname = h;
lastChange = "2019-11-20 18:03:36 +0000";
layers = (
{
anchors = (
{
name = bottom;
position = "{310, 0}";
},
{
name = center;
position = "{309, 268}";
},
{
name = top;
position = "{130, 760}";
},
{
name = topright;
position = "{535, 760}";
}
);
layerId = master01;
paths = (
{
closed = 1;
nodes = (
"85 760 LINE",
"85 0 LINE",
"173 0 LINE",
"173 277 LINE SMOOTH",
"173 402 OFFCURVE",
"210 472 OFFCURVE",
"330 472 CURVE SMOOTH",
"412 472 OFFCURVE",
"450 429 OFFCURVE",
"450 343 CURVE SMOOTH",
"450 0 LINE",
"537 0 LINE",
"537 349 LINE SMOOTH",
"537 486 OFFCURVE",
"471 545 OFFCURVE",
"341 545 CURVE SMOOTH",
"272 545 OFFCURVE",
"208 517 OFFCURVE",
"174 462 CURVE",
"168 462 LINE",
"171 483 OFFCURVE",
"173 511 OFFCURVE",
"173 537 CURVE SMOOTH",
"173 760 LINE"
);
}
);
userData = {
com.schriftgestaltung.Glyphs.category = Letter;
com.schriftgestaltung.Glyphs.lastChange = "2017/12/05 22:37:38";
com.schriftgestaltung.Glyphs.script = latin;
com.schriftgestaltung.Glyphs.subCategory = Lowercase;
};
width = 618;
},
{
anchors = (
{
name = bottom;
position = "{303, 0}";
},
{
name = center;
position = "{302, 268}";
},
{
name = top;
position = "{123, 760}";
},
{
name = topright;
position = "{528, 760}";
}
);
layerId = "201D1995-4E5E-441E-AFED-969F1360B126";
paths = (
{
closed = 1;
nodes = (
"78 760 LINE",
"78 0 LINE",
"227 0 LINE",
"227 257 LINE SMOOTH",
"227 373 OFFCURVE",
"255.667 437 OFFCURVE",
"345 437 CURVE SMOOTH",
"403.667 437 OFFCURVE",
"433 397.667 OFFCURVE",
"433 319 CURVE SMOOTH",
"433 0 LINE",
"582 0 LINE",
"582 356 LINE SMOOTH",
"582 496 OFFCURVE",
"503.333 556 OFFCURVE",
"386 556 CURVE SMOOTH",
"319.333 556 OFFCURVE",
"262.667 532 OFFCURVE",
"228 476 CURVE",
"220 476 LINE",
"222.667 496 OFFCURVE",
"227 550.333 OFFCURVE",
"227 605 CURVE SMOOTH",
"227 760 LINE"
);
}
);
width = 657;
}
);
leftKerningGroup = b;
rightKerningGroup = a;
unicode = 0068;
},
{
export = 0;
glyphname = i;
lastChange = "2019-11-20 18:03:36 +0000";
layers = (
{
anchors = (
{
name = bottom;
position = "{131, 0}";
},
{
name = top;
position = "{129, 737}";
},
{
name = topright;
position = "{238, 737}";
}
);
layerId = master01;
paths = (
{
closed = 1;
nodes = (
"85 536 LINE",
"85 0 LINE",
"173 0 LINE",
"173 536 LINE"
);
},
{
closed = 1;
nodes = (
"101 737 OFFCURVE",
"78 720 OFFCURVE",
"78 681 CURVE SMOOTH",
"78 643 OFFCURVE",
"101 625 OFFCURVE",
"130 625 CURVE SMOOTH",
"157 625 OFFCURVE",
"181 643 OFFCURVE",
"181 681 CURVE SMOOTH",
"181 720 OFFCURVE",
"157 737 OFFCURVE",
"130 737 CURVE SMOOTH"
);
}
);
userData = {
com.schriftgestaltung.Glyphs.category = Letter;
com.schriftgestaltung.Glyphs.lastChange = "2017/12/05 22:37:38";
com.schriftgestaltung.Glyphs.script = latin;
com.schriftgestaltung.Glyphs.subCategory = Lowercase;
};
width = 258;
},
{
anchors = (
{
name = bottom;
position = "{151, 0}";
},
{
name = top;
position = "{153, 737}";
},
{
name = topright;
position = "{262, 737}";
}
);
layerId = "201D1995-4E5E-441E-AFED-969F1360B126";
paths = (
{
closed = 1;
nodes = (
"78 546 LINE",
"78 0 LINE",
"227 0 LINE",
"227 546 LINE"
);
},
{
closed = 1;
nodes = (
"107.667 760 OFFCURVE",
"72 743 OFFCURVE",
"72 687 CURVE SMOOTH",
"72 632.333 OFFCURVE",
"107.667 614 OFFCURVE",
"153 614 CURVE SMOOTH",
"197 614 OFFCURVE",
"234 632.333 OFFCURVE",
"234 687 CURVE SMOOTH",
"234 743 OFFCURVE",
"197 760 OFFCURVE",
"153 760 CURVE SMOOTH"
);
}
);
width = 305;
}
);
unicode = 0069;
},
{
export = 0;
glyphname = j;
lastChange = "2019-11-20 18:03:36 +0000";
layers = (
{
anchors = (
{
name = bottom;
position = "{22, -240}";
},
{
name = top;
position = "{129, 737}";
},
{
name = topright;
position = "{238, 737}";
}
);
layerId = master01;
paths = (
{
closed = 1;
nodes = (
"127 -240 OFFCURVE",
"173 -180 OFFCURVE",
"173 -80 CURVE SMOOTH",
"173 536 LINE",
"85 536 LINE",
"85 -83 LINE SMOOTH",
"85 -148 OFFCURVE",
"54 -167 OFFCURVE",
"11 -167 CURVE SMOOTH",
"-15 -167 OFFCURVE",
"-35 -163 OFFCURVE",
"-55 -157 CURVE",
"-55 -228 LINE",
"-37 -235 OFFCURVE",
"-12 -240 OFFCURVE",
"22 -240 CURVE SMOOTH"
);
},
{
closed = 1;
nodes = (
"78 643 OFFCURVE",
"101 625 OFFCURVE",
"130 625 CURVE SMOOTH",
"157 625 OFFCURVE",
"181 643 OFFCURVE",
"181 681 CURVE SMOOTH",
"181 720 OFFCURVE",
"157 737 OFFCURVE",
"130 737 CURVE SMOOTH",
"101 737 OFFCURVE",
"78 720 OFFCURVE",
"78 681 CURVE SMOOTH"
);
}
);
userData = {
com.schriftgestaltung.Glyphs.category = Letter;
com.schriftgestaltung.Glyphs.lastChange = "2017/12/05 22:37:38";
com.schriftgestaltung.Glyphs.script = latin;
com.schriftgestaltung.Glyphs.subCategory = Lowercase;
};
width = 258;
},
{
anchors = (
{
name = bottom;
position = "{48, -240}";
},
{
name = top;
position = "{155, 737}";
},
{
name = topright;
position = "{264, 737}";
}
);
layerId = "201D1995-4E5E-441E-AFED-969F1360B126";
paths = (
{
closed = 1;
nodes = (
"157 -240 OFFCURVE",
"227 -176 OFFCURVE",
"227 -59 CURVE SMOOTH",
"227 546 LINE",
"78 546 LINE",
"78 -37 LINE SMOOTH",
"78 -102.333 OFFCURVE",
"46 -120 OFFCURVE",
"6 -120 CURVE SMOOTH",
"-20.667 -120 OFFCURVE",
"-40 -117.667 OFFCURVE",
"-64 -111 CURVE",
"-64 -228 LINE",
"-40 -234.667 OFFCURVE",
"-0.667 -240 OFFCURVE",
"34 -240 CURVE SMOOTH"
);
},
{
closed = 1;
nodes = (
"72 632.333 OFFCURVE",
"107.667 614 OFFCURVE",
"153 614 CURVE SMOOTH",
"197 614 OFFCURVE",
"234 632.333 OFFCURVE",
"234 687 CURVE SMOOTH",
"234 743 OFFCURVE",
"197 760 OFFCURVE",
"153 760 CURVE SMOOTH",
"107.667 760 OFFCURVE",
"72 743 OFFCURVE",
"72 687 CURVE SMOOTH"
);
}
);
width = 305;
}
);
rightKerningGroup = j;
unicode = 006A;
},
{
export = 0;
glyphname = k;
lastChange = "2019-11-20 18:03:36 +0000";
layers = (
{
anchors = (
{
name = bottom;
position = "{267, 0}";
},
{
name = top;
position = "{129, 760}";
},
{
name = topright;
position = "{529, 760}";
}
);
layerId = master01;
paths = (
{
closed = 1;
nodes = (
"85 760 LINE",
"85 0 LINE",
"172 0 LINE",
"172 197 LINE",
"233 250 LINE",
"419 0 LINE",
"525 0 LINE",
"293 307 LINE",
"510 536 LINE",
"407 536 LINE",
"236 355 LINE SMOOTH",
"218 335 OFFCURVE",
"184 292 OFFCURVE",
"172 276 CURVE",
"168 276 LINE",
"169 301 OFFCURVE",
"172 342 OFFCURVE",
"172 363 CURVE SMOOTH",
"172 760 LINE"
);
}
);
userData = {
com.schriftgestaltung.Glyphs.category = Letter;
com.schriftgestaltung.Glyphs.lastChange = "2017/12/05 22:37:38";
com.schriftgestaltung.Glyphs.script = latin;
com.schriftgestaltung.Glyphs.subCategory = Lowercase;
};
width = 534;
},
{
anchors = (
{
name = bottom;
position = "{289, 0}";
},
{
name = top;
position = "{151, 760}";
},
{
name = topright;
position = "{551, 760}";
}
);
layerId = "201D1995-4E5E-441E-AFED-969F1360B126";
paths = (
{
closed = 1;
nodes = (
"78 760 LINE",
"78 0 LINE",
"227 0 LINE",
"227 170 LINE",
"291 221 LINE",
"448 0 LINE",
"620 0 LINE",
"390 309 LINE",
"607 546 LINE",
"439 546 LINE",
"286 380 LINE SMOOTH",
"262 353.333 OFFCURVE",
"241 325 OFFCURVE",
"221 297 CURVE",
"219 297 LINE",
"223 338.333 OFFCURVE",
"227 378.667 OFFCURVE",
"227 420 CURVE SMOOTH",
"227 760 LINE"
);
}
);
width = 620;
}
);
leftKerningGroup = b;
rightKerningGroup = k;
unicode = 006B;
},
{
export = 0;
glyphname = l;
lastChange = "2019-11-20 18:03:36 +0000";
layers = (
{
anchors = (
{
name = bottom;
position = "{129, 0}";
},
{
name = center;
position = "{129, 268}";
},
{
name = top;
position = "{129, 760}";
},
{
name = topright;
position = "{202, 760}";
}
);
layerId = master01;
paths = (
{
closed = 1;
nodes = (
"173 760 LINE",
"85 760 LINE",
"85 0 LINE",
"173 0 LINE"
);
}
);
userData = {
com.schriftgestaltung.Glyphs.category = Letter;
com.schriftgestaltung.Glyphs.lastChange = "2017/12/05 22:37:38";
com.schriftgestaltung.Glyphs.script = latin;
com.schriftgestaltung.Glyphs.subCategory = Lowercase;
};
width = 258;
},
{
anchors = (
{
name = bottom;
position = "{152, 0}";
},
{
name = center;
position = "{152, 268}";
},
{
name = top;
position = "{152, 760}";
},
{
name = topright;
position = "{225, 760}";
}
);
layerId = "201D1995-4E5E-441E-AFED-969F1360B126";
paths = (
{
closed = 1;
nodes = (
"227 760 LINE",
"78 760 LINE",
"78 0 LINE",
"227 0 LINE"
);
}
);
width = 305;
}
);
leftKerningGroup = b;
rightKerningGroup = d;
unicode = 006C;
},
{
export = 0;
glyphname = m;
lastChange = "2019-11-20 18:03:36 +0000";
layers = (
{
anchors = (
{
name = bottom;
position = "{471, 0}";
},
{
name = top;
position = "{479, 536}";
},
{
name = topright;
position = "{885, 536}";
}
);
layerId = master01;
paths = (
{
closed = 1;
nodes = (
"603 546 OFFCURVE",
"537 517 OFFCURVE",
"501 456 CURVE",
"496 456 LINE",
"470 517 OFFCURVE",
"414 546 OFFCURVE",
"332 546 CURVE SMOOTH",
"268 546 OFFCURVE",
"207 519 OFFCURVE",
"174 463 CURVE",
"169 463 LINE",
"156 536 LINE",
"85 536 LINE",
"85 0 LINE",
"173 0 LINE",
"173 278 LINE SMOOTH",
"173 403 OFFCURVE",
"208 472 OFFCURVE",
"316 472 CURVE SMOOTH",
"391 472 OFFCURVE",
"426 429 OFFCURVE",
"426 345 CURVE SMOOTH",
"426 0 LINE",
"513 0 LINE",
"513 296 LINE SMOOTH",
"513 410 OFFCURVE",
"554 472 OFFCURVE",
"658 472 CURVE SMOOTH",
"732 472 OFFCURVE",
"767 429 OFFCURVE",
"767 345 CURVE SMOOTH",
"767 0 LINE",
"854 0 LINE",
"854 349 LINE SMOOTH",
"854 487 OFFCURVE",
"794 546 OFFCURVE",
"673 546 CURVE SMOOTH"
);
}
);
userData = {
com.schriftgestaltung.Glyphs.category = Letter;
com.schriftgestaltung.Glyphs.lastChange = "2017/12/05 22:37:38";
com.schriftgestaltung.Glyphs.script = latin;
com.schriftgestaltung.Glyphs.subCategory = Lowercase;
};
width = 935;
},
{
anchors = (
{
name = bottom;
position = "{494, 0}";
},
{
name = top;
position = "{502, 536}";
},
{
name = topright;
position = "{908, 536}";
}
);
layerId = "201D1995-4E5E-441E-AFED-969F1360B126";
paths = (
{
closed = 1;
nodes = (
"656.333 556 OFFCURVE",
"591.333 532 OFFCURVE",
"558 476 CURVE",
"545 476 LINE",
"514.333 530.667 OFFCURVE",
"459 556 OFFCURVE",
"379 556 CURVE SMOOTH",
"316.333 556 OFFCURVE",
"253.333 532 OFFCURVE",
"220 476 CURVE",
"212 476 LINE",
"192 546 LINE",
"78 546 LINE",
"78 0 LINE",
"227 0 LINE",
"227 257 LINE SMOOTH",
"227 373 OFFCURVE",
"253.333 437 OFFCURVE",
"336 437 CURVE SMOOTH",
"390.667 437 OFFCURVE",
"418 397.667 OFFCURVE",
"418 319 CURVE SMOOTH",
"418 0 LINE",
"567 0 LINE",
"567 274 LINE SMOOTH",
"567 379.333 OFFCURVE",
"597.333 437 OFFCURVE",
"676 437 CURVE SMOOTH",
"730.667 437 OFFCURVE",
"758 397.667 OFFCURVE",
"758 319 CURVE SMOOTH",
"758 0 LINE",
"907 0 LINE",
"907 356 LINE SMOOTH",
"907 496 OFFCURVE",
"843 556 OFFCURVE",
"719 556 CURVE SMOOTH"
);
}
);
width = 982;
}
);
leftKerningGroup = m;
rightKerningGroup = a;
unicode = 006D;
},
{
export = 0;
glyphname = n;
lastChange = "2019-11-20 18:03:36 +0000";
layers = (
{
anchors = (
{
name = bottom;
position = "{309, 0}";
},
{
name = top;
position = "{309, 536}";
},
{
name = topright;
position = "{562, 536}";
}
);
layerId = master01;
paths = (
{
closed = 1;
nodes = (
"275 546 OFFCURVE",
"209 519 OFFCURVE",
"174 463 CURVE",
"169 463 LINE",
"156 536 LINE",
"85 536 LINE",
"85 0 LINE",
"173 0 LINE",
"173 278 LINE SMOOTH",
"173 403 OFFCURVE",
"211 472 OFFCURVE",
"330 472 CURVE SMOOTH",
"412 472 OFFCURVE",
"450 429 OFFCURVE",
"450 343 CURVE SMOOTH",
"450 0 LINE",
"537 0 LINE",
"537 349 LINE SMOOTH",
"537 487 OFFCURVE",
"471 546 OFFCURVE",
"343 546 CURVE SMOOTH"
);
}
);
userData = {
com.schriftgestaltung.Glyphs.category = Letter;
com.schriftgestaltung.Glyphs.lastChange = "2017/12/05 22:37:38";
com.schriftgestaltung.Glyphs.script = latin;
com.schriftgestaltung.Glyphs.subCategory = Lowercase;
};
width = 618;
},
{
anchors = (
{
name = bottom;
position = "{332, 0}";
},
{
name = top;
position = "{332, 536}";
},
{
name = topright;
position = "{585, 536}";
}
);
layerId = "201D1995-4E5E-441E-AFED-969F1360B126";
paths = (
{
closed = 1;
nodes = (
"320 556 OFFCURVE",
"254.667 532 OFFCURVE",
"220 476 CURVE",
"212 476 LINE",
"192 546 LINE",
"78 546 LINE",
"78 0 LINE",
"227 0 LINE",
"227 257 LINE SMOOTH",
"227 373 OFFCURVE",
"254.333 437 OFFCURVE",
"345 437 CURVE SMOOTH",
"406.333 437 OFFCURVE",
"433 397.667 OFFCURVE",
"433 319 CURVE SMOOTH",
"433 0 LINE",
"582 0 LINE",
"582 356 LINE SMOOTH",
"582 496 OFFCURVE",
"505.333 556 OFFCURVE",
"388 556 CURVE SMOOTH"
);
}
);
width = 657;
}
);
leftKerningGroup = m;
rightKerningGroup = a;
unicode = 006E;
},
{
export = 0;
glyphname = o;
lastChange = "2019-11-20 18:03:36 +0000";
layers = (
{
anchors = (
{
name = bottom;
position = "{301, 0}";
},
{
name = center;
position = "{303, 268}";
},
{
name = top;
position = "{303, 536}";
},
{
name = topright;
position = "{575, 536}";
}
);
layerId = master01;
paths = (
{
closed = 1;
nodes = (
"551 446 OFFCURVE",
"449 546 OFFCURVE",
"304 546 CURVE SMOOTH",
"150 546 OFFCURVE",
"55 446 OFFCURVE",
"55 269 CURVE SMOOTH",
"55 91 OFFCURVE",
"159 -10 OFFCURVE",
"301 -10 CURVE SMOOTH",
"454 -10 OFFCURVE",
"551 91 OFFCURVE",
"551 269 CURVE SMOOTH"
);
},
{
closed = 1;
nodes = (
"146 396 OFFCURVE",
"193 472 OFFCURVE",
"302 472 CURVE SMOOTH",
"411 472 OFFCURVE",
"460 396 OFFCURVE",
"460 269 CURVE SMOOTH",
"460 142 OFFCURVE",
"411 63 OFFCURVE",
"303 63 CURVE SMOOTH",
"194 63 OFFCURVE",
"146 142 OFFCURVE",
"146 269 CURVE SMOOTH"
);
}
);
userData = {
com.schriftgestaltung.Glyphs.category = Letter;
com.schriftgestaltung.Glyphs.lastChange = "2017/12/05 22:37:38";
com.schriftgestaltung.Glyphs.script = latin;
com.schriftgestaltung.Glyphs.subCategory = Lowercase;
};
width = 605;
},
{
anchors = (
{
name = bottom;
position = "{311, 0}";
},
{
name = center;
position = "{313, 268}";
},
{
name = top;
position = "{313, 536}";
},
{
name = topright;
position = "{585, 536}";
}
);
layerId = "201D1995-4E5E-441E-AFED-969F1360B126";
paths = (
{
closed = 1;
nodes = (
"574 443 OFFCURVE",
"475 556 OFFCURVE",
"311 556 CURVE SMOOTH",
"145.667 556 OFFCURVE",
"45 455.333 OFFCURVE",
"45 274 CURVE SMOOTH",
"45 104 OFFCURVE",
"144 -10 OFFCURVE",
"308 -10 CURVE SMOOTH",
"472 -10 OFFCURVE",
"574 92.667 OFFCURVE",
"574 274 CURVE SMOOTH"
);
},
{
closed = 1;
nodes = (
"197 382 OFFCURVE",
"230.333 436 OFFCURVE",
"309 436 CURVE SMOOTH",
"389 436 OFFCURVE",
"422 382 OFFCURVE",
"422 274 CURVE SMOOTH",
"422 166 OFFCURVE",
"388.667 110 OFFCURVE",
"310 110 CURVE SMOOTH",
"230 110 OFFCURVE",
"197 166 OFFCURVE",
"197 274 CURVE SMOOTH"
);
}
);
width = 619;
}
);
leftKerningGroup = c;
rightKerningGroup = b;
unicode = 006F;
},
{
export = 0;
glyphname = p;
lastChange = "2019-11-20 18:03:36 +0000";
layers = (
{
anchors = (
{
name = bottom;
position = "{129, -240}";
},
{
name = top;
position = "{332, 536}";
},
{
name = topright;
position = "{585, 536}";
}
);
layerId = master01;
paths = (
{
closed = 1;
nodes = (
"253 546 OFFCURVE",
"205 509 OFFCURVE",
"173 463 CURVE",
"169 463 LINE",
"157 536 LINE",
"85 536 LINE",
"85 -240 LINE",
"173 -240 LINE",
"173 -20 LINE SMOOTH",
"173 5 OFFCURVE",
"169 45 OFFCURVE",
"167 68 CURVE",
"173 68 LINE",
"204 26 OFFCURVE",
"256 -10 OFFCURVE",
"339 -10 CURVE SMOOTH",
"472 -10 OFFCURVE",
"560 86 OFFCURVE",
"560 269 CURVE SMOOTH",
"560 454 OFFCURVE",
"472 546 OFFCURVE",
"340 546 CURVE SMOOTH"
);
},
{
closed = 1;
nodes = (
"423 472 OFFCURVE",
"469 392 OFFCURVE",
"469 270 CURVE SMOOTH",
"469 150 OFFCURVE",
"423 63 OFFCURVE",
"326 63 CURVE SMOOTH",
"209 63 OFFCURVE",
"173 137 OFFCURVE",
"173 269 CURVE SMOOTH",
"173 286 LINE SMOOTH",
"175 411 OFFCURVE",
"215 472 OFFCURVE",
"324 472 CURVE SMOOTH"
);
}
);
userData = {
com.schriftgestaltung.Glyphs.category = Letter;
com.schriftgestaltung.Glyphs.lastChange = "2017/12/05 22:37:38";
com.schriftgestaltung.Glyphs.script = latin;
com.schriftgestaltung.Glyphs.subCategory = Lowercase;
};
width = 615;
},
{
anchors = (
{
name = bottom;
position = "{152, -240}";
},
{
name = top;
position = "{355, 536}";
},
{
name = topright;
position = "{608, 536}";
}
);
layerId = "201D1995-4E5E-441E-AFED-969F1360B126";
paths = (
{
closed = 1;
nodes = (
"303.333 556 OFFCURVE",
"256.333 519 OFFCURVE",
"227 475 CURVE",
"220 475 LINE",
"199 546 LINE",
"78 546 LINE",
"78 -240 LINE",
"227 -240 LINE",
"227 -20 LINE SMOOTH",
"227 5.333 OFFCURVE",
"224.333 32 OFFCURVE",
"219 60 CURVE",
"227 60 LINE",
"256.333 24 OFFCURVE",
"299.333 -10 OFFCURVE",
"378 -10 CURVE SMOOTH",
"500.667 -10 OFFCURVE",
"588 87.333 OFFCURVE",
"588 274 CURVE SMOOTH",
"588 459.333 OFFCURVE",
"504.667 556 OFFCURVE",
"382 556 CURVE SMOOTH"
);
},
{
closed = 1;
nodes = (
"402 437 OFFCURVE",
"436 383.333 OFFCURVE",
"436 276 CURVE SMOOTH",
"436 169.333 OFFCURVE",
"404 111 OFFCURVE",
"336 111 CURVE SMOOTH",
"253.333 111 OFFCURVE",
"227 169.667 OFFCURVE",
"227 275 CURVE SMOOTH",
"227 291 LINE SMOOTH",
"228.333 388.333 OFFCURVE",
"256.667 437 OFFCURVE",
"334 437 CURVE SMOOTH"
);
}
);
width = 633;
}
);
leftKerningGroup = m;
rightKerningGroup = b;
unicode = 0070;
},
{
export = 0;
glyphname = q;
lastChange = "2019-11-20 18:03:36 +0000";
layers = (
{
anchors = (
{
name = bottom;
position = "{486, -240}";
},
{
name = top;
position = "{308, 536}";
},
{
name = topright;
position = "{555, 536}";
}
);
layerId = master01;
paths = (
{
closed = 1;
nodes = (
"530 -240 LINE",
"530 536 LINE",
"460 536 LINE",
"447 463 LINE",
"443 463 LINE",
"411 509 OFFCURVE",
"360 546 OFFCURVE",
"276 546 CURVE SMOOTH",
"145 546 OFFCURVE",
"55 451 OFFCURVE",
"55 267 CURVE SMOOTH",
"55 83 OFFCURVE",
"143 -10 OFFCURVE",
"273 -10 CURVE SMOOTH",
"358 -10 OFFCURVE",
"410 26 OFFCURVE",
"441 72 CURVE",
"447 72 LINE",
"443 49 OFFCURVE",
"442 13 OFFCURVE",
"442 -11 CURVE SMOOTH",
"442 -240 LINE"
);
},
{
closed = 1;
nodes = (
"192 63 OFFCURVE",
"146 138 OFFCURVE",
"146 265 CURVE SMOOTH",
"146 392 OFFCURVE",
"192 473 OFFCURVE",
"288 473 CURVE SMOOTH",
"404 473 OFFCURVE",
"443 402 OFFCURVE",
"443 266 CURVE SMOOTH",
"443 248 LINE SMOOTH",
"441 123 OFFCURVE",
"400 63 OFFCURVE",
"290 63 CURVE SMOOTH"
);
}
);
userData = {
com.schriftgestaltung.Glyphs.category = Letter;
com.schriftgestaltung.Glyphs.lastChange = "2017/12/05 22:37:38";
com.schriftgestaltung.Glyphs.script = latin;
com.schriftgestaltung.Glyphs.subCategory = Lowercase;
};
width = 615;
},
{
anchors = (
{
name = bottom;
position = "{486, -240}";
},
{
name = top;
position = "{308, 536}";
},
{
name = topright;
position = "{585, 536}";
}
);
layerId = "201D1995-4E5E-441E-AFED-969F1360B126";
paths = (
{
closed = 1;
nodes = (
"555 -240 LINE",
"555 546 LINE",
"429 546 LINE",
"416 476 LINE",
"412 476 LINE",
"381.333 521.333 OFFCURVE",
"334 556 OFFCURVE",
"254 556 CURVE SMOOTH",
"130 556 OFFCURVE",
"45 458.667 OFFCURVE",
"45 272 CURVE SMOOTH",
"45 86.667 OFFCURVE",
"128.333 -10 OFFCURVE",
"251 -10 CURVE SMOOTH",
"331 -10 OFFCURVE",
"378 25.667 OFFCURVE",
"406 71 CURVE",
"412 71 LINE",
"408 43.667 OFFCURVE",
"406 16.333 OFFCURVE",
"406 -11 CURVE SMOOTH",
"406 -240 LINE"
);
},
{
closed = 1;
nodes = (
"232.667 107 OFFCURVE",
"197 161.333 OFFCURVE",
"197 270 CURVE SMOOTH",
"197 376.667 OFFCURVE",
"231.333 435 OFFCURVE",
"302 435 CURVE SMOOTH",
"388.667 435 OFFCURVE",
"416 376.333 OFFCURVE",
"416 271 CURVE SMOOTH",
"416 253 LINE SMOOTH",
"413.333 155.667 OFFCURVE",
"386.667 107 OFFCURVE",
"304 107 CURVE SMOOTH"
);
}
);
width = 633;
}
);
leftKerningGroup = c;
unicode = 0071;
},
{
export = 0;
glyphname = r;
lastChange = "2019-11-20 18:03:36 +0000";
layers = (
{
anchors = (
{
name = bottom;
position = "{126, 0}";
},
{
name = top;
position = "{240, 536}";
},
{
name = topright;
position = "{393, 536}";
}
);
layerId = master01;
paths = (
{
closed = 1;
nodes = (
"260 546 OFFCURVE",
"205 497 OFFCURVE",
"171 438 CURVE",
"167 438 LINE",
"157 536 LINE",
"85 536 LINE",
"85 0 LINE",
"173 0 LINE",
"173 286 LINE SMOOTH",
"173 394 OFFCURVE",
"246 466 OFFCURVE",
"329 466 CURVE SMOOTH",
"347 466 OFFCURVE",
"370 463 OFFCURVE",
"387 459 CURVE",
"398 540 LINE",
"380 544 OFFCURVE",
"355 546 OFFCURVE",
"335 546 CURVE SMOOTH"
);
}
);
userData = {
com.schriftgestaltung.Glyphs.category = Letter;
com.schriftgestaltung.Glyphs.lastChange = "2017/12/05 22:37:38";
com.schriftgestaltung.Glyphs.script = latin;
com.schriftgestaltung.Glyphs.subCategory = Lowercase;
};
width = 413;
},
{
anchors = (
{
name = bottom;
position = "{149, 0}";
},
{
name = top;
position = "{263, 536}";
},
{
name = topright;
position = "{416, 536}";
}
);
layerId = "201D1995-4E5E-441E-AFED-969F1360B126";
paths = (
{
closed = 1;
nodes = (
"309.667 556 OFFCURVE",
"252 510 OFFCURVE",
"220 454 CURVE",
"213 454 LINE",
"191 546 LINE",
"78 546 LINE",
"78 0 LINE",
"227 0 LINE",
"227 278 LINE SMOOTH",
"227 370 OFFCURVE",
"287 417 OFFCURVE",
"378 417 CURVE SMOOTH",
"391.333 417 OFFCURVE",
"411.333 414.667 OFFCURVE",
"422 412 CURVE",
"433 552 LINE",
"421 554.667 OFFCURVE",
"397.667 556 OFFCURVE",
"383 556 CURVE SMOOTH"
);
}
);
width = 454;
}
);
leftKerningGroup = m;
rightKerningGroup = r;
unicode = 0072;
},
{
export = 0;
glyphname = s;
lastChange = "2019-11-20 18:03:36 +0000";
layers = (
{
anchors = (
{
name = bottom;
position = "{240, 0}";
},
{
name = top;
position = "{240, 536}";
},
{
name = topright;
position = "{439, 536}";
}
);
layerId = master01;
paths = (
{
closed = 1;
nodes = (
"434 234 OFFCURVE",
"375 269 OFFCURVE",
"273 307 CURVE SMOOTH",
"170 346 OFFCURVE",
"135 364 OFFCURVE",
"135 409 CURVE SMOOTH",
"135 449 OFFCURVE",
"174 474 OFFCURVE",
"246 474 CURVE SMOOTH",
"298 474 OFFCURVE",
"348 459 OFFCURVE",
"393 440 CURVE",
"423 510 LINE",
"373 532 OFFCURVE",
"317 546 OFFCURVE",
"252 546 CURVE SMOOTH",
"132 546 OFFCURVE",
"51 495 OFFCURVE",
"51 404 CURVE SMOOTH",
"51 316 OFFCURVE",
"113 284 OFFCURVE",
"217 244 CURVE SMOOTH",
"322 204 OFFCURVE",
"349 180 OFFCURVE",
"349 140 CURVE SMOOTH",
"349 92 OFFCURVE",
"311 61 OFFCURVE",
"222 61 CURVE SMOOTH",
"159 61 OFFCURVE",
"94 83 OFFCURVE",
"52 104 CURVE",
"52 24 LINE",
"93 2 OFFCURVE",
"145 -10 OFFCURVE",
"220 -10 CURVE SMOOTH",
"351 -10 OFFCURVE",
"434 44 OFFCURVE",
"434 148 CURVE SMOOTH"
);
}
);
userData = {
com.schriftgestaltung.Glyphs.category = Letter;
com.schriftgestaltung.Glyphs.lastChange = "2017/12/05 22:37:38";
com.schriftgestaltung.Glyphs.script = latin;
com.schriftgestaltung.Glyphs.subCategory = Lowercase;
};
width = 479;
},
{
anchors = (
{
name = bottom;
position = "{264, 0}";
},
{
name = top;
position = "{264, 536}";
},
{
name = topright;
position = "{463, 536}";
}
);
layerId = "201D1995-4E5E-441E-AFED-969F1360B126";
paths = (
{
closed = 1;
nodes = (
"459 253 OFFCURVE",
"411 290 OFFCURVE",
"307 332 CURVE SMOOTH",
"251 355 OFFCURVE",
"193 375 OFFCURVE",
"193 410 CURVE SMOOTH",
"193 434 OFFCURVE",
"215 446 OFFCURVE",
"259 446 CURVE SMOOTH",
"308.333 446 OFFCURVE",
"354.667 428.667 OFFCURVE",
"408 406 CURVE",
"453 513 LINE",
"387.667 543.667 OFFCURVE",
"329 556 OFFCURVE",
"261 556 CURVE SMOOTH",
"130.333 556 OFFCURVE",
"45 505.333 OFFCURVE",
"45 404 CURVE SMOOTH",
"45 312 OFFCURVE",
"91 276 OFFCURVE",
"194 232 CURVE SMOOTH",
"254 207 OFFCURVE",
"312 186 OFFCURVE",
"312 146 CURVE SMOOTH",
"312 118 OFFCURVE",
"288.333 99 OFFCURVE",
"231 99 CURVE SMOOTH",
"179 99 OFFCURVE",
"104.667 118.333 OFFCURVE",
"46 145 CURVE",
"46 22 LINE",
"100.667 -0.667 OFFCURVE",
"150 -10 OFFCURVE",
"226 -10 CURVE SMOOTH",
"380.667 -10 OFFCURVE",
"459 51.333 OFFCURVE",
"459 162 CURVE SMOOTH"
);
}
);
width = 497;
}
);
leftKerningGroup = s;
unicode = 0073;
},
{
export = 0;
glyphname = t;
lastChange = "2019-11-20 18:03:36 +0000";
layers = (
{
anchors = (
{
name = bottom;
position = "{214, 0}";
},
{
name = center;
position = "{181, 268}";
},
{
name = top;
position = "{154, 659}";
},
{
name = topright;
position = "{335, 659}";
}
);
layerId = master01;
paths = (
{
closed = 1;
nodes = (
"215 62 OFFCURVE",
"180 93 OFFCURVE",
"180 158 CURVE SMOOTH",
"180 468 LINE",
"335 468 LINE",
"335 536 LINE",
"180 536 LINE",
"180 659 LINE",
"128 659 LINE",
"93 545 LINE",
"16 510 LINE",
"16 468 LINE",
"92 468 LINE",
"92 156 LINE SMOOTH",
"92 26 OFFCURVE",
"165 -10 OFFCURVE",
"249 -10 CURVE SMOOTH",
"281 -10 OFFCURVE",
"320 -3 OFFCURVE",
"339 6 CURVE",
"339 73 LINE",
"322 67 OFFCURVE",
"290 62 OFFCURVE",
"264 62 CURVE SMOOTH"
);
}
);
userData = {
com.schriftgestaltung.Glyphs.category = Letter;
com.schriftgestaltung.Glyphs.lastChange = "2017/12/05 22:37:38";
com.schriftgestaltung.Glyphs.script = latin;
com.schriftgestaltung.Glyphs.subCategory = Lowercase;
};
width = 361;
},
{
anchors = (
{
name = bottom;
position = "{251, 0}";
},
{
name = center;
position = "{218, 268}";
},
{
name = top;
position = "{191, 659}";
},
{
name = topright;
position = "{372, 659}";
}
);
layerId = "201D1995-4E5E-441E-AFED-969F1360B126";
paths = (
{
closed = 1;
nodes = (
"269.333 109 OFFCURVE",
"243 129.667 OFFCURVE",
"243 171 CURVE SMOOTH",
"243 434 LINE",
"396 434 LINE",
"396 546 LINE",
"243 546 LINE",
"243 662 LINE",
"148 662 LINE",
"105 547 LINE",
"23 497 LINE",
"23 434 LINE",
"94 434 LINE",
"94 171 LINE SMOOTH",
"94 55 OFFCURVE",
"143 -10 OFFCURVE",
"265 -10 CURVE SMOOTH",
"321 -10 OFFCURVE",
"370 0.333 OFFCURVE",
"402 15 CURVE",
"402 126 LINE",
"371.333 115.333 OFFCURVE",
"341.333 109 OFFCURVE",
"308 109 CURVE SMOOTH"
);
}
);
width = 434;
}
);
leftKerningGroup = t;
rightKerningGroup = t;
unicode = 0074;
},
{
export = 0;
glyphname = u;
lastChange = "2019-11-20 18:03:36 +0000";
layers = (
{
anchors = (
{
name = bottom;
position = "{294, 0}";
},
{
name = top;
position = "{309, 536}";
},
{
name = topright;
position = "{562, 536}";
}
);
layerId = master01;
paths = (
{
closed = 1;
nodes = (
"445 536 LINE",
"445 257 LINE SMOOTH",
"445 132 OFFCURVE",
"406 63 OFFCURVE",
"287 63 CURVE SMOOTH",
"206 63 OFFCURVE",
"168 105 OFFCURVE",
"168 191 CURVE SMOOTH",
"168 536 LINE",
"79 536 LINE",
"79 185 LINE SMOOTH",
"79 49 OFFCURVE",
"145 -10 OFFCURVE",
"274 -10 CURVE SMOOTH",
"343 -10 OFFCURVE",
"409 15 OFFCURVE",
"444 71 CURVE",
"448 71 LINE",
"461 0 LINE",
"533 0 LINE",
"533 536 LINE"
);
}
);
userData = {
com.schriftgestaltung.Glyphs.category = Letter;
com.schriftgestaltung.Glyphs.lastChange = "2017/12/05 22:37:38";
com.schriftgestaltung.Glyphs.script = latin;
com.schriftgestaltung.Glyphs.subCategory = Lowercase;
};
width = 618;
},
{
anchors = (
{
name = bottom;
position = "{310, 0}";
},
{
name = top;
position = "{325, 536}";
},
{
name = topright;
position = "{608, 536}";
}
);
layerId = "201D1995-4E5E-441E-AFED-969F1360B126";
paths = (
{
closed = 1;
nodes = (
"430 546 LINE",
"430 289 LINE SMOOTH",
"430 173 OFFCURVE",
"402.667 109 OFFCURVE",
"312 109 CURVE SMOOTH",
"250.667 109 OFFCURVE",
"224 148.333 OFFCURVE",
"224 227 CURVE SMOOTH",
"224 546 LINE",
"75 546 LINE",
"75 190 LINE SMOOTH",
"75 50 OFFCURVE",
"151.667 -10 OFFCURVE",
"269 -10 CURVE SMOOTH",
"337 -10 OFFCURVE",
"402.333 14 OFFCURVE",
"437 70 CURVE",
"445 70 LINE",
"465 0 LINE",
"579 0 LINE",
"579 546 LINE"
);
}
);
width = 657;
}
);
leftKerningGroup = m;
unicode = 0075;
},
{
export = 0;
glyphname = v;
lastChange = "2019-11-20 18:03:36 +0000";
layers = (
{
anchors = (
{
name = bottom;
position = "{252, 0}";
},
{
name = top;
position = "{252, 536}";
},
{
name = topright;
position = "{488, 536}";
}
);
layerId = master01;
paths = (
{
closed = 1;
nodes = (
"304 0 LINE",
"508 536 LINE",
"414 536 LINE",
"300 220 LINE SMOOTH",
"285 177 OFFCURVE",
"262 111 OFFCURVE",
"255 78 CURVE",
"251 78 LINE",
"245 111 OFFCURVE",
"224 176 OFFCURVE",
"208 220 CURVE SMOOTH",
"94 536 LINE",
"0 536 LINE",
"203 0 LINE"
);
}
);
userData = {
com.schriftgestaltung.Glyphs.category = Letter;
com.schriftgestaltung.Glyphs.lastChange = "2017/12/05 22:37:38";
com.schriftgestaltung.Glyphs.script = latin;
com.schriftgestaltung.Glyphs.subCategory = Lowercase;
};
width = 508;
},
{
anchors = (
{
name = bottom;
position = "{282, 0}";
},
{
name = top;
position = "{282, 536}";
},
{
name = topright;
position = "{518, 536}";
}
);
layerId = "201D1995-4E5E-441E-AFED-969F1360B126";
paths = (
{
closed = 1;
nodes = (
"361 0 LINE",
"569 546 LINE",
"413 546 LINE",
"308 235 LINE SMOOTH",
"295.333 196.333 OFFCURVE",
"288 159 OFFCURVE",
"286 123 CURVE",
"282 123 LINE",
"279.333 155 OFFCURVE",
"273 197.667 OFFCURVE",
"261 235 CURVE SMOOTH",
"156 546 LINE",
"0 546 LINE",
"208 0 LINE"
);
}
);
width = 569;
}
);
leftKerningGroup = v;
rightKerningGroup = v;
unicode = 0076;
},
{
export = 0;
glyphname = w;
lastChange = "2019-11-20 18:03:36 +0000";
layers = (
{
anchors = (
{
name = bottom;
position = "{391, 0}";
},
{
name = top;
position = "{393, 536}";
},
{
name = topright;
position = "{766, 536}";
}
);
layerId = master01;
paths = (
{
closed = 1;
nodes = (
"626 1 LINE",
"775 537 LINE",
"685 537 LINE",
"610 251 LINE SMOOTH",
"594 190 OFFCURVE",
"578 125 OFFCURVE",
"574 92 CURVE",
"570 92 LINE",
"565 130 OFFCURVE",
"548 189 OFFCURVE",
"534 235 CURVE SMOOTH",
"442 537 LINE",
"346 537 LINE",
"251 235 LINE SMOOTH",
"237 191 OFFCURVE",
"222 124 OFFCURVE",
"215 91 CURVE",
"211 91 LINE",
"206 129 OFFCURVE",
"191 193 OFFCURVE",
"176 251 CURVE SMOOTH",
"102 537 LINE",
"11 537 LINE",
"158 1 LINE",
"258 1 LINE",
"354 302 LINE SMOOTH",
"372 358 OFFCURVE",
"385 415 OFFCURVE",
"390 445 CURVE",
"394 445 LINE",
"400 415 OFFCURVE",
"414 358 OFFCURVE",
"431 303 CURVE SMOOTH",
"523 1 LINE"
);
}
);
userData = {
com.schriftgestaltung.Glyphs.category = Letter;
com.schriftgestaltung.Glyphs.lastChange = "2017/12/05 22:37:38";
com.schriftgestaltung.Glyphs.script = latin;
com.schriftgestaltung.Glyphs.subCategory = Lowercase;
};
width = 786;
},
{
anchors = (
{
name = bottom;
position = "{420, 0}";
},
{
name = top;
position = "{422, 536}";
},
{
name = topright;
position = "{795, 536}";
}
);
layerId = "201D1995-4E5E-441E-AFED-969F1360B126";
paths = (
{
closed = 1;
nodes = (
"689 0 LINE",
"846 546 LINE",
"700 546 LINE",
"635 304 LINE SMOOTH",
"622.978 259.347 OFFCURVE",
"606.985 158.873 OFFCURVE",
"603 125 CURVE",
"599 125 LINE",
"596.915 164.612 OFFCURVE",
"582.396 249.486 OFFCURVE",
"575 284 CURVE SMOOTH",
"511 546 LINE",
"347 546 LINE",
"280 284 LINE SMOOTH",
"272.721 254.885 OFFCURVE",
"256.662 148.265 OFFCURVE",
"255 125 CURVE",
"251 125 LINE",
"245.035 162.778 OFFCURVE",
"230.723 267.887 OFFCURVE",
"221 304 CURVE SMOOTH",
"158 546 LINE",
"10 546 LINE",
"165 0 LINE",
"325 0 LINE",
"369 189 LINE SMOOTH",
"380.88 242.461 OFFCURVE",
"419.367 403.836 OFFCURVE",
"425 432 CURVE",
"429 432 LINE",
"431.364 420.181 OFFCURVE",
"481.547 205.677 OFFCURVE",
"485 191 CURVE SMOOTH",
"527 0 LINE"
);
}
);
width = 856;
}
);
leftKerningGroup = v;
rightKerningGroup = v;
unicode = 0077;
},
{
export = 0;
glyphname = x;
lastChange = "2019-11-20 18:03:36 +0000";
layers = (
{
anchors = (
{
name = bottom;
position = "{265, 0}";
},
{
name = top;
position = "{263, 536}";
},
{
name = topright;
position = "{509, 536}";
}
);
layerId = master01;
paths = (
{
closed = 1;
nodes = (
"18 0 LINE",
"117 0 LINE",
"265 214 LINE",
"411 0 LINE",
"511 0 LINE",
"316 274 LINE",
"501 536 LINE",
"402 536 LINE",
"265 334 LINE",
"127 536 LINE",
"27 536 LINE",
"212 274 LINE"
);
}
);
userData = {
com.schriftgestaltung.Glyphs.category = Letter;
com.schriftgestaltung.Glyphs.lastChange = "2017/12/05 22:37:38";
com.schriftgestaltung.Glyphs.script = latin;
com.schriftgestaltung.Glyphs.subCategory = Lowercase;
};
width = 529;
},
{
anchors = (
{
name = bottom;
position = "{282, 0}";
},
{
name = top;
position = "{280, 536}";
},
{
name = topright;
position = "{526, 536}";
}
);
layerId = "201D1995-4E5E-441E-AFED-969F1360B126";
paths = (
{
closed = 1;
nodes = (
"5 0 LINE",
"174 0 LINE",
"289 187 LINE",
"404 0 LINE",
"573 0 LINE",
"387 279 LINE",
"565 546 LINE",
"396 546 LINE",
"289 372 LINE",
"183 546 LINE",
"14 546 LINE",
"190 279 LINE"
);
}
);
width = 578;
}
);
leftKerningGroup = v;
rightKerningGroup = x;
unicode = 0078;
},
{
export = 0;
glyphname = y;
lastChange = "2019-11-20 18:03:36 +0000";
layers = (
{
anchors = (
{
name = bottom;
position = "{94, -240}";
},
{
name = top;
position = "{255, 536}";
},
{
name = topright;
position = "{490, 536}";
}
);
layerId = master01;
paths = (
{
closed = 1;
nodes = (
"217 -2 LINE",
"189 -73 LINE SMOOTH",
"167 -131 OFFCURVE",
"131 -168 OFFCURVE",
"70 -168 CURVE SMOOTH",
"47 -168 OFFCURVE",
"25 -165 OFFCURVE",
"11 -162 CURVE",
"11 -232 LINE",
"28 -236 OFFCURVE",
"52 -240 OFFCURVE",
"84 -240 CURVE SMOOTH",
"188 -240 OFFCURVE",
"241 -175 OFFCURVE",
"279 -74 CURVE SMOOTH",
"510 536 LINE",
"415 536 LINE",
"306 232 LINE SMOOTH",
"287 177 OFFCURVE",
"268 118 OFFCURVE",
"260 85 CURVE",
"256 85 LINE",
"248 129 OFFCURVE",
"231 177 OFFCURVE",
"211 231 CURVE SMOOTH",
"95 536 LINE",
"1 536 LINE"
);
}
);
userData = {
com.schriftgestaltung.Glyphs.category = Letter;
com.schriftgestaltung.Glyphs.lastChange = "2017/12/05 22:37:38";
com.schriftgestaltung.Glyphs.script = latin;
com.schriftgestaltung.Glyphs.subCategory = Lowercase;
};
width = 510;
},
{
anchors = (
{
name = bottom;
position = "{123, -240}";
},
{
name = top;
position = "{284, 536}";
},
{
name = topright;
position = "{519, 536}";
}
);
layerId = "201D1995-4E5E-441E-AFED-969F1360B126";
paths = (
{
closed = 1;
nodes = (
"217 4 LINE",
"208 -23 LINE SMOOTH",
"189.333 -76.333 OFFCURVE",
"155.667 -120 OFFCURVE",
"93 -120 CURVE SMOOTH",
"70.333 -120 OFFCURVE",
"47.333 -116.667 OFFCURVE",
"34 -114 CURVE",
"34 -232 LINE",
"52.667 -236 OFFCURVE",
"75.333 -240 OFFCURVE",
"110 -240 CURVE SMOOTH",
"214 -240 OFFCURVE",
"295.333 -183.333 OFFCURVE",
"338 -70 CURVE SMOOTH",
"569 546 LINE",
"409 546 LINE",
"308 239 LINE SMOOTH",
"297.333 208.333 OFFCURVE",
"291 178.667 OFFCURVE",
"287 144 CURVE",
"284 144 LINE",
"281.333 178.667 OFFCURVE",
"276.667 208.333 OFFCURVE",
"266 239 CURVE SMOOTH",
"163 546 LINE",
"0 546 LINE"
);
}
);
width = 569;
}
);
leftKerningGroup = v;
rightKerningGroup = v;
unicode = 0079;
},
{
export = 0;
glyphname = z;
lastChange = "2019-11-20 18:03:36 +0000";
layers = (
{
anchors = (
{
name = bottom;
position = "{242, 0}";
},
{
name = top;
position = "{235, 536}";
},
{
name = topright;
position = "{430, 536}";
}
);
layerId = master01;
paths = (
{
closed = 1;
nodes = (
"431 68 LINE",
"140 68 LINE",
"424 470 LINE",
"424 536 LINE",
"56 536 LINE",
"56 468 LINE",
"327 468 LINE",
"39 58 LINE",
"39 0 LINE",
"431 0 LINE"
);
}
);
userData = {
com.schriftgestaltung.Glyphs.category = Letter;
com.schriftgestaltung.Glyphs.lastChange = "2017/12/05 22:37:38";
com.schriftgestaltung.Glyphs.script = latin;
com.schriftgestaltung.Glyphs.subCategory = Lowercase;
};
width = 470;
},
{
anchors = (
{
name = bottom;
position = "{250, 0}";
},
{
name = top;
position = "{243, 536}";
},
{
name = topright;
position = "{468, 536}";
}
);
layerId = "201D1995-4E5E-441E-AFED-969F1360B126";
paths = (
{
closed = 1;
nodes = (
"458 114 LINE",
"203 114 LINE",
"449 449 LINE",
"449 546 LINE",
"42 546 LINE",
"42 432 LINE",
"280 432 LINE",
"27 88 LINE",
"27 0 LINE",
"458 0 LINE"
);
}
);
width = 488;
}
);
leftKerningGroup = z;
unicode = 007A;
},
{
glyphname = "Alif-adlam";
lastChange = "2019-11-22 21:29:01 +0000";
layers = (
{
anchors = (
{
name = gemconsonanttop;
position = "{345, 663}";
},
{
name = top;
position = "{331, 663}";
},
{
name = topAlif;
position = "{300, 745}";
}
);
layerId = master01;
paths = (
{
closed = 1;
nodes = (
"180 619 OFFCURVE",
"189 635 OFFCURVE",
"229 635 CURVE SMOOTH",
"520 635 LINE",
"523 639 LINE",
"477 714 LINE",
"202 714 LINE SMOOTH",
"108 714 OFFCURVE",
"90 682 OFFCURVE",
"90 596 CURVE SMOOTH",
"90 249 LINE SMOOTH",
"90 56 OFFCURVE",
"160 -10 OFFCURVE",
"338 -10 CURVE SMOOTH",
"521 -10 OFFCURVE",
"620 89 OFFCURVE",
"620 213 CURVE SMOOTH",
"620 311 OFFCURVE",
"571 352 OFFCURVE",
"546 366 CURVE",
"546 370 LINE",
"564 373 OFFCURVE",
"603 385 OFFCURVE",
"620 398 CURVE",
"593 471 LINE",
"571 458 OFFCURVE",
"499 433 OFFCURVE",
"414 433 CURVE SMOOTH",
"351 433 OFFCURVE",
"302 442 OFFCURVE",
"279 453 CURVE",
"258 376 LINE",
"277 366 OFFCURVE",
"332 358 OFFCURVE",
"398 352 CURVE SMOOTH",
"476 345 OFFCURVE",
"527 306 OFFCURVE",
"527 213 CURVE SMOOTH",
"527 119 OFFCURVE",
"451 69 OFFCURVE",
"340 69 CURVE SMOOTH",
"233 69 OFFCURVE",
"180 108 OFFCURVE",
"180 249 CURVE SMOOTH",
"180 577 LINE SMOOTH"
);
}
);
userData = {
com.schriftgestaltung.Glyphs.category = Letter;
com.schriftgestaltung.Glyphs.lastChange = "2017/01/05 17:36:54";
com.schriftgestaltung.Glyphs.subCategory = Uppercase;
com.schriftgestaltung.hints = (
{
horizontal = 0;
options = 0;
place = (
819,
90
);
stem = -2;
},
{
horizontal = 0;
options = 0;
place = (
1275,
90
);
stem = -2;
},
{
horizontal = 0;
options = 0;
place = (
51,
95
);
stem = -2;
},
{
horizontal = 0;
options = 0;
place = (
615,
95
);
stem = -2;
},
{
horizontal = 1;
options = 0;
place = (
31,
21
);
stem = -2;
target = (
u,
p
);
type = BottomGhost;
},
{
horizontal = 1;
options = 0;
place = (
364,
79
);
stem = -2;
},
{
horizontal = 1;
options = 0;
place = (
745,
-20
);
stem = -2;
target = (
d,
o,
w,
n
);
type = TopGhost;
},
{
horizontal = 1;
options = 0;
place = (
-164,
78
);
stem = -2;
},
{
horizontal = 1;
options = 0;
place = (
492,
79
);
stem = -2;
}
);
};
width = 685;
},
{
anchors = (
{
name = gemconsonanttop;
position = "{395, 663}";
},
{
name = top;
position = "{381, 663}";
},
{
name = topAlif;
position = "{335, 739}";
}
);
layerId = "201D1995-4E5E-441E-AFED-969F1360B126";
paths = (
{
closed = 1;
nodes = (
"231 573 OFFCURVE",
"240 589 OFFCURVE",
"280 589 CURVE SMOOTH",
"558 589 LINE",
"562 594 LINE",
"489 714 LINE",
"192 714 LINE SMOOTH",
"98 714 OFFCURVE",
"80 682 OFFCURVE",
"80 596 CURVE SMOOTH",
"80 277 LINE SMOOTH",
"80 72 OFFCURVE",
"160 -10 OFFCURVE",
"374 -10 CURVE SMOOTH",
"592 -10 OFFCURVE",
"666 102 OFFCURVE",
"666 225 CURVE SMOOTH",
"666 297 OFFCURVE",
"637 331 OFFCURVE",
"615 346 CURVE",
"615 351 LINE",
"640 355 OFFCURVE",
"685 371 OFFCURVE",
"700 382 CURVE",
"663 491 LINE",
"637 475 OFFCURVE",
"545 453 OFFCURVE",
"452 453 CURVE SMOOTH",
"374 453 OFFCURVE",
"325 464 OFFCURVE",
"308 471 CURVE",
"289 348 LINE",
"301 343 OFFCURVE",
"353 333 OFFCURVE",
"406 328 CURVE SMOOTH",
"464 323 OFFCURVE",
"510 302 OFFCURVE",
"510 225 CURVE SMOOTH",
"510 154 OFFCURVE",
"464 115 OFFCURVE",
"374 115 CURVE SMOOTH",
"282 115 OFFCURVE",
"231 154 OFFCURVE",
"231 277 CURVE SMOOTH",
"231 531 LINE SMOOTH"
);
}
);
userData = {
com.schriftgestaltung.Glyphs.category = Letter;
com.schriftgestaltung.Glyphs.lastChange = "2017/01/05 17:36:54";
com.schriftgestaltung.Glyphs.subCategory = Uppercase;
com.schriftgestaltung.hints = (
{
horizontal = 0;
options = 0;
place = (
819,
90
);
stem = -2;
},
{
horizontal = 0;
options = 0;
place = (
1275,
90
);
stem = -2;
},
{
horizontal = 0;
options = 0;
place = (
51,
95
);
stem = -2;
},
{
horizontal = 0;
options = 0;
place = (
615,
95
);
stem = -2;
},
{
horizontal = 1;
options = 0;
place = (
31,
21
);
stem = -2;
target = (
u,
p
);
type = BottomGhost;
},
{
horizontal = 1;
options = 0;
place = (
364,
79
);
stem = -2;
},
{
horizontal = 1;
options = 0;
place = (
745,
-20
);
stem = -2;
target = (
d,
o,
w,
n
);
type = TopGhost;
},
{
horizontal = 1;
options = 0;
place = (
-164,
78
);
stem = -2;
},
{
horizontal = 1;
options = 0;
place = (
492,
79
);
stem = -2;
}
);
};
width = 745;
}
);
unicode = 1E900;
},
{
glyphname = "Daali-adlam";
lastChange = "2019-11-22 21:29:01 +0000";
layers = (
{
anchors = (
{
name = gemconsonanttop;
position = "{299, 663}";
},
{
name = top;
position = "{294, 663}";
}
);
layerId = master01;
paths = (
{
closed = 1;
nodes = (
"516 714 LINE",
"426 714 LINE",
"426 304 LINE",
"423 302 LINE",
"411 313 OFFCURVE",
"377 329 OFFCURVE",
"277 350 CURVE SMOOTH",
"180 370 OFFCURVE",
"161 388 OFFCURVE",
"161 464 CURVE SMOOTH",
"161 714 LINE",
"71 714 LINE",
"71 454 LINE SMOOTH",
"71 321 OFFCURVE",
"122 296 OFFCURVE",
"247 272 CURVE SMOOTH",
"379 247 OFFCURVE",
"426 219 OFFCURVE",
"426 156 CURVE SMOOTH",
"426 137 LINE SMOOTH",
"426 95 OFFCURVE",
"417 79 OFFCURVE",
"377 79 CURVE SMOOTH",
"65 79 LINE",
"65 0 LINE",
"404 0 LINE SMOOTH",
"498 0 OFFCURVE",
"516 32 OFFCURVE",
"516 118 CURVE SMOOTH"
);
}
);
userData = {
com.schriftgestaltung.Glyphs.category = Letter;
com.schriftgestaltung.Glyphs.lastChange = "2017/01/05 17:36:54";
com.schriftgestaltung.Glyphs.subCategory = Uppercase;
com.schriftgestaltung.hints = (
{
horizontal = 0;
options = 0;
place = (
100,
90
);
stem = -2;
},
{
horizontal = 0;
options = 0;
place = (
556,
90
);
stem = -2;
},
{
horizontal = 0;
options = 0;
place = (
41,
495
);
stem = -2;
},
{
horizontal = 1;
options = 0;
place = (
0,
21
);
stem = -2;
target = (
u,
p
);
type = BottomGhost;
},
{
horizontal = 1;
options = 0;
place = (
333,
79
);
stem = -2;
},
{
horizontal = 1;
options = 0;
place = (
714,
-20
);
stem = -2;
target = (
d,
o,
w,
n
);
type = TopGhost;
},
{
horizontal = 1;
options = 0;
place = (
0,
80
);
stem = -2;
},
{
horizontal = 1;
options = 0;
place = (
634,
80
);
stem = -2;
}
);
};
width = 606;
},
{
anchors = (
{
name = gemconsonanttop;
position = "{309, 663}";
},
{
name = top;
position = "{305, 663}";
}
);
layerId = "201D1995-4E5E-441E-AFED-969F1360B126";
paths = (
{
closed = 1;
nodes = (
"558 714 LINE",
"407 714 LINE",
"407 333 LINE",
"402 331 LINE",
"390 342 OFFCURVE",
"370 349 OFFCURVE",
"299 366 CURVE SMOOTH",
"221 385 OFFCURVE",
"202 398 OFFCURVE",
"202 483 CURVE SMOOTH",
"202 714 LINE",
"51 714 LINE",
"51 453 LINE SMOOTH",
"51 321 OFFCURVE",
"88 294 OFFCURVE",
"234 258 CURVE SMOOTH",
"396 219 OFFCURVE",
"407 204 OFFCURVE",
"407 168 CURVE SMOOTH",
"407 162 LINE SMOOTH",
"407 126 OFFCURVE",
"398 125 OFFCURVE",
"358 125 CURVE SMOOTH",
"45 125 LINE",
"45 0 LINE",
"446 0 LINE SMOOTH",
"540 0 OFFCURVE",
"558 32 OFFCURVE",
"558 118 CURVE SMOOTH"
);
}
);
userData = {
com.schriftgestaltung.Glyphs.category = Letter;
com.schriftgestaltung.Glyphs.lastChange = "2017/01/05 17:36:54";
com.schriftgestaltung.Glyphs.subCategory = Uppercase;
com.schriftgestaltung.hints = (
{
horizontal = 0;
options = 0;
place = (
100,
90
);
stem = -2;
},
{
horizontal = 0;
options = 0;
place = (
556,
90
);
stem = -2;
},
{
horizontal = 0;
options = 0;
place = (
41,
495
);
stem = -2;
},
{
horizontal = 1;
options = 0;
place = (
0,
21
);
stem = -2;
target = (
u,
p
);
type = BottomGhost;
},
{
horizontal = 1;
options = 0;
place = (
333,
79
);
stem = -2;
},
{
horizontal = 1;
options = 0;
place = (
714,
-20
);
stem = -2;
target = (
d,
o,
w,
n
);
type = TopGhost;
},
{
horizontal = 1;
options = 0;
place = (
0,
80
);
stem = -2;
},
{
horizontal = 1;
options = 0;
place = (
634,
80
);
stem = -2;
}
);
};
width = 638;
}
);
unicode = 1E901;
},
{
glyphname = "Laam-adlam";
lastChange = "2019-11-22 21:29:01 +0000";
layers = (
{
anchors = (
{
name = top;
position = "{383, 663}";
}
);
layerId = master01;
paths = (
{
closed = 1;
nodes = (
"626 714 LINE",
"626 563 LINE SMOOTH",
"626 512 OFFCURVE",
"610 500 OFFCURVE",
"551 450 CURVE SMOOTH",
"503 409 OFFCURVE",
"491 398 OFFCURVE",
"478 384 CURVE",
"475 384 LINE",
"475 550 LINE SMOOTH",
"475 675 OFFCURVE",
"421 726 OFFCURVE",
"293 726 CURVE SMOOTH",
"134 726 OFFCURVE",
"75 625 OFFCURVE",
"60 595 CURVE",
"60 374 LINE",
"150 374 LINE",
"150 575 LINE",
"163 597 OFFCURVE",
"205 647 OFFCURVE",
"287 647 CURVE SMOOTH",
"360 647 OFFCURVE",
"385 614 OFFCURVE",
"385 550 CURVE SMOOTH",
"385 137 LINE SMOOTH",
"385 95 OFFCURVE",
"376 79 OFFCURVE",
"336 79 CURVE SMOOTH",
"60 79 LINE",
"60 0 LINE",
"363 0 LINE SMOOTH",
"457 0 OFFCURVE",
"475 32 OFFCURVE",
"475 118 CURVE SMOOTH",
"475 233 LINE SMOOTH",
"475 285 OFFCURVE",
"486 300 OFFCURVE",
"545 347 CURVE SMOOTH",
"585 380 OFFCURVE",
"610 399 OFFCURVE",
"624 413 CURVE",
"626 412 LINE",
"626 0 LINE",
"716 0 LINE",
"716 714 LINE"
);
}
);
userData = {
com.schriftgestaltung.Glyphs.category = Letter;
com.schriftgestaltung.Glyphs.lastChange = "2017/01/05 17:36:54";
com.schriftgestaltung.Glyphs.subCategory = Uppercase;
};
width = 806;
},
{
anchors = (
{
name = top;
position = "{413, 663}";
}
);
layerId = "201D1995-4E5E-441E-AFED-969F1360B126";
paths = (
{
closed = 1;
nodes = (
"636 714 LINE",
"636 536 LINE SMOOTH",
"636 499 OFFCURVE",
"629 493 OFFCURVE",
"584 462 CURVE SMOOTH",
"548 437 OFFCURVE",
"533 426 OFFCURVE",
"523 416 CURVE",
"520 416 LINE",
"520 522 LINE SMOOTH",
"520 681 OFFCURVE",
"450 726 OFFCURVE",
"317 726 CURVE SMOOTH",
"137 726 OFFCURVE",
"63 614 OFFCURVE",
"45 571 CURVE",
"45 374 LINE",
"196 374 LINE",
"196 543 LINE",
"207 566 OFFCURVE",
"236 600 OFFCURVE",
"298 600 CURVE SMOOTH",
"352 600 OFFCURVE",
"369 573 OFFCURVE",
"369 522 CURVE SMOOTH",
"369 183 LINE SMOOTH",
"369 141 OFFCURVE",
"360 125 OFFCURVE",
"320 125 CURVE SMOOTH",
"56 125 LINE",
"56 0 LINE",
"408 0 LINE SMOOTH",
"502 0 OFFCURVE",
"520 32 OFFCURVE",
"520 118 CURVE SMOOTH",
"520 244 LINE SMOOTH",
"520 297 OFFCURVE",
"526 304 OFFCURVE",
"574 339 CURVE SMOOTH",
"619 372 OFFCURVE",
"628 379 OFFCURVE",
"634 385 CURVE",
"636 384 LINE",
"636 0 LINE",
"787 0 LINE",
"787 714 LINE"
);
}
);
userData = {
com.schriftgestaltung.Glyphs.category = Letter;
com.schriftgestaltung.Glyphs.lastChange = "2017/01/05 17:36:54";
com.schriftgestaltung.Glyphs.subCategory = Uppercase;
};
width = 867;
}
);
unicode = 1E902;
},
{
glyphname = "Miim-adlam";
lastChange = "2019-11-22 21:32:18 +0000";
layers = (
{
anchors = (
{
name = top;
position = "{304, 663}";
}
);
layerId = master01;
paths = (
{
closed = 1;
nodes = (
"147 724 OFFCURVE",
"40 664 OFFCURVE",
"40 539 CURVE SMOOTH",
"40 425 OFFCURVE",
"105 370 OFFCURVE",
"266 321 CURVE SMOOTH",
"407 278 OFFCURVE",
"468 237 OFFCURVE",
"468 148 CURVE SMOOTH",
"468 105 OFFCURVE",
"443 79 OFFCURVE",
"375 79 CURVE SMOOTH",
"46 79 LINE",
"46 0 LINE",
"375 0 LINE SMOOTH",
"498 0 OFFCURVE",
"561 38 OFFCURVE",
"561 148 CURVE SMOOTH",
"561 294 OFFCURVE",
"480 343 OFFCURVE",
"315 393 CURVE SMOOTH",
"186 432 OFFCURVE",
"133 469 OFFCURVE",
"133 542 CURVE SMOOTH",
"133 607 OFFCURVE",
"186 645 OFFCURVE",
"307 645 CURVE SMOOTH",
"426 645 OFFCURVE",
"468 606 OFFCURVE",
"468 542 CURVE SMOOTH",
"468 482 OFFCURVE",
"440 451 OFFCURVE",
"416 425 CURVE",
"488 374 LINE",
"507 390 OFFCURVE",
"561 443 OFFCURVE",
"561 542 CURVE SMOOTH",
"561 654 OFFCURVE",
"498 724 OFFCURVE",
"307 724 CURVE SMOOTH"
);
}
);
userData = {
com.schriftgestaltung.Glyphs.category = Letter;
com.schriftgestaltung.Glyphs.lastChange = "2017/01/05 17:36:54";
com.schriftgestaltung.Glyphs.subCategory = Uppercase;
com.schriftgestaltung.hints = (
{
horizontal = 0;
options = 0;
place = (
817,
90
);
stem = -2;
},
{
horizontal = 0;
options = 0;
place = (
1273,
90
);
stem = -2;
},
{
horizontal = 0;
options = 0;
place = (
49,
95
);
stem = -2;
},
{
horizontal = 0;
options = 0;
place = (
613,
95
);
stem = -2;
},
{
horizontal = 0;
options = 0;
place = (
46,
91
);
stem = -2;
},
{
horizontal = 0;
options = 0;
place = (
451,
91
);
stem = -2;
},
{
horizontal = 0;
options = 0;
place = (
1053,
95
);
stem = -2;
},
{
horizontal = 0;
options = 0;
place = (
1617,
95
);
stem = -2;
},
{
horizontal = 1;
options = 0;
place = (
31,
21
);
stem = -2;
target = (
u,
p
);
type = BottomGhost;
},
{
horizontal = 1;
options = 0;
place = (
364,
79
);
stem = -2;
},
{
horizontal = 1;
options = 0;
place = (
745,
-20
);
stem = -2;
target = (
d,
o,
w,
n
);
type = TopGhost;
},
{
horizontal = 1;
options = 0;
place = (
-164,
78
);
stem = -2;
},
{
horizontal = 1;
options = 0;
place = (
492,
79
);
stem = -2;
},
{
horizontal = 1;
options = 0;
place = (
-10,
73
);
stem = -2;
},
{
horizontal = 1;
options = 0;
place = (
472,
74
);
stem = -2;
},
{
horizontal = 1;
options = 0;
place = (
241,
78
);
stem = -2;
},
{
horizontal = 1;
options = 0;
place = (
897,
79
);
stem = -2;
}
);
};
width = 616;
},
{
anchors = (
{
name = top;
position = "{337, 663}";
}
);
layerId = "201D1995-4E5E-441E-AFED-969F1360B126";
paths = (
{
closed = 1;
nodes = (
"138 724 OFFCURVE",
"45 662 OFFCURVE",
"45 535 CURVE SMOOTH",
"45 401 OFFCURVE",
"117 363 OFFCURVE",
"254 320 CURVE SMOOTH",
"417 269 OFFCURVE",
"460 238 OFFCURVE",
"460 178 CURVE SMOOTH",
"460 141 OFFCURVE",
"439 125 OFFCURVE",
"382 125 CURVE SMOOTH",
"50 125 LINE",
"50 0 LINE",
"382 0 LINE SMOOTH",
"545 0 OFFCURVE",
"614 49 OFFCURVE",
"614 178 CURVE SMOOTH",
"614 310 OFFCURVE",
"545 372 OFFCURVE",
"378 422 CURVE SMOOTH",
"225 468 OFFCURVE",
"201 488 OFFCURVE",
"201 538 CURVE SMOOTH",
"201 579 OFFCURVE",
"241 599 OFFCURVE",
"327 599 CURVE SMOOTH",
"417 599 OFFCURVE",
"458 576 OFFCURVE",
"458 518 CURVE SMOOTH",
"458 488 OFFCURVE",
"445 472 OFFCURVE",
"433 459 CURVE",
"555 396 LINE",
"575 414 OFFCURVE",
"614 456 OFFCURVE",
"614 538 CURVE SMOOTH",
"614 651 OFFCURVE",
"549 724 OFFCURVE",
"341 724 CURVE SMOOTH"
);
}
);
userData = {
com.schriftgestaltung.Glyphs.category = Letter;
com.schriftgestaltung.Glyphs.lastChange = "2017/01/05 17:36:54";
com.schriftgestaltung.Glyphs.subCategory = Uppercase;
com.schriftgestaltung.hints = (
{
horizontal = 0;
options = 0;
place = (
817,
90
);
stem = -2;
},
{
horizontal = 0;
options = 0;
place = (
1273,
90
);
stem = -2;
},
{
horizontal = 0;
options = 0;
place = (
49,
95
);
stem = -2;
},
{
horizontal = 0;
options = 0;
place = (
613,
95
);
stem = -2;
},
{
horizontal = 0;
options = 0;
place = (
46,
91
);
stem = -2;
},
{
horizontal = 0;
options = 0;
place = (
451,
91
);
stem = -2;
},
{
horizontal = 0;
options = 0;
place = (
1053,
95
);
stem = -2;
},
{
horizontal = 0;
options = 0;
place = (
1617,
95
);
stem = -2;
},
{
horizontal = 1;
options = 0;
place = (
31,
21
);
stem = -2;
target = (
u,
p
);
type = BottomGhost;
},
{
horizontal = 1;
options = 0;
place = (
364,
79
);
stem = -2;
},
{
horizontal = 1;
options = 0;
place = (
745,
-20
);
stem = -2;
target = (
d,
o,
w,
n
);
type = TopGhost;
},
{
horizontal = 1;
options = 0;
place = (
-164,
78
);
stem = -2;
},
{
horizontal = 1;
options = 0;
place = (
492,
79
);
stem = -2;
},
{
horizontal = 1;
options = 0;
place = (
-10,
73
);
stem = -2;
},
{
horizontal = 1;
options = 0;
place = (
472,
74
);
stem = -2;
},
{
horizontal = 1;
options = 0;
place = (
241,
78
);
stem = -2;
},
{
horizontal = 1;
options = 0;
place = (
897,
79
);
stem = -2;
}
);
};
width = 669;
}
);
unicode = 1E903;
},
{
glyphname = "Ba-adlam";
lastChange = "2019-11-22 21:29:01 +0000";
layers = (
{
anchors = (
{
name = top;
position = "{355, 663}";
}
);
layerId = master01;
paths = (
{
closed = 1;
nodes = (
"471 79 LINE SMOOTH",
"430 79 OFFCURVE",
"421 95 OFFCURVE",
"421 137 CURVE SMOOTH",
"421 253 LINE",
"605 267 OFFCURVE",
"698 355 OFFCURVE",
"698 512 CURVE SMOOTH",
"698 665 OFFCURVE",
"609 724 OFFCURVE",
"481 724 CURVE SMOOTH",
"405 724 OFFCURVE",
"351 707 OFFCURVE",
"331 694 CURVE",
"331 332 LINE",
"285 333 OFFCURVE",
"207 346 OFFCURVE",
"180 357 CURVE",
"180 714 LINE",
"90 714 LINE",
"90 0 LINE",
"180 0 LINE",
"180 272 LINE",
"210 262 OFFCURVE",
"288 253 OFFCURVE",
"331 253 CURVE",
"331 118 LINE SMOOTH",
"331 32 OFFCURVE",
"349 0 OFFCURVE",
"444 0 CURVE SMOOTH",
"693 0 LINE",
"693 79 LINE"
);
},
{
closed = 1;
nodes = (
"548 645 OFFCURVE",
"605 608 OFFCURVE",
"605 506 CURVE SMOOTH",
"605 393 OFFCURVE",
"543 343 OFFCURVE",
"421 332 CURVE",
"421 636 LINE",
"431 641 OFFCURVE",
"453 645 OFFCURVE",
"481 645 CURVE SMOOTH"
);
}
);
userData = {
com.schriftgestaltung.Glyphs.category = Letter;
com.schriftgestaltung.Glyphs.lastChange = "2017/01/05 17:36:54";
com.schriftgestaltung.Glyphs.subCategory = Uppercase;
com.schriftgestaltung.hints = (
{
horizontal = 0;
options = 0;
place = (
57,
90
);
stem = -2;
},
{
horizontal = 0;
options = 0;
place = (
513,
90
);
stem = -2;
},
{
horizontal = 0;
options = 0;
place = (
-2,
495
);
stem = -2;
},
{
horizontal = 0;
options = 0;
place = (
45,
88
);
stem = -2;
},
{
horizontal = 0;
options = 0;
place = (
410,
87
);
stem = -2;
},
{
horizontal = 0;
options = 0;
place = (
-1,
392
);
stem = -2;
},
{
horizontal = 1;
options = 0;
place = (
0,
21
);
stem = -2;
target = (
u,
p
);
type = BottomGhost;
},
{
horizontal = 1;
options = 0;
place = (
333,
79
);
stem = -2;
},
{
horizontal = 1;
options = 0;
place = (
714,
-20
);
stem = -2;
target = (
d,
o,
w,
n
);
type = TopGhost;
},
{
horizontal = 1;
options = 0;
place = (
0,
80
);
stem = -2;
},
{
horizontal = 1;
options = 0;
place = (
634,
80
);
stem = -2;
},
{
horizontal = 1;
options = 0;
place = (
0,
21
);
stem = -2;
target = (
u,
p
);
type = BottomGhost;
},
{
horizontal = 1;
options = 0;
place = (
472,
74
);
stem = -2;
},
{
horizontal = 1;
options = 0;
place = (
536,
-20
);
stem = -2;
target = (
d,
o,
w,
n
);
type = TopGhost;
},
{
horizontal = 1;
options = 0;
place = (
0,
68
);
stem = -2;
},
{
horizontal = 1;
options = 0;
place = (
468,
68
);
stem = -2;
}
);
};
width = 753;
},
{
anchors = (
{
name = top;
position = "{406, 663}";
}
);
layerId = "201D1995-4E5E-441E-AFED-969F1360B126";
paths = (
{
closed = 1;
nodes = (
"547 125 LINE SMOOTH",
"507 125 OFFCURVE",
"498 141 OFFCURVE",
"498 183 CURVE SMOOTH",
"498 240 LINE",
"697 253 OFFCURVE",
"785 349 OFFCURVE",
"785 501 CURVE SMOOTH",
"785 654 OFFCURVE",
"692 724 OFFCURVE",
"532 724 CURVE SMOOTH",
"434 724 OFFCURVE",
"367 707 OFFCURVE",
"347 694 CURVE",
"347 365 LINE",
"311 368 OFFCURVE",
"255 379 OFFCURVE",
"231 389 CURVE",
"231 714 LINE",
"80 714 LINE",
"80 0 LINE",
"231 0 LINE",
"231 259 LINE",
"254 251 OFFCURVE",
"308 242 OFFCURVE",
"347 240 CURVE",
"347 118 LINE SMOOTH",
"347 32 OFFCURVE",
"365 0 OFFCURVE",
"460 0 CURVE SMOOTH",
"744 0 LINE",
"744 125 LINE"
);
},
{
closed = 1;
nodes = (
"581 599 OFFCURVE",
"629 571 OFFCURVE",
"629 490 CURVE SMOOTH",
"629 411 OFFCURVE",
"593 372 OFFCURVE",
"498 365 CURVE",
"498 594 LINE",
"505 597 OFFCURVE",
"516 599 OFFCURVE",
"532 599 CURVE SMOOTH"
);
}
);
userData = {
com.schriftgestaltung.Glyphs.category = Letter;
com.schriftgestaltung.Glyphs.lastChange = "2017/01/05 17:36:54";
com.schriftgestaltung.Glyphs.subCategory = Uppercase;
com.schriftgestaltung.hints = (
{
horizontal = 0;
options = 0;
place = (
57,
90
);
stem = -2;
},
{
horizontal = 0;
options = 0;
place = (
513,
90
);
stem = -2;
},
{
horizontal = 0;
options = 0;
place = (
-2,
495
);
stem = -2;
},
{
horizontal = 0;
options = 0;
place = (
45,
88
);
stem = -2;
},
{
horizontal = 0;
options = 0;
place = (
410,
87
);
stem = -2;
},
{
horizontal = 0;
options = 0;
place = (
-1,
392
);
stem = -2;
},
{
horizontal = 1;
options = 0;
place = (
0,
21
);
stem = -2;
target = (
u,
p
);
type = BottomGhost;
},
{
horizontal = 1;
options = 0;
place = (
333,
79
);
stem = -2;
},
{
horizontal = 1;
options = 0;
place = (
714,
-20
);
stem = -2;
target = (
d,
o,
w,
n
);
type = TopGhost;
},
{
horizontal = 1;
options = 0;
place = (
0,
80
);
stem = -2;
},
{
horizontal = 1;
options = 0;
place = (
634,
80
);
stem = -2;
},
{
horizontal = 1;
options = 0;
place = (
0,
21
);
stem = -2;
target = (
u,
p
);
type = BottomGhost;
},
{
horizontal = 1;
options = 0;
place = (
472,
74
);
stem = -2;
},
{
horizontal = 1;
options = 0;
place = (
536,
-20
);
stem = -2;
target = (
d,
o,
w,
n
);
type = TopGhost;
},
{
horizontal = 1;
options = 0;
place = (
0,
68
);
stem = -2;
},
{
horizontal = 1;
options = 0;
place = (
468,
68
);
stem = -2;
}
);
};
width = 830;
}
);
unicode = 1E904;
},
{
glyphname = "Sinnyiiyhe-adlam";
lastChange = "2019-11-22 21:29:01 +0000";
layers = (
{
anchors = (
{
name = bottom;
position = "{427, 0}";
},
{
name = gemconsonanttop;
position = "{437, 663}";
},
{
name = top;
position = "{427, 663}";
}
);
layerId = master01;
paths = (
{
closed = 1;
nodes = (
"705 187 LINE SMOOTH",
"705 112 OFFCURVE",
"673 69 OFFCURVE",
"604 69 CURVE SMOOTH",
"534 69 OFFCURVE",
"487 113 OFFCURVE",
"487 187 CURVE SMOOTH",
"487 535 LINE",
"397 535 LINE",
"397 187 LINE SMOOTH",
"397 113 OFFCURVE",
"351 69 OFFCURVE",
"279 69 CURVE SMOOTH",
"207 69 OFFCURVE",
"180 120 OFFCURVE",
"180 188 CURVE SMOOTH",
"180 714 LINE",
"90 714 LINE",
"90 188 LINE SMOOTH",
"90 44 OFFCURVE",
"159 -10 OFFCURVE",
"269 -10 CURVE SMOOTH",
"366 -10 OFFCURVE",
"419 28 OFFCURVE",
"436 65 CURVE",
"442 65 LINE",
"459 28 OFFCURVE",
"505 -10 OFFCURVE",
"604 -10 CURVE SMOOTH",
"724 -10 OFFCURVE",
"795 44 OFFCURVE",
"795 187 CURVE SMOOTH",
"795 596 LINE SMOOTH",
"795 682 OFFCURVE",
"777 714 OFFCURVE",
"683 714 CURVE SMOOTH",
"402 714 LINE",
"402 635 LINE",
"656 635 LINE SMOOTH",
"696 635 OFFCURVE",
"705 619 OFFCURVE",
"705 577 CURVE SMOOTH"
);
}
);
userData = {
com.schriftgestaltung.Glyphs.category = Letter;
com.schriftgestaltung.Glyphs.lastChange = "2017/01/05 17:36:54";
com.schriftgestaltung.Glyphs.subCategory = Uppercase;
com.schriftgestaltung.hints = (
{
horizontal = 0;
options = 0;
place = (
72,
91
);
stem = -2;
},
{
horizontal = 0;
options = 0;
place = (
477,
91
);
stem = -2;
},
{
horizontal = 1;
options = 0;
place = (
-10,
73
);
stem = -2;
},
{
horizontal = 1;
options = 0;
place = (
472,
74
);
stem = -2;
}
);
};
width = 885;
},
{
anchors = (
{
name = bottom;
position = "{454, 0}";
},
{
name = gemconsonanttop;
position = "{464, 663}";
},
{
name = top;
position = "{454, 663}";
}
);
layerId = "201D1995-4E5E-441E-AFED-969F1360B126";
paths = (
{
closed = 1;
nodes = (
"853 682 OFFCURVE",
"835 714 OFFCURVE",
"741 714 CURVE SMOOTH",
"391 714 LINE",
"391 589 LINE",
"653 589 LINE SMOOTH",
"693 589 OFFCURVE",
"702 573 OFFCURVE",
"702 531 CURVE SMOOTH",
"702 212 LINE SMOOTH",
"702 144 OFFCURVE",
"673 116 OFFCURVE",
"622 116 CURVE SMOOTH",
"568 116 OFFCURVE",
"542 144 OFFCURVE",
"542 212 CURVE SMOOTH",
"542 496 LINE",
"391 496 LINE",
"391 212 LINE SMOOTH",
"391 144 OFFCURVE",
"358 116 OFFCURVE",
"305 116 CURVE SMOOTH",
"255 116 OFFCURVE",
"231 144 OFFCURVE",
"231 212 CURVE SMOOTH",
"231 714 LINE",
"80 714 LINE",
"80 212 LINE SMOOTH",
"80 45 OFFCURVE",
"164 -10 OFFCURVE",
"291 -10 CURVE SMOOTH",
"383 -10 OFFCURVE",
"444 28 OFFCURVE",
"464 65 CURVE",
"469 65 LINE",
"489 28 OFFCURVE",
"541 -10 OFFCURVE",
"627 -10 CURVE SMOOTH",
"744 -10 OFFCURVE",
"853 45 OFFCURVE",
"853 212 CURVE SMOOTH",
"853 596 LINE SMOOTH"
);
}
);
userData = {
com.schriftgestaltung.Glyphs.category = Letter;
com.schriftgestaltung.Glyphs.lastChange = "2017/01/05 17:36:54";
com.schriftgestaltung.Glyphs.subCategory = Uppercase;
com.schriftgestaltung.hints = (
{
horizontal = 0;
options = 0;
place = (
72,
91
);
stem = -2;
},
{
horizontal = 0;
options = 0;
place = (
477,
91
);
stem = -2;
},
{
horizontal = 1;
options = 0;
place = (
-10,
73
);
stem = -2;
},
{
horizontal = 1;
options = 0;
place = (
472,
74
);
stem = -2;
}
);
};
width = 933;
}
);
unicode = 1E905;
},
{
glyphname = "Pe-adlam";
lastChange = "2019-11-22 21:29:01 +0000";
layers = (
{
anchors = (
{
name = top;
position = "{308, 663}";
}
);
layerId = master01;
paths = (
{
closed = 1;
nodes = (
"215 79 LINE SMOOTH",
"188 79 OFFCURVE",
"180 90 OFFCURVE",
"180 114 CURVE SMOOTH",
"180 623 LINE",
"198 635 OFFCURVE",
"224 645 OFFCURVE",
"273 645 CURVE SMOOTH",
"367 645 OFFCURVE",
"441 574 OFFCURVE",
"441 438 CURVE SMOOTH",
"441 307 OFFCURVE",
"361 231 OFFCURVE",
"313 189 CURVE",
"371 124 LINE",
"423 168 OFFCURVE",
"534 263 OFFCURVE",
"534 444 CURVE SMOOTH",
"534 633 OFFCURVE",
"431 724 OFFCURVE",
"273 724 CURVE SMOOTH",
"176 724 OFFCURVE",
"120 693 OFFCURVE",
"90 668 CURVE",
"90 48 LINE SMOOTH",
"90 17 OFFCURVE",
"103 0 OFFCURVE",
"140 0 CURVE SMOOTH",
"514 0 LINE",
"514 79 LINE"
);
}
);
userData = {
com.schriftgestaltung.Glyphs.category = Letter;
com.schriftgestaltung.Glyphs.lastChange = "2017/01/05 17:36:54";
com.schriftgestaltung.Glyphs.subCategory = Uppercase;
com.schriftgestaltung.hints = (
{
horizontal = 0;
options = 0;
place = (
88,
95
);
stem = -2;
},
{
horizontal = 1;
options = 0;
place = (
-10,
79
);
stem = -2;
},
{
horizontal = 1;
options = 0;
place = (
645,
79
);
stem = -2;
}
);
};
width = 609;
},
{
anchors = (
{
name = top;
position = "{328, 663}";
}
);
layerId = "201D1995-4E5E-441E-AFED-969F1360B126";
paths = (
{
closed = 1;
nodes = (
"266 125 LINE SMOOTH",
"239 125 OFFCURVE",
"231 136 OFFCURVE",
"231 160 CURVE SMOOTH",
"231 589 LINE",
"239 593 OFFCURVE",
"258 599 OFFCURVE",
"288 599 CURVE SMOOTH",
"357 599 OFFCURVE",
"419 550 OFFCURVE",
"419 435 CURVE SMOOTH",
"419 340 OFFCURVE",
"369 293 OFFCURVE",
"334 260 CURVE",
"434 153 LINE",
"477 190 OFFCURVE",
"575 275 OFFCURVE",
"575 439 CURVE SMOOTH",
"575 623 OFFCURVE",
"473 724 OFFCURVE",
"288 724 CURVE SMOOTH",
"182 724 OFFCURVE",
"108 694 OFFCURVE",
"80 676 CURVE",
"80 48 LINE SMOOTH",
"80 17 OFFCURVE",
"93 0 OFFCURVE",
"130 0 CURVE SMOOTH",
"545 0 LINE",
"545 125 LINE"
);
}
);
userData = {
com.schriftgestaltung.Glyphs.category = Letter;
com.schriftgestaltung.Glyphs.lastChange = "2017/01/05 17:36:54";
com.schriftgestaltung.Glyphs.subCategory = Uppercase;
com.schriftgestaltung.hints = (
{
horizontal = 0;
options = 0;
place = (
88,
95
);
stem = -2;
},
{
horizontal = 1;
options = 0;
place = (
-10,
79
);
stem = -2;
},
{
horizontal = 1;
options = 0;
place = (
645,
79
);
stem = -2;
}
);
};
width = 630;
}
);
unicode = 1E906;
},
{
glyphname = "Bhe-adlam";
lastChange = "2019-11-22 21:32:22 +0000";
layers = (
{
anchors = (
{
name = top;
position = "{329, 663}";
}
);
layerId = master01;
paths = (
{
closed = 1;
nodes = (
"551 635 LINE",
"551 714 LINE",
"284 714 LINE SMOOTH",
"145 714 OFFCURVE",
"45 683 OFFCURVE",
"45 538 CURVE SMOOTH",
"45 446 OFFCURVE",
"90 380 OFFCURVE",
"177 324 CURVE SMOOTH",
"247 278 OFFCURVE",
"293 228 OFFCURVE",
"293 141 CURVE SMOOTH",
"293 92 OFFCURVE",
"270 79 OFFCURVE",
"229 79 CURVE SMOOTH",
"49 79 LINE",
"49 0 LINE",
"237 0 LINE SMOOTH",
"275 0 OFFCURVE",
"291 0 OFFCURVE",
"312 9 CURVE SMOOTH",
"354 27 OFFCURVE",
"382 67 OFFCURVE",
"382 168 CURVE",
"393 196 OFFCURVE",
"433 233 OFFCURVE",
"456 244 CURVE",
"461 242 LINE",
"461 0 LINE",
"551 0 LINE",
"551 532 LINE",
"461 532 LINE",
"461 340 LINE",
"434 328 OFFCURVE",
"379 291 OFFCURVE",
"362 260 CURVE",
"359 260 LINE",
"342 304 OFFCURVE",
"309 339 OFFCURVE",
"238 386 CURVE SMOOTH",
"169 433 OFFCURVE",
"138 477 OFFCURVE",
"138 537 CURVE SMOOTH",
"138 602 OFFCURVE",
"184 635 OFFCURVE",
"284 635 CURVE SMOOTH"
);
}
);
userData = {
com.schriftgestaltung.Glyphs.category = Letter;
com.schriftgestaltung.Glyphs.lastChange = "2017/01/05 17:36:54";
com.schriftgestaltung.Glyphs.subCategory = Uppercase;
};
width = 641;
},
{
anchors = (
{
name = top;
position = "{355, 663}";
}
);
layerId = "201D1995-4E5E-441E-AFED-969F1360B126";
paths = (
{
closed = 1;
nodes = (
"618 589 LINE",
"618 714 LINE",
"299 714 LINE SMOOTH",
"126 714 OFFCURVE",
"50 656 OFFCURVE",
"50 527 CURVE SMOOTH",
"50 419 OFFCURVE",
"99 379 OFFCURVE",
"163 321 CURVE SMOOTH",
"240 252 OFFCURVE",
"258 229 OFFCURVE",
"258 181 CURVE SMOOTH",
"258 134 OFFCURVE",
"234 125 OFFCURVE",
"189 125 CURVE SMOOTH",
"55 125 LINE",
"55 0 LINE",
"235 0 LINE SMOOTH",
"266 0 OFFCURVE",
"293 0 OFFCURVE",
"330 14 CURVE SMOOTH",
"375 31 OFFCURVE",
"411 81 OFFCURVE",
"411 178 CURVE",
"419 198 OFFCURVE",
"446 226 OFFCURVE",
"462 233 CURVE",
"467 231 LINE",
"467 0 LINE",
"618 0 LINE",
"618 516 LINE",
"467 516 LINE",
"467 341 LINE",
"446 333 OFFCURVE",
"408 306 OFFCURVE",
"394 281 CURVE",
"389 281 LINE",
"380 310 OFFCURVE",
"348 350 OFFCURVE",
"290 402 CURVE SMOOTH",
"236 450 OFFCURVE",
"206 477 OFFCURVE",
"206 529 CURVE SMOOTH",
"206 570 OFFCURVE",
"237 589 OFFCURVE",
"299 589 CURVE SMOOTH"
);
}
);
userData = {
com.schriftgestaltung.Glyphs.category = Letter;
com.schriftgestaltung.Glyphs.lastChange = "2017/01/05 17:36:54";
com.schriftgestaltung.Glyphs.subCategory = Uppercase;
};
width = 698;
}
);
unicode = 1E907;
},
{
glyphname = "Ra-adlam";
lastChange = "2019-11-22 21:29:01 +0000";
layers = (
{
anchors = (
{
name = top;
position = "{349, 663}";
}
);
layerId = master01;
paths = (
{
closed = 1;
nodes = (
"495 236 OFFCURVE",
"594 289 OFFCURVE",
"594 452 CURVE SMOOTH",
"594 714 LINE",
"504 714 LINE",
"504 451 LINE SMOOTH",
"504 348 OFFCURVE",
"448 315 OFFCURVE",
"340 315 CURVE SMOOTH",
"240 315 OFFCURVE",
"200 357 OFFCURVE",
"180 380 CURVE",
"180 714 LINE",
"90 714 LINE",
"90 118 LINE SMOOTH",
"90 32 OFFCURVE",
"108 0 OFFCURVE",
"202 0 CURVE SMOOTH",
"594 0 LINE",
"594 79 LINE",
"229 79 LINE SMOOTH",
"189 79 OFFCURVE",
"180 95 OFFCURVE",
"180 137 CURVE SMOOTH",
"180 276 LINE",
"185 279 LINE",
"198 268 OFFCURVE",
"240 236 OFFCURVE",
"340 236 CURVE SMOOTH"
);
}
);
userData = {
com.schriftgestaltung.Glyphs.category = Letter;
com.schriftgestaltung.Glyphs.lastChange = "2017/01/05 17:36:54";
com.schriftgestaltung.Glyphs.subCategory = Uppercase;
};
width = 679;
},
{
anchors = (
{
name = top;
position = "{370, 663}";
}
);
layerId = "201D1995-4E5E-441E-AFED-969F1360B126";
paths = (
{
closed = 1;
nodes = (
"537 223 OFFCURVE",
"646 276 OFFCURVE",
"646 458 CURVE SMOOTH",
"646 714 LINE",
"495 714 LINE",
"495 458 LINE SMOOTH",
"495 381 OFFCURVE",
"461 348 OFFCURVE",
"372 348 CURVE SMOOTH",
"286 348 OFFCURVE",
"247 390 OFFCURVE",
"231 413 CURVE",
"231 714 LINE",
"80 714 LINE",
"80 118 LINE SMOOTH",
"80 32 OFFCURVE",
"98 0 OFFCURVE",
"192 0 CURVE SMOOTH",
"646 0 LINE",
"646 125 LINE",
"280 125 LINE SMOOTH",
"240 125 OFFCURVE",
"231 141 OFFCURVE",
"231 183 CURVE SMOOTH",
"231 263 LINE",
"236 266 LINE",
"250 253 OFFCURVE",
"293 223 OFFCURVE",
"395 223 CURVE SMOOTH"
);
}
);
userData = {
com.schriftgestaltung.Glyphs.category = Letter;
com.schriftgestaltung.Glyphs.lastChange = "2017/01/05 17:36:54";
com.schriftgestaltung.Glyphs.subCategory = Uppercase;
};
width = 711;
}
);
unicode = 1E908;
},
{
glyphname = "E-adlam";
lastChange = "2019-11-22 21:32:25 +0000";
layers = (
{
anchors = (
{
name = bottom;
position = "{357, 0}";
},
{
name = top;
position = "{353, 666}";
},
{
name = "vowellengthencomb-adlam.case";
position = "{415, 557}";
}
);
layerId = master01;
paths = (
{
closed = 1;
nodes = (
"586 0 OFFCURVE",
"656 33 OFFCURVE",
"656 147 CURVE SMOOTH",
"656 276 OFFCURVE",
"547 316 OFFCURVE",
"491 326 CURVE",
"490 330 LINE",
"562 382 OFFCURVE",
"611 438 OFFCURVE",
"611 545 CURVE SMOOTH",
"611 657 OFFCURVE",
"542 724 OFFCURVE",
"363 724 CURVE SMOOTH",
"168 724 OFFCURVE",
"90 655 OFFCURVE",
"90 483 CURVE SMOOTH",
"90 0 LINE",
"180 0 LINE",
"180 38 LINE",
"186 73 OFFCURVE",
"205 99 OFFCURVE",
"215 109 CURVE",
"220 109 LINE",
"220 52 OFFCURVE",
"263 0 OFFCURVE",
"357 0 CURVE SMOOTH",
"473 0 LINE SMOOTH"
);
},
{
closed = 1;
nodes = (
"202 184 OFFCURVE",
"188 162 OFFCURVE",
"183 151 CURVE",
"180 151 LINE",
"180 483 LINE SMOOTH",
"180 608 OFFCURVE",
"237 645 OFFCURVE",
"363 645 CURVE SMOOTH",
"483 645 OFFCURVE",
"518 597 OFFCURVE",
"518 534 CURVE SMOOTH",
"518 456 OFFCURVE",
"483 422 OFFCURVE",
"376 350 CURVE SMOOTH",
"271 279 OFFCURVE",
"243 244 OFFCURVE",
"227 200 CURVE"
);
},
{
closed = 1;
nodes = (
"380 79 LINE SMOOTH",
"326 79 OFFCURVE",
"298 97 OFFCURVE",
"298 145 CURVE SMOOTH",
"298 199 OFFCURVE",
"347 245 OFFCURVE",
"385 264 CURVE",
"390 266 OFFCURVE",
"401 267 OFFCURVE",
"412 267 CURVE SMOOTH",
"475 267 OFFCURVE",
"563 228 OFFCURVE",
"563 146 CURVE SMOOTH",
"563 97 OFFCURVE",
"535 79 OFFCURVE",
"473 79 CURVE SMOOTH"
);
}
);
userData = {
com.schriftgestaltung.Glyphs.category = Letter;
com.schriftgestaltung.Glyphs.lastChange = "2017/01/05 17:36:54";
com.schriftgestaltung.Glyphs.subCategory = Uppercase;
};
width = 711;
},
{
anchors = (
{
name = bottom;
position = "{388, 0}";
},
{
name = top;
position = "{388, 666}";
},
{
name = "vowellengthencomb-adlam.case";
position = "{409, 602}";
}
);
layerId = "201D1995-4E5E-441E-AFED-969F1360B126";
paths = (
{
closed = 1;
nodes = (
"602 0 OFFCURVE",
"714 26 OFFCURVE",
"714 155 CURVE SMOOTH",
"714 269 OFFCURVE",
"632 314 OFFCURVE",
"543 324 CURVE",
"543 329 LINE",
"599 364 OFFCURVE",
"672 421 OFFCURVE",
"672 527 CURVE SMOOTH",
"672 657 OFFCURVE",
"595 724 OFFCURVE",
"388 724 CURVE SMOOTH",
"116 724 OFFCURVE",
"80 589 OFFCURVE",
"80 449 CURVE SMOOTH",
"80 0 LINE",
"231 0 LINE",
"231 45 LINE",
"236 77 OFFCURVE",
"251 104 OFFCURVE",
"271 122 CURVE",
"276 122 LINE",
"280 42 OFFCURVE",
"329 0 OFFCURVE",
"437 0 CURVE SMOOTH",
"513 0 LINE SMOOTH"
);
},
{
closed = 1;
nodes = (
"273 233 OFFCURVE",
"246 205 OFFCURVE",
"236 184 CURVE",
"231 184 LINE",
"231 449 LINE SMOOTH",
"231 541 OFFCURVE",
"246 599 OFFCURVE",
"390 599 CURVE SMOOTH",
"486 599 OFFCURVE",
"516 560 OFFCURVE",
"516 508 CURVE SMOOTH",
"516 455 OFFCURVE",
"499 431 OFFCURVE",
"417 376 CURVE SMOOTH",
"328 318 OFFCURVE",
"302 277 OFFCURVE",
"288 242 CURVE"
);
},
{
closed = 1;
nodes = (
"451 107 LINE SMOOTH",
"411 107 OFFCURVE",
"392 131 OFFCURVE",
"392 169 CURVE SMOOTH",
"392 213 OFFCURVE",
"419 242 OFFCURVE",
"441 257 CURVE",
"444 258 OFFCURVE",
"450 259 OFFCURVE",
"460 259 CURVE SMOOTH",
"521 259 OFFCURVE",
"558 215 OFFCURVE",
"558 167 CURVE SMOOTH",
"558 115 OFFCURVE",
"525 107 OFFCURVE",
"492 107 CURVE SMOOTH"
);
}
);
userData = {
com.schriftgestaltung.Glyphs.category = Letter;
com.schriftgestaltung.Glyphs.lastChange = "2017/01/05 17:36:54";
com.schriftgestaltung.Glyphs.subCategory = Uppercase;
};
width = 764;
}
);
unicode = 1E909;
},
{
glyphname = "Fa-adlam";
lastChange = "2019-11-22 21:29:01 +0000";
layers = (
{
anchors = (
{
name = top;
position = "{333, 663}";
}
);
layerId = master01;
paths = (
{
closed = 1;
nodes = (
"180 0 LINE",
"180 321 LINE SMOOTH",
"180 360 OFFCURVE",
"238 422 OFFCURVE",
"343 422 CURVE SMOOTH",
"430 422 OFFCURVE",
"472 382 OFFCURVE",
"472 269 CURVE SMOOTH",
"472 -104 LINE",
"562 -104 LINE",
"562 291 LINE SMOOTH",
"562 450 OFFCURVE",
"492 501 OFFCURVE",
"365 501 CURVE SMOOTH",
"250 501 OFFCURVE",
"206 460 OFFCURVE",
"184 435 CURVE",
"180 436 LINE",
"180 577 LINE SMOOTH",
"180 619 OFFCURVE",
"189 635 OFFCURVE",
"229 635 CURVE SMOOTH",
"540 635 LINE",
"540 714 LINE",
"202 714 LINE SMOOTH",
"108 714 OFFCURVE",
"90 682 OFFCURVE",
"90 596 CURVE SMOOTH",
"90 0 LINE"
);
}
);
userData = {
com.schriftgestaltung.Glyphs.category = Letter;
com.schriftgestaltung.Glyphs.lastChange = "2017/01/05 17:36:54";
com.schriftgestaltung.Glyphs.subCategory = Uppercase;
};
width = 647;
},
{
anchors = (
{
name = top;
position = "{354, 663}";
}
);
layerId = "201D1995-4E5E-441E-AFED-969F1360B126";
paths = (
{
closed = 1;
nodes = (
"231 0 LINE",
"231 265 LINE SMOOTH",
"231 304 OFFCURVE",
"289 366 OFFCURVE",
"364 366 CURVE SMOOTH",
"435 366 OFFCURVE",
"463 326 OFFCURVE",
"463 242 CURVE SMOOTH",
"463 -104 LINE",
"614 -104 LINE",
"614 281 LINE SMOOTH",
"614 426 OFFCURVE",
"544 491 OFFCURVE",
"413 491 CURVE SMOOTH",
"304 491 OFFCURVE",
"258 450 OFFCURVE",
"236 425 CURVE",
"231 426 LINE",
"231 531 LINE SMOOTH",
"231 573 OFFCURVE",
"240 589 OFFCURVE",
"280 589 CURVE SMOOTH",
"592 589 LINE",
"592 714 LINE",
"192 714 LINE SMOOTH",
"98 714 OFFCURVE",
"80 682 OFFCURVE",
"80 596 CURVE SMOOTH",
"80 0 LINE"
);
}
);
userData = {
com.schriftgestaltung.Glyphs.category = Letter;
com.schriftgestaltung.Glyphs.lastChange = "2017/01/05 17:36:54";
com.schriftgestaltung.Glyphs.subCategory = Uppercase;
};
width = 679;
}
);
unicode = 1E90A;
},
{
glyphname = "I-adlam";
lastChange = "2019-11-22 21:29:01 +0000";
layers = (
{
anchors = (
{
name = "vowellengthencomb-adlam.case";
position = "{449, 557}";
}
);
layerId = master01;
paths = (
{
closed = 1;
nodes = (
"603 714 LINE",
"603 236 LINE SMOOTH",
"603 114 OFFCURVE",
"546 69 OFFCURVE",
"397 69 CURVE SMOOTH",
"248 69 OFFCURVE",
"190 114 OFFCURVE",
"190 236 CURVE SMOOTH",
"190 714 LINE",
"100 714 LINE",
"100 233 LINE SMOOTH",
"100 37 OFFCURVE",
"198 -10 OFFCURVE",
"391 -10 CURVE SMOOTH",
"585 -10 OFFCURVE",
"693 37 OFFCURVE",
"693 233 CURVE SMOOTH",
"693 714 LINE"
);
}
);
userData = {
com.schriftgestaltung.Glyphs.category = Letter;
com.schriftgestaltung.Glyphs.lastChange = "2017/01/05 17:36:54";
com.schriftgestaltung.Glyphs.subCategory = Uppercase;
};
width = 793;
},
{
anchors = (
{
name = "vowellengthencomb-adlam.case";
position = "{460, 557}";
}
);
layerId = "201D1995-4E5E-441E-AFED-969F1360B126";
paths = (
{
closed = 1;
nodes = (
"584 714 LINE",
"584 282 LINE SMOOTH",
"584 160 OFFCURVE",
"542 115 OFFCURVE",
"413 115 CURVE SMOOTH",
"284 115 OFFCURVE",
"231 160 OFFCURVE",
"231 282 CURVE SMOOTH",
"231 714 LINE",
"80 714 LINE",
"80 253 LINE SMOOTH",
"80 57 OFFCURVE",
"183 -10 OFFCURVE",
"407 -10 CURVE SMOOTH",
"632 -10 OFFCURVE",
"735 57 OFFCURVE",
"735 253 CURVE SMOOTH",
"735 714 LINE"
);
}
);
userData = {
com.schriftgestaltung.Glyphs.category = Letter;
com.schriftgestaltung.Glyphs.lastChange = "2017/01/05 17:36:54";
com.schriftgestaltung.Glyphs.subCategory = Uppercase;
};
width = 815;
}
);
unicode = 1E90B;
},
{
glyphname = "O-adlam";
lastChange = "2019-11-22 21:29:41 +0000";
layers = (
{
anchors = (
{
name = bottom;
position = "{349, 0}";
},
{
name = top;
position = "{364, 663}";
},
{
name = "vowellengthencomb-adlam.case";
position = "{399, 557}";
}
);
layerId = master01;
paths = (
{
closed = 1;
nodes = (
"646 495 LINE",
"625 589 OFFCURVE",
"572 724 OFFCURVE",
"372 724 CURVE SMOOTH",
"199 724 OFFCURVE",
"65 621 OFFCURVE",
"65 356 CURVE SMOOTH",
"65 56 OFFCURVE",
"202 0 OFFCURVE",
"417 0 CURVE SMOOTH",
"646 0 LINE",
"646 79 LINE",
"417 79 LINE SMOOTH",
"282 79 OFFCURVE",
"160 114 OFFCURVE",
"160 362 CURVE SMOOTH",
"160 554 OFFCURVE",
"249 645 OFFCURVE",
"368 645 CURVE SMOOTH",
"489 645 OFFCURVE",
"538 542 OFFCURVE",
"553 470 CURVE"
);
}
);
userData = {
com.schriftgestaltung.Glyphs.category = Letter;
com.schriftgestaltung.Glyphs.lastChange = "2017/01/05 17:36:54";
com.schriftgestaltung.Glyphs.subCategory = Uppercase;
};
width = 706;
},
{
anchors = (
{
name = bottom;
position = "{364, 0}";
},
{
name = top;
position = "{379, 663}";
},
{
name = "vowellengthencomb-adlam.case";
position = "{414, 587}";
}
);
layerId = "201D1995-4E5E-441E-AFED-969F1360B126";
paths = (
{
closed = 1;
nodes = (
"676 472 LINE",
"655 594 OFFCURVE",
"596 724 OFFCURVE",
"374 724 CURVE SMOOTH",
"182 724 OFFCURVE",
"50 604 OFFCURVE",
"50 348 CURVE SMOOTH",
"50 65 OFFCURVE",
"217 0 OFFCURVE",
"423 0 CURVE SMOOTH",
"671 0 LINE",
"671 125 LINE",
"423 125 LINE SMOOTH",
"321 125 OFFCURVE",
"206 159 OFFCURVE",
"206 362 CURVE SMOOTH",
"206 525 OFFCURVE",
"274 599 OFFCURVE",
"374 599 CURVE SMOOTH",
"479 599 OFFCURVE",
"511 511 OFFCURVE",
"530 434 CURVE"
);
}
);
userData = {
com.schriftgestaltung.Glyphs.category = Letter;
com.schriftgestaltung.Glyphs.lastChange = "2017/01/05 17:36:54";
com.schriftgestaltung.Glyphs.subCategory = Uppercase;
};
width = 726;
}
);
unicode = 1E90C;
},
{
glyphname = "Dha-adlam";
lastChange = "2019-11-22 21:29:01 +0000";
layers = (
{
anchors = (
{
name = top;
position = "{342, 663}";
}
);
layerId = master01;
paths = (
{
closed = 1;
nodes = (
"604 597 LINE SMOOTH",
"604 683 OFFCURVE",
"586 714 OFFCURVE",
"492 714 CURVE SMOOTH",
"294 714 LINE",
"294 635 LINE",
"465 635 LINE SMOOTH",
"505 635 OFFCURVE",
"514 619 OFFCURVE",
"514 576 CURVE SMOOTH",
"514 441 LINE",
"510 439 LINE",
"482 476 OFFCURVE",
"433 501 OFFCURVE",
"348 501 CURVE SMOOTH",
"259 501 OFFCURVE",
"199 468 OFFCURVE",
"174 439 CURVE",
"170 440 LINE",
"170 714 LINE",
"80 714 LINE",
"80 260 LINE SMOOTH",
"80 71 OFFCURVE",
"170 -10 OFFCURVE",
"326 -10 CURVE SMOOTH",
"442 -10 OFFCURVE",
"491 41 OFFCURVE",
"509 67 CURVE",
"514 66 LINE",
"514 0 LINE",
"604 0 LINE"
);
},
{
closed = 1;
nodes = (
"514 184 LINE",
"496 136 OFFCURVE",
"457 69 OFFCURVE",
"337 69 CURVE SMOOTH",
"225 69 OFFCURVE",
"170 138 OFFCURVE",
"170 264 CURVE SMOOTH",
"170 338 LINE",
"190 372 OFFCURVE",
"243 422 OFFCURVE",
"347 422 CURVE SMOOTH",
"444 422 OFFCURVE",
"500 372 OFFCURVE",
"514 300 CURVE"
);
}
);
userData = {
com.schriftgestaltung.Glyphs.category = Letter;
com.schriftgestaltung.Glyphs.lastChange = "2017/01/05 17:36:54";
com.schriftgestaltung.Glyphs.subCategory = Uppercase;
};
width = 694;
},
{
anchors = (
{
name = top;
position = "{372, 663}";
}
);
layerId = "201D1995-4E5E-441E-AFED-969F1360B126";
paths = (
{
closed = 1;
nodes = (
"664 605 LINE SMOOTH",
"664 683 OFFCURVE",
"646 714 OFFCURVE",
"562 714 CURVE SMOOTH",
"324 714 LINE",
"324 589 LINE",
"464 589 LINE SMOOTH",
"504 589 OFFCURVE",
"513 573 OFFCURVE",
"513 530 CURVE SMOOTH",
"513 431 LINE",
"508 429 LINE",
"495 450 OFFCURVE",
"458 491 OFFCURVE",
"372 491 CURVE SMOOTH",
"289 491 OFFCURVE",
"254 457 OFFCURVE",
"236 436 CURVE",
"231 437 LINE",
"231 714 LINE",
"80 714 LINE",
"80 260 LINE SMOOTH",
"80 71 OFFCURVE",
"170 -10 OFFCURVE",
"313 -10 CURVE SMOOTH",
"441 -10 OFFCURVE",
"490 41 OFFCURVE",
"508 67 CURVE",
"513 66 LINE",
"513 0 LINE",
"664 0 LINE"
);
},
{
closed = 1;
nodes = (
"513 195 LINE",
"499 166 OFFCURVE",
"456 115 OFFCURVE",
"372 115 CURVE SMOOTH",
"286 115 OFFCURVE",
"231 163 OFFCURVE",
"231 260 CURVE SMOOTH",
"231 288 LINE",
"251 322 OFFCURVE",
"292 366 OFFCURVE",
"377 366 CURVE SMOOTH",
"468 366 OFFCURVE",
"505 321 OFFCURVE",
"513 272 CURVE"
);
}
);
userData = {
com.schriftgestaltung.Glyphs.category = Letter;
com.schriftgestaltung.Glyphs.lastChange = "2017/01/05 17:36:54";
com.schriftgestaltung.Glyphs.subCategory = Uppercase;
};
width = 744;
}
);
unicode = 1E90D;
},
{
glyphname = "Yhe-adlam";
lastChange = "2019-11-22 21:29:01 +0000";
layers = (
{
anchors = (
{
name = top;
position = "{335, 663}";
}
);
layerId = master01;
paths = (
{
closed = 1;
nodes = (
"332 79 LINE SMOOTH",
"232 79 OFFCURVE",
"155 152 OFFCURVE",
"155 268 CURVE SMOOTH",
"155 379 OFFCURVE",
"200 449 OFFCURVE",
"332 449 CURVE SMOOTH",
"573 449 LINE",
"573 528 LINE",
"510 572 OFFCURVE",
"367 696 OFFCURVE",
"333 735 CURVE",
"268 677 LINE",
"298 645 OFFCURVE",
"402 559 OFFCURVE",
"442 533 CURVE",
"440 528 LINE",
"331 528 LINE SMOOTH",
"144 528 OFFCURVE",
"60 415 OFFCURVE",
"60 266 CURVE SMOOTH",
"60 94 OFFCURVE",
"159 0 OFFCURVE",
"331 0 CURVE SMOOTH",
"583 0 LINE",
"583 79 LINE"
);
}
);
userData = {
com.schriftgestaltung.Glyphs.category = Letter;
com.schriftgestaltung.Glyphs.lastChange = "2017/01/05 17:36:54";
com.schriftgestaltung.Glyphs.subCategory = Uppercase;
};
width = 638;
},
{
anchors = (
{
name = top;
position = "{339, 666}";
}
);
layerId = "201D1995-4E5E-441E-AFED-969F1360B126";
paths = (
{
closed = 1;
nodes = (
"370 125 LINE SMOOTH",
"255 125 OFFCURVE",
"206 173 OFFCURVE",
"206 268 CURVE SMOOTH",
"206 358 OFFCURVE",
"247 413 OFFCURVE",
"350 413 CURVE SMOOTH",
"603 413 LINE",
"603 538 LINE",
"533 580 OFFCURVE",
"366 703 OFFCURVE",
"326 745 CURVE",
"243 651 LINE",
"279 614 OFFCURVE",
"354 562 OFFCURVE",
"390 543 CURVE",
"388 538 LINE",
"350 538 LINE SMOOTH",
"136 538 OFFCURVE",
"50 437 OFFCURVE",
"50 268 CURVE SMOOTH",
"50 84 OFFCURVE",
"141 0 OFFCURVE",
"370 0 CURVE SMOOTH",
"603 0 LINE",
"603 125 LINE"
);
}
);
userData = {
com.schriftgestaltung.Glyphs.category = Letter;
com.schriftgestaltung.Glyphs.lastChange = "2017/01/05 17:36:54";
com.schriftgestaltung.Glyphs.subCategory = Uppercase;
};
width = 658;
}
);
unicode = 1E90E;
},
{
glyphname = "Waw-adlam";
lastChange = "2019-11-22 21:29:01 +0000";
layers = (
{
anchors = (
{
name = top;
position = "{331, 663}";
}
);
layerId = master01;
paths = (
{
closed = 1;
nodes = (
"559 714 LINE",
"208 714 LINE SMOOTH",
"108 714 OFFCURVE",
"90 682 OFFCURVE",
"90 596 CURVE SMOOTH",
"90 0 LINE",
"180 0 LINE",
"180 298 LINE",
"262 298 LINE SMOOTH",
"319 298 OFFCURVE",
"336 284 OFFCURVE",
"347 273 CURVE",
"393 338 LINE",
"382 351 OFFCURVE",
"359 377 OFFCURVE",
"286 377 CURVE SMOOTH",
"180 377 LINE",
"180 577 LINE SMOOTH",
"180 619 OFFCURVE",
"189 635 OFFCURVE",
"229 635 CURVE SMOOTH",
"469 635 LINE",
"469 0 LINE",
"559 0 LINE"
);
}
);
userData = {
com.schriftgestaltung.Glyphs.category = Letter;
com.schriftgestaltung.Glyphs.lastChange = "2017/01/05 17:36:54";
com.schriftgestaltung.Glyphs.subCategory = Uppercase;
};
width = 649;
},
{
anchors = (
{
name = top;
position = "{356, 663}";
}
);
layerId = "201D1995-4E5E-441E-AFED-969F1360B126";
paths = (
{
closed = 1;
nodes = (
"609 714 LINE",
"198 714 LINE SMOOTH",
"98 714 OFFCURVE",
"80 682 OFFCURVE",
"80 596 CURVE SMOOTH",
"80 0 LINE",
"231 0 LINE",
"231 275 LINE",
"260 275 LINE SMOOTH",
"317 275 OFFCURVE",
"334 261 OFFCURVE",
"345 250 CURVE",
"412 361 LINE",
"401 374 OFFCURVE",
"378 400 OFFCURVE",
"305 400 CURVE SMOOTH",
"231 400 LINE",
"231 531 LINE SMOOTH",
"231 573 OFFCURVE",
"240 589 OFFCURVE",
"280 589 CURVE SMOOTH",
"458 589 LINE",
"458 0 LINE",
"609 0 LINE"
);
}
);
userData = {
com.schriftgestaltung.Glyphs.category = Letter;
com.schriftgestaltung.Glyphs.lastChange = "2017/01/05 17:36:54";
com.schriftgestaltung.Glyphs.subCategory = Uppercase;
};
width = 689;
}
);
unicode = 1E90F;
},
{
glyphname = "Nun-adlam";
lastChange = "2019-11-22 21:29:01 +0000";
layers = (
{
anchors = (
{
name = top;
position = "{329, 663}";
}
);
layerId = master01;
paths = (
{
closed = 1;
nodes = (
"276 79 LINE SMOOTH",
"173 79 OFFCURVE",
"135 98 OFFCURVE",
"135 186 CURVE SMOOTH",
"135 285 OFFCURVE",
"198 315 OFFCURVE",
"333 354 CURVE SMOOTH",
"475 396 OFFCURVE",
"557 427 OFFCURVE",
"557 554 CURVE SMOOTH",
"557 673 OFFCURVE",
"487 714 OFFCURVE",
"359 714 CURVE SMOOTH",
"284 714 LINE SMOOTH",
"153 714 OFFCURVE",
"100 645 OFFCURVE",
"84 617 CURVE",
"149 570 LINE",
"164 597 OFFCURVE",
"193 635 OFFCURVE",
"284 635 CURVE SMOOTH",
"357 635 LINE SMOOTH",
"433 635 OFFCURVE",
"467 609 OFFCURVE",
"467 554 CURVE SMOOTH",
"467 480 OFFCURVE",
"412 460 OFFCURVE",
"276 419 CURVE SMOOTH",
"130 374 OFFCURVE",
"45 324 OFFCURVE",
"45 177 CURVE SMOOTH",
"45 41 OFFCURVE",
"119 0 OFFCURVE",
"264 0 CURVE SMOOTH",
"375 0 LINE",
"375 79 LINE"
);
},
{
closed = 1;
nodes = (
"448 35 OFFCURVE",
"479 -4 OFFCURVE",
"495 -15 CURVE",
"566 38 LINE",
"552 52 OFFCURVE",
"538 72 OFFCURVE",
"538 129 CURVE SMOOTH",
"538 333 LINE",
"448 333 LINE",
"448 111 LINE SMOOTH"
);
}
);
userData = {
com.schriftgestaltung.Glyphs.category = Letter;
com.schriftgestaltung.Glyphs.lastChange = "2017/01/05 17:36:54";
com.schriftgestaltung.Glyphs.subCategory = Uppercase;
};
width = 651;
},
{
anchors = (
{
name = top;
position = "{359, 663}";
}
);
layerId = "201D1995-4E5E-441E-AFED-969F1360B126";
paths = (
{
closed = 1;
nodes = (
"326 125 LINE SMOOTH",
"254 125 OFFCURVE",
"201 144 OFFCURVE",
"201 208 CURVE SMOOTH",
"201 268 OFFCURVE",
"259 290 OFFCURVE",
"390 332 CURVE SMOOTH",
"532 377 OFFCURVE",
"617 405 OFFCURVE",
"617 538 CURVE SMOOTH",
"617 662 OFFCURVE",
"547 714 OFFCURVE",
"393 714 CURVE SMOOTH",
"330 714 LINE SMOOTH",
"153 714 OFFCURVE",
"100 645 OFFCURVE",
"84 617 CURVE",
"201 531 LINE",
"216 558 OFFCURVE",
"254 589 OFFCURVE",
"330 589 CURVE SMOOTH",
"391 589 LINE SMOOTH",
"434 589 OFFCURVE",
"461 578 OFFCURVE",
"461 538 CURVE SMOOTH",
"461 495 OFFCURVE",
"437 484 OFFCURVE",
"286 436 CURVE SMOOTH",
"134 388 OFFCURVE",
"45 347 OFFCURVE",
"45 201 CURVE SMOOTH",
"45 41 OFFCURVE",
"147 0 OFFCURVE",
"294 0 CURVE SMOOTH",
"374 0 LINE",
"374 125 LINE"
);
},
{
closed = 1;
nodes = (
"443 35 OFFCURVE",
"474 -4 OFFCURVE",
"490 -15 CURVE",
"622 58 LINE",
"608 72 OFFCURVE",
"594 92 OFFCURVE",
"594 149 CURVE SMOOTH",
"594 308 LINE",
"443 308 LINE",
"443 111 LINE SMOOTH"
);
}
);
userData = {
com.schriftgestaltung.Glyphs.category = Letter;
com.schriftgestaltung.Glyphs.lastChange = "2017/01/05 17:36:54";
com.schriftgestaltung.Glyphs.subCategory = Uppercase;
};
width = 692;
}
);
unicode = 1E910;
},
{
glyphname = "Kaf-adlam";
lastChange = "2019-11-22 21:29:01 +0000";
layers = (
{
anchors = (
{
name = top;
position = "{352, 663}";
}
);
layerId = master01;
paths = (
{
closed = 1;
nodes = (
"40 714 LINE",
"40 635 LINE",
"523 635 LINE SMOOTH",
"564 635 OFFCURVE",
"573 619 OFFCURVE",
"573 576 CURVE SMOOTH",
"573 399 LINE",
"383 399 LINE",
"383 558 LINE",
"293 558 LINE",
"293 399 LINE",
"142 399 LINE",
"142 320 LINE",
"293 320 LINE",
"293 137 LINE SMOOTH",
"293 95 OFFCURVE",
"284 79 OFFCURVE",
"243 79 CURVE SMOOTH",
"40 79 LINE",
"40 0 LINE",
"271 0 LINE SMOOTH",
"365 0 OFFCURVE",
"383 32 OFFCURVE",
"383 118 CURVE SMOOTH",
"383 320 LINE",
"573 320 LINE",
"573 0 LINE",
"663 0 LINE",
"663 597 LINE SMOOTH",
"663 683 OFFCURVE",
"645 714 OFFCURVE",
"551 714 CURVE SMOOTH"
);
}
);
userData = {
com.schriftgestaltung.Glyphs.category = Letter;
com.schriftgestaltung.Glyphs.lastChange = "2017/01/05 17:36:54";
com.schriftgestaltung.Glyphs.subCategory = Uppercase;
};
width = 753;
},
{
anchors = (
{
name = top;
position = "{353, 663}";
}
);
layerId = "201D1995-4E5E-441E-AFED-969F1360B126";
paths = (
{
closed = 1;
nodes = (
"20 714 LINE",
"20 589 LINE",
"503 589 LINE SMOOTH",
"544 589 OFFCURVE",
"553 573 OFFCURVE",
"553 530 CURVE SMOOTH",
"553 411 LINE",
"414 411 LINE",
"414 522 LINE",
"263 522 LINE",
"263 411 LINE",
"112 411 LINE",
"112 286 LINE",
"263 286 LINE",
"263 183 LINE SMOOTH",
"263 141 OFFCURVE",
"254 125 OFFCURVE",
"213 125 CURVE SMOOTH",
"20 125 LINE",
"20 0 LINE",
"302 0 LINE SMOOTH",
"396 0 OFFCURVE",
"414 32 OFFCURVE",
"414 118 CURVE SMOOTH",
"414 286 LINE",
"553 286 LINE",
"553 0 LINE",
"704 0 LINE",
"704 597 LINE SMOOTH",
"704 683 OFFCURVE",
"686 714 OFFCURVE",
"592 714 CURVE SMOOTH"
);
}
);
userData = {
com.schriftgestaltung.Glyphs.category = Letter;
com.schriftgestaltung.Glyphs.lastChange = "2017/01/05 17:36:54";
com.schriftgestaltung.Glyphs.subCategory = Uppercase;
};
width = 784;
}
);
unicode = 1E911;
},
{
glyphname = "Ya-adlam";
lastChange = "2019-11-22 21:32:32 +0000";
layers = (
{
anchors = (
{
name = top;
position = "{261, 663}";
}
);
layerId = master01;
paths = (
{
closed = 1;
nodes = (
"510 350 OFFCURVE",
"422 387 OFFCURVE",
"391 399 CURVE",
"391 404 LINE",
"421 416 OFFCURVE",
"493 454 OFFCURVE",
"493 554 CURVE SMOOTH",
"493 668 OFFCURVE",
"415 714 OFFCURVE",
"292 714 CURVE SMOOTH",
"231 714 LINE SMOOTH",
"102 714 OFFCURVE",
"54 649 OFFCURVE",
"40 622 CURVE",
"100 575 LINE",
"112 597 OFFCURVE",
"144 635 OFFCURVE",
"227 635 CURVE SMOOTH",
"292 635 LINE SMOOTH",
"353 635 OFFCURVE",
"400 613 OFFCURVE",
"400 554 CURVE SMOOTH",
"400 488 OFFCURVE",
"331 459 OFFCURVE",
"201 422 CURVE SMOOTH",
"109 396 LINE",
"130 322 LINE",
"176 337 OFFCURVE",
"257 360 OFFCURVE",
"270 360 CURVE SMOOTH",
"353 360 OFFCURVE",
"417 309 OFFCURVE",
"417 204 CURVE SMOOTH",
"417 108 OFFCURVE",
"362 79 OFFCURVE",
"265 79 CURVE SMOOTH",
"57 79 LINE",
"57 0 LINE",
"265 0 LINE SMOOTH",
"415 0 OFFCURVE",
"510 42 OFFCURVE",
"510 207 CURVE SMOOTH"
);
}
);
userData = {
com.schriftgestaltung.Glyphs.category = Letter;
com.schriftgestaltung.Glyphs.lastChange = "2017/01/05 17:36:54";
com.schriftgestaltung.Glyphs.subCategory = Uppercase;
};
width = 560;
},
{
anchors = (
{
name = top;
position = "{261, 663}";
}
);
layerId = "201D1995-4E5E-441E-AFED-969F1360B126";
paths = (
{
closed = 1;
nodes = (
"522 340 OFFCURVE",
"441 378 OFFCURVE",
"400 388 CURVE",
"400 394 LINE",
"441 412 OFFCURVE",
"505 456 OFFCURVE",
"505 553 CURVE SMOOTH",
"505 671 OFFCURVE",
"427 714 OFFCURVE",
"300 714 CURVE SMOOTH",
"222 714 LINE SMOOTH",
"82 714 OFFCURVE",
"34 649 OFFCURVE",
"20 622 CURVE",
"111 546 LINE",
"123 568 OFFCURVE",
"143 589 OFFCURVE",
"217 589 CURVE SMOOTH",
"261 589 LINE SMOOTH",
"328 589 OFFCURVE",
"349 569 OFFCURVE",
"349 533 CURVE SMOOTH",
"349 492 OFFCURVE",
"308 478 OFFCURVE",
"185 442 CURVE SMOOTH",
"89 414 LINE",
"123 298 LINE",
"162 311 OFFCURVE",
"249 337 OFFCURVE",
"267 337 CURVE SMOOTH",
"328 337 OFFCURVE",
"366 271 OFFCURVE",
"366 207 CURVE SMOOTH",
"366 155 OFFCURVE",
"343 125 OFFCURVE",
"252 125 CURVE SMOOTH",
"37 125 LINE",
"37 0 LINE",
"253 0 LINE SMOOTH",
"428 0 OFFCURVE",
"522 42 OFFCURVE",
"522 199 CURVE SMOOTH"
);
}
);
userData = {
com.schriftgestaltung.Glyphs.category = Letter;
com.schriftgestaltung.Glyphs.lastChange = "2017/01/05 17:36:54";
com.schriftgestaltung.Glyphs.subCategory = Uppercase;
};
width = 567;
}
);
unicode = 1E912;
},
{
glyphname = "U-adlam";
lastChange = "2019-11-22 21:32:35 +0000";
layers = (
{
anchors = (
{
name = "vowellengthencomb-adlam.case";
position = "{449, 548}";
}
);
layerId = master01;
paths = (
{
closed = 1;
nodes = (
"613 719 OFFCURVE",
"557 721 OFFCURVE",
"526 728 CURVE",
"515 649 LINE",
"534 643 OFFCURVE",
"576 641 OFFCURVE",
"602 640 CURVE SMOOTH",
"630 639 OFFCURVE",
"637 629 OFFCURVE",
"637 602 CURVE SMOOTH",
"637 555 LINE SMOOTH",
"637 517 OFFCURVE",
"630 513 OFFCURVE",
"562 472 CURVE SMOOTH",
"509 440 OFFCURVE",
"495 431 OFFCURVE",
"481 421 CURVE",
"476 422 LINE",
"477 433 OFFCURVE",
"477 444 OFFCURVE",
"477 461 CURVE SMOOTH",
"477 664 OFFCURVE",
"386 724 OFFCURVE",
"270 724 CURVE SMOOTH",
"157 724 OFFCURVE",
"104 664 OFFCURVE",
"90 631 CURVE",
"90 218 LINE SMOOTH",
"90 84 OFFCURVE",
"159 -10 OFFCURVE",
"409 -10 CURVE SMOOTH",
"654 -10 OFFCURVE",
"727 84 OFFCURVE",
"727 218 CURVE SMOOTH",
"727 640 LINE SMOOTH",
"727 700 OFFCURVE",
"712 719 OFFCURVE",
"656 719 CURVE SMOOTH"
);
},
{
closed = 1;
nodes = (
"234 69 OFFCURVE",
"180 125 OFFCURVE",
"180 236 CURVE SMOOTH",
"180 601 LINE",
"193 624 OFFCURVE",
"222 645 OFFCURVE",
"270 645 CURVE SMOOTH",
"324 645 OFFCURVE",
"387 604 OFFCURVE",
"387 455 CURVE SMOOTH",
"387 273 OFFCURVE",
"287 202 OFFCURVE",
"264 186 CURVE",
"324 122 LINE",
"354 145 OFFCURVE",
"408 197 OFFCURVE",
"443 275 CURVE SMOOTH",
"468 331 OFFCURVE",
"474 338 OFFCURVE",
"537 376 CURVE SMOOTH",
"602 414 OFFCURVE",
"617 425 OFFCURVE",
"632 436 CURVE",
"637 435 LINE",
"637 236 LINE SMOOTH",
"637 125 OFFCURVE",
"582 69 OFFCURVE",
"408 69 CURVE SMOOTH"
);
}
);
userData = {
com.schriftgestaltung.Glyphs.category = Letter;
com.schriftgestaltung.Glyphs.lastChange = "2017/01/05 17:36:54";
com.schriftgestaltung.Glyphs.subCategory = Uppercase;
};
width = 817;
},
{
anchors = (
{
name = "vowellengthencomb-adlam.case";
position = "{469, 578}";
}
);
layerId = "201D1995-4E5E-441E-AFED-969F1360B126";
paths = (
{
closed = 1;
nodes = (
"595 719 OFFCURVE",
"574 723 OFFCURVE",
"556 728 CURVE",
"545 603 LINE",
"555 599 OFFCURVE",
"574 595 OFFCURVE",
"598 594 CURVE SMOOTH",
"620 593 OFFCURVE",
"627 589 OFFCURVE",
"627 567 CURVE SMOOTH",
"627 546 LINE SMOOTH",
"627 512 OFFCURVE",
"617 506 OFFCURVE",
"566 471 CURVE SMOOTH",
"545 457 OFFCURVE",
"535 450 OFFCURVE",
"522 438 CURVE",
"517 439 LINE",
"518 447 OFFCURVE",
"519 458 OFFCURVE",
"519 473 CURVE SMOOTH",
"519 642 OFFCURVE",
"436 724 OFFCURVE",
"286 724 CURVE SMOOTH",
"147 724 OFFCURVE",
"94 658 OFFCURVE",
"80 625 CURVE",
"80 218 LINE SMOOTH",
"80 84 OFFCURVE",
"149 -10 OFFCURVE",
"429 -10 CURVE SMOOTH",
"704 -10 OFFCURVE",
"778 84 OFFCURVE",
"778 218 CURVE SMOOTH",
"778 610 LINE SMOOTH",
"778 700 OFFCURVE",
"733 719 OFFCURVE",
"670 719 CURVE SMOOTH"
);
},
{
closed = 1;
nodes = (
"266 115 OFFCURVE",
"231 171 OFFCURVE",
"231 282 CURVE SMOOTH",
"231 578 LINE",
"239 588 OFFCURVE",
"255 599 OFFCURVE",
"282 599 CURVE SMOOTH",
"320 599 OFFCURVE",
"368 571 OFFCURVE",
"368 458 CURVE SMOOTH",
"368 345 OFFCURVE",
"323 276 OFFCURVE",
"292 243 CURVE",
"409 151 LINE",
"432 172 OFFCURVE",
"473 229 OFFCURVE",
"492 279 CURVE SMOOTH",
"509 325 OFFCURVE",
"520 331 OFFCURVE",
"567 364 CURVE SMOOTH",
"594 382 OFFCURVE",
"608 392 OFFCURVE",
"622 404 CURVE",
"627 403 LINE",
"627 282 LINE SMOOTH",
"627 171 OFFCURVE",
"603 115 OFFCURVE",
"429 115 CURVE SMOOTH"
);
}
);
userData = {
com.schriftgestaltung.Glyphs.category = Letter;
com.schriftgestaltung.Glyphs.lastChange = "2017/01/05 17:36:54";
com.schriftgestaltung.Glyphs.subCategory = Uppercase;
};
width = 858;
}
);
unicode = 1E913;
},
{
glyphname = "Jiim-adlam";
lastChange = "2019-11-22 21:29:01 +0000";
layers = (
{
anchors = (
{
name = bottom;
position = "{433, 0}";
},
{
name = gemconsonanttop;
position = "{449, 665}";
},
{
name = top;
position = "{458, 665}";
}
);
layerId = master01;
paths = (
{
closed = 1;
nodes = (
"518 687 OFFCURVE",
"482 633 OFFCURVE",
"471 613 CURVE",
"466 613 LINE",
"457 645 OFFCURVE",
"424 724 OFFCURVE",
"290 724 CURVE SMOOTH",
"144 724 OFFCURVE",
"90 630 OFFCURVE",
"90 511 CURVE SMOOTH",
"90 270 LINE",
"180 270 LINE",
"180 499 LINE SMOOTH",
"180 604 OFFCURVE",
"223 645 OFFCURVE",
"290 645 CURVE SMOOTH",
"357 645 OFFCURVE",
"399 594 OFFCURVE",
"399 486 CURVE SMOOTH",
"399 147 LINE SMOOTH",
"399 100 OFFCURVE",
"378 79 OFFCURVE",
"313 79 CURVE SMOOTH",
"90 79 LINE",
"90 0 LINE",
"313 0 LINE SMOOTH",
"453 0 OFFCURVE",
"489 42 OFFCURVE",
"489 146 CURVE SMOOTH",
"489 452 LINE SMOOTH",
"489 558 OFFCURVE",
"532 608 OFFCURVE",
"613 608 CURVE SMOOTH",
"685 608 OFFCURVE",
"717 554 OFFCURVE",
"717 455 CURVE SMOOTH",
"717 117 LINE SMOOTH",
"717 71 OFFCURVE",
"704 22 OFFCURVE",
"671 -8 CURVE",
"743 -54 LINE",
"785 -12 OFFCURVE",
"807 42 OFFCURVE",
"807 117 CURVE SMOOTH",
"807 476 LINE SMOOTH",
"807 614 OFFCURVE",
"750 687 OFFCURVE",
"626 687 CURVE SMOOTH"
);
}
);
userData = {
com.schriftgestaltung.Glyphs.category = Letter;
com.schriftgestaltung.Glyphs.lastChange = "2017/01/05 17:36:54";
com.schriftgestaltung.Glyphs.subCategory = Uppercase;
};
width = 897;
},
{
anchors = (
{
name = bottom;
position = "{438, 0}";
},
{
name = gemconsonanttop;
position = "{484, 665}";
},
{
name = top;
position = "{493, 665}";
}
);
layerId = "201D1995-4E5E-441E-AFED-969F1360B126";
paths = (
{
closed = 1;
nodes = (
"562 688 OFFCURVE",
"516 649 OFFCURVE",
"507 637 CURVE",
"502 637 LINE",
"492 658 OFFCURVE",
"440 724 OFFCURVE",
"305 724 CURVE SMOOTH",
"119 724 OFFCURVE",
"65 630 OFFCURVE",
"65 494 CURVE SMOOTH",
"65 270 LINE",
"216 270 LINE",
"216 484 LINE SMOOTH",
"216 578 OFFCURVE",
"248 599 OFFCURVE",
"295 599 CURVE SMOOTH",
"342 599 OFFCURVE",
"373 578 OFFCURVE",
"373 484 CURVE SMOOTH",
"373 193 LINE SMOOTH",
"373 146 OFFCURVE",
"352 125 OFFCURVE",
"287 125 CURVE SMOOTH",
"65 125 LINE",
"65 0 LINE",
"348 0 LINE SMOOTH",
"488 0 OFFCURVE",
"524 42 OFFCURVE",
"524 146 CURVE SMOOTH",
"524 445 LINE SMOOTH",
"524 532 OFFCURVE",
"558 563 OFFCURVE",
"608 563 CURVE SMOOTH",
"661 563 OFFCURVE",
"691 532 OFFCURVE",
"691 445 CURVE SMOOTH",
"691 138 LINE SMOOTH",
"691 80 OFFCURVE",
"673 33 OFFCURVE",
"653 15 CURVE",
"781 -52 LINE",
"833 -6 OFFCURVE",
"842 51 OFFCURVE",
"842 138 CURVE SMOOTH",
"842 477 LINE SMOOTH",
"842 615 OFFCURVE",
"785 688 OFFCURVE",
"654 688 CURVE SMOOTH"
);
}
);
userData = {
com.schriftgestaltung.Glyphs.category = Letter;
com.schriftgestaltung.Glyphs.lastChange = "2017/01/05 17:36:54";
com.schriftgestaltung.Glyphs.subCategory = Uppercase;
};
width = 922;
}
);
unicode = 1E914;
},
{
glyphname = "Chi-adlam";
lastChange = "2019-11-22 21:29:01 +0000";
layers = (
{
anchors = (
{
name = top;
position = "{342, 663}";
}
);
layerId = master01;
paths = (
{
closed = 1;
nodes = (
"296 714 LINE",
"296 635 LINE",
"461 635 LINE SMOOTH",
"501 635 OFFCURVE",
"510 619 OFFCURVE",
"510 579 CURVE SMOOTH",
"510 429 LINE",
"506 427 LINE",
"488 447 OFFCURVE",
"447 466 OFFCURVE",
"339 479 CURVE SMOOTH",
"224 493 OFFCURVE",
"168 514 OFFCURVE",
"168 635 CURVE SMOOTH",
"168 743 LINE",
"78 743 LINE",
"78 636 LINE SMOOTH",
"78 489 OFFCURVE",
"135 448 OFFCURVE",
"219 437 CURVE",
"219 432 LINE",
"138 413 OFFCURVE",
"60 350 OFFCURVE",
"60 209 CURVE SMOOTH",
"60 54 OFFCURVE",
"138 0 OFFCURVE",
"306 0 CURVE SMOOTH",
"439 0 LINE",
"439 79 LINE",
"307 79 LINE SMOOTH",
"223 79 OFFCURVE",
"154 105 OFFCURVE",
"154 209 CURVE SMOOTH",
"154 336 OFFCURVE",
"230 397 OFFCURVE",
"342 397 CURVE SMOOTH",
"445 397 OFFCURVE",
"492 352 OFFCURVE",
"510 326 CURVE",
"510 0 LINE",
"600 0 LINE",
"600 597 LINE SMOOTH",
"600 683 OFFCURVE",
"582 714 OFFCURVE",
"488 714 CURVE SMOOTH"
);
}
);
userData = {
com.schriftgestaltung.Glyphs.category = Letter;
com.schriftgestaltung.Glyphs.lastChange = "2017/01/05 17:36:54";
com.schriftgestaltung.Glyphs.subCategory = Uppercase;
};
width = 690;
},
{
anchors = (
{
name = top;
position = "{382, 663}";
}
);
layerId = "201D1995-4E5E-441E-AFED-969F1360B126";
paths = (
{
closed = 1;
nodes = (
"336 714 LINE",
"336 589 LINE",
"470 589 LINE SMOOTH",
"510 589 OFFCURVE",
"519 573 OFFCURVE",
"519 533 CURVE SMOOTH",
"519 438 LINE",
"515 436 LINE",
"494 454 OFFCURVE",
"471 471 OFFCURVE",
"367 483 CURVE SMOOTH",
"264 495 OFFCURVE",
"239 517 OFFCURVE",
"239 638 CURVE SMOOTH",
"239 743 LINE",
"88 743 LINE",
"88 616 LINE SMOOTH",
"88 469 OFFCURVE",
"145 428 OFFCURVE",
"229 417 CURVE",
"229 411 LINE",
"148 392 OFFCURVE",
"70 330 OFFCURVE",
"70 213 CURVE SMOOTH",
"70 52 OFFCURVE",
"160 0 OFFCURVE",
"359 0 CURVE SMOOTH",
"448 0 LINE",
"448 125 LINE",
"359 125 LINE SMOOTH",
"263 125 OFFCURVE",
"225 156 OFFCURVE",
"225 231 CURVE SMOOTH",
"225 300 OFFCURVE",
"270 354 OFFCURVE",
"376 354 CURVE SMOOTH",
"463 354 OFFCURVE",
"501 314 OFFCURVE",
"519 291 CURVE",
"519 0 LINE",
"670 0 LINE",
"670 597 LINE SMOOTH",
"670 683 OFFCURVE",
"652 714 OFFCURVE",
"558 714 CURVE SMOOTH"
);
}
);
userData = {
com.schriftgestaltung.Glyphs.category = Letter;
com.schriftgestaltung.Glyphs.lastChange = "2017/01/05 17:36:54";
com.schriftgestaltung.Glyphs.subCategory = Uppercase;
};
width = 750;
}
);
unicode = 1E915;
},
{
glyphname = "Ha-adlam";
lastChange = "2019-11-22 21:29:01 +0000";
layers = (
{
anchors = (
{
name = gemconsonanttop;
position = "{317, 663}";
},
{
name = top;
position = "{321, 663}";
}
);
layerId = master01;
paths = (
{
closed = 1;
nodes = (
"221 508 LINE SMOOTH",
"180 508 OFFCURVE",
"171 524 OFFCURVE",
"171 566 CURVE SMOOTH",
"171 714 LINE",
"81 714 LINE",
"81 547 LINE SMOOTH",
"81 461 OFFCURVE",
"99 429 OFFCURVE",
"194 429 CURVE SMOOTH",
"273 429 LINE SMOOTH",
"384 429 OFFCURVE",
"470 391 OFFCURVE",
"470 244 CURVE SMOOTH",
"470 126 OFFCURVE",
"415 79 OFFCURVE",
"283 79 CURVE SMOOTH",
"80 79 LINE",
"80 0 LINE",
"283 0 LINE SMOOTH",
"480 0 OFFCURVE",
"563 72 OFFCURVE",
"563 249 CURVE SMOOTH",
"563 440 OFFCURVE",
"461 508 OFFCURVE",
"278 508 CURVE SMOOTH"
);
}
);
userData = {
com.schriftgestaltung.Glyphs.category = Letter;
com.schriftgestaltung.Glyphs.lastChange = "2017/01/05 17:36:54";
com.schriftgestaltung.Glyphs.subCategory = Uppercase;
};
width = 613;
},
{
anchors = (
{
name = gemconsonanttop;
position = "{332, 663}";
},
{
name = top;
position = "{336, 663}";
}
);
layerId = "201D1995-4E5E-441E-AFED-969F1360B126";
paths = (
{
closed = 1;
nodes = (
"267 531 LINE SMOOTH",
"226 531 OFFCURVE",
"217 547 OFFCURVE",
"217 589 CURVE SMOOTH",
"217 714 LINE",
"66 714 LINE",
"66 524 LINE SMOOTH",
"66 438 OFFCURVE",
"84 406 OFFCURVE",
"179 406 CURVE SMOOTH",
"267 406 LINE SMOOTH",
"378 406 OFFCURVE",
"454 368 OFFCURVE",
"454 260 CURVE SMOOTH",
"454 172 OFFCURVE",
"409 125 OFFCURVE",
"277 125 CURVE SMOOTH",
"65 125 LINE",
"65 0 LINE",
"293 0 LINE SMOOTH",
"508 0 OFFCURVE",
"610 72 OFFCURVE",
"610 265 CURVE SMOOTH",
"610 463 OFFCURVE",
"508 531 OFFCURVE",
"313 531 CURVE SMOOTH"
);
}
);
userData = {
com.schriftgestaltung.Glyphs.category = Letter;
com.schriftgestaltung.Glyphs.lastChange = "2017/01/05 17:36:54";
com.schriftgestaltung.Glyphs.subCategory = Uppercase;
};
width = 660;
}
);
unicode = 1E916;
},
{
glyphname = "Qaaf-adlam";
lastChange = "2019-11-22 21:29:01 +0000";
layers = (
{
anchors = (
{
name = top;
position = "{416, 666}";
}
);
layerId = master01;
paths = (
{
closed = 1;
nodes = (
"61 0 LINE",
"315 0 LINE SMOOTH",
"409 0 OFFCURVE",
"427 32 OFFCURVE",
"427 118 CURVE SMOOTH",
"427 275 LINE",
"470 275 OFFCURVE",
"534 284 OFFCURVE",
"569 294 CURVE",
"569 0 LINE",
"659 0 LINE",
"659 714 LINE",
"569 714 LINE",
"569 375 LINE",
"538 365 OFFCURVE",
"473 355 OFFCURVE",
"427 354 CURVE",
"427 552 LINE SMOOTH",
"427 675 OFFCURVE",
"371 724 OFFCURVE",
"269 724 CURVE SMOOTH",
"143 724 OFFCURVE",
"50 651 OFFCURVE",
"50 513 CURVE SMOOTH",
"50 358 OFFCURVE",
"164 285 OFFCURVE",
"337 275 CURVE",
"337 137 LINE SMOOTH",
"337 95 OFFCURVE",
"328 79 OFFCURVE",
"288 79 CURVE SMOOTH",
"61 79 LINE"
);
},
{
closed = 1;
nodes = (
"337 354 LINE",
"228 365 OFFCURVE",
"143 407 OFFCURVE",
"143 516 CURVE SMOOTH",
"143 598 OFFCURVE",
"189 645 OFFCURVE",
"259 645 CURVE SMOOTH",
"316 645 OFFCURVE",
"337 612 OFFCURVE",
"337 545 CURVE SMOOTH"
);
}
);
userData = {
com.schriftgestaltung.Glyphs.category = Letter;
com.schriftgestaltung.Glyphs.lastChange = "2017/01/05 17:36:54";
com.schriftgestaltung.Glyphs.subCategory = Uppercase;
};
width = 749;
},
{
anchors = (
{
name = top;
position = "{443, 666}";
}
);
layerId = "201D1995-4E5E-441E-AFED-969F1360B126";
paths = (
{
closed = 1;
nodes = (
"56 0 LINE",
"373 0 LINE SMOOTH",
"467 0 OFFCURVE",
"485 32 OFFCURVE",
"485 118 CURVE SMOOTH",
"485 257 LINE",
"516 258 OFFCURVE",
"578 269 OFFCURVE",
"596 276 CURVE",
"596 0 LINE",
"747 0 LINE",
"747 714 LINE",
"596 714 LINE",
"596 403 LINE",
"575 393 OFFCURVE",
"515 383 OFFCURVE",
"485 382 CURVE",
"485 535 LINE SMOOTH",
"485 658 OFFCURVE",
"432 724 OFFCURVE",
"292 724 CURVE SMOOTH",
"154 724 OFFCURVE",
"45 649 OFFCURVE",
"45 501 CURVE SMOOTH",
"45 348 OFFCURVE",
"131 262 OFFCURVE",
"334 252 CURVE",
"334 183 LINE SMOOTH",
"334 141 OFFCURVE",
"325 125 OFFCURVE",
"285 125 CURVE SMOOTH",
"56 125 LINE"
);
},
{
closed = 1;
nodes = (
"334 377 LINE",
"267 382 OFFCURVE",
"201 419 OFFCURVE",
"201 500 CURVE SMOOTH",
"201 566 OFFCURVE",
"243 599 OFFCURVE",
"285 599 CURVE SMOOTH",
"320 599 OFFCURVE",
"334 582 OFFCURVE",
"334 530 CURVE SMOOTH"
);
}
);
userData = {
com.schriftgestaltung.Glyphs.category = Letter;
com.schriftgestaltung.Glyphs.lastChange = "2017/01/05 17:36:54";
com.schriftgestaltung.Glyphs.subCategory = Uppercase;
};
width = 827;
}
);
unicode = 1E917;
},
{
glyphname = "Ga-adlam";
lastChange = "2019-11-22 21:29:01 +0000";
layers = (
{
anchors = (
{
name = gemconsonanttop;
position = "{320, 663}";
},
{
name = top;
position = "{307, 663}";
}
);
layerId = master01;
paths = (
{
closed = 1;
nodes = (
"425 383 LINE",
"483 404 OFFCURVE",
"540 464 OFFCURVE",
"540 559 CURVE SMOOTH",
"540 683 OFFCURVE",
"478 714 OFFCURVE",
"365 714 CURVE SMOOTH",
"286 714 LINE",
"286 635 LINE",
"365 635 LINE SMOOTH",
"415 635 OFFCURVE",
"450 615 OFFCURVE",
"450 546 CURVE SMOOTH",
"450 466 OFFCURVE",
"399 411 OFFCURVE",
"272 411 CURVE SMOOTH",
"176 411 OFFCURVE",
"165 421 OFFCURVE",
"165 475 CURVE SMOOTH",
"164 714 LINE",
"74 714 LINE",
"74 473 LINE SMOOTH",
"74 346 OFFCURVE",
"89 332 OFFCURVE",
"265 332 CURVE SMOOTH",
"393 332 OFFCURVE",
"459 302 OFFCURVE",
"459 189 CURVE SMOOTH",
"459 114 OFFCURVE",
"416 79 OFFCURVE",
"337 79 CURVE SMOOTH",
"65 79 LINE",
"65 0 LINE",
"340 0 LINE SMOOTH",
"473 0 OFFCURVE",
"552 48 OFFCURVE",
"552 189 CURVE SMOOTH",
"552 327 OFFCURVE",
"472 365 OFFCURVE",
"425 377 CURVE"
);
}
);
userData = {
com.schriftgestaltung.Glyphs.category = Letter;
com.schriftgestaltung.Glyphs.lastChange = "2017/01/05 17:36:54";
com.schriftgestaltung.Glyphs.subCategory = Uppercase;
};
width = 632;
},
{
anchors = (
{
name = gemconsonanttop;
position = "{340, 663}";
},
{
name = top;
position = "{327, 663}";
}
);
layerId = "201D1995-4E5E-441E-AFED-969F1360B126";
paths = (
{
closed = 1;
nodes = (
"475 396 LINE",
"525 409 OFFCURVE",
"595 457 OFFCURVE",
"595 556 CURVE SMOOTH",
"595 675 OFFCURVE",
"530 714 OFFCURVE",
"378 714 CURVE SMOOTH",
"318 714 LINE",
"318 589 LINE",
"362 589 LINE SMOOTH",
"422 589 OFFCURVE",
"439 563 OFFCURVE",
"439 521 CURVE SMOOTH",
"439 477 OFFCURVE",
"412 434 OFFCURVE",
"289 434 CURVE SMOOTH",
"218 434 OFFCURVE",
"216 450 OFFCURVE",
"216 498 CURVE SMOOTH",
"215 714 LINE",
"64 714 LINE",
"64 448 LINE SMOOTH",
"64 323 OFFCURVE",
"70 309 OFFCURVE",
"251 309 CURVE SMOOTH",
"418 309 OFFCURVE",
"448 277 OFFCURVE",
"448 211 CURVE SMOOTH",
"448 155 OFFCURVE",
"425 125 OFFCURVE",
"357 125 CURVE SMOOTH",
"55 125 LINE",
"55 0 LINE",
"362 0 LINE SMOOTH",
"543 0 OFFCURVE",
"604 52 OFFCURVE",
"604 202 CURVE SMOOTH",
"604 323 OFFCURVE",
"530 376 OFFCURVE",
"475 391 CURVE"
);
}
);
userData = {
com.schriftgestaltung.Glyphs.category = Letter;
com.schriftgestaltung.Glyphs.lastChange = "2017/01/05 17:36:54";
com.schriftgestaltung.Glyphs.subCategory = Uppercase;
};
width = 659;
}
);
unicode = 1E918;
},
{
glyphname = "Nya-adlam";
lastChange = "2019-11-22 21:29:01 +0000";
layers = (
{
anchors = (
{
name = top;
position = "{357, 663}";
}
);
layerId = master01;
paths = (
{
closed = 1;
nodes = (
"226 472 OFFCURVE",
"181 488 OFFCURVE",
"181 550 CURVE SMOOTH",
"181 606 OFFCURVE",
"221 635 OFFCURVE",
"311 635 CURVE SMOOTH",
"381 635 LINE SMOOTH",
"489 635 OFFCURVE",
"520 600 OFFCURVE",
"534 580 CURVE",
"596 638 LINE",
"580 661 OFFCURVE",
"536 714 OFFCURVE",
"382 714 CURVE SMOOTH",
"311 714 LINE SMOOTH",
"162 714 OFFCURVE",
"88 656 OFFCURVE",
"88 544 CURVE SMOOTH",
"88 450 OFFCURVE",
"146 412 OFFCURVE",
"196 396 CURVE",
"196 391 LINE",
"136 369 OFFCURVE",
"55 308 OFFCURVE",
"55 186 CURVE SMOOTH",
"55 48 OFFCURVE",
"148 0 OFFCURVE",
"285 0 CURVE SMOOTH",
"461 0 LINE",
"461 79 LINE",
"285 79 LINE SMOOTH",
"203 79 OFFCURVE",
"148 109 OFFCURVE",
"148 191 CURVE SMOOTH",
"148 296 OFFCURVE",
"232 353 OFFCURVE",
"311 367 CURVE",
"470 333 OFFCURVE",
"531 312 OFFCURVE",
"531 158 CURVE SMOOTH",
"531 -52 LINE",
"621 -52 LINE",
"621 159 LINE SMOOTH",
"621 374 OFFCURVE",
"526 396 OFFCURVE",
"356 439 CURVE SMOOTH"
);
}
);
userData = {
com.schriftgestaltung.Glyphs.category = Letter;
com.schriftgestaltung.Glyphs.lastChange = "2017/01/05 17:36:54";
com.schriftgestaltung.Glyphs.subCategory = Uppercase;
};
width = 676;
},
{
anchors = (
{
name = top;
position = "{374, 663}";
}
);
layerId = "201D1995-4E5E-441E-AFED-969F1360B126";
paths = (
{
closed = 1;
nodes = (
"249 483 OFFCURVE",
"229 490 OFFCURVE",
"229 534 CURVE SMOOTH",
"229 570 OFFCURVE",
"255 589 OFFCURVE",
"333 589 CURVE SMOOTH",
"429 589 LINE SMOOTH",
"517 589 OFFCURVE",
"544 563 OFFCURVE",
"558 543 CURVE",
"652 639 LINE",
"624 679 OFFCURVE",
"583 714 OFFCURVE",
"429 714 CURVE SMOOTH",
"333 714 LINE SMOOTH",
"165 714 OFFCURVE",
"73 656 OFFCURVE",
"73 525 CURVE SMOOTH",
"73 432 OFFCURVE",
"129 388 OFFCURVE",
"179 365 CURVE",
"179 359 LINE",
"119 337 OFFCURVE",
"45 283 OFFCURVE",
"45 181 CURVE SMOOTH",
"45 43 OFFCURVE",
"140 0 OFFCURVE",
"296 0 CURVE SMOOTH",
"453 0 LINE",
"453 125 LINE",
"304 125 LINE SMOOTH",
"225 125 OFFCURVE",
"201 150 OFFCURVE",
"201 199 CURVE SMOOTH",
"201 260 OFFCURVE",
"252 307 OFFCURVE",
"320 325 CURVE",
"482 289 OFFCURVE",
"517 271 OFFCURVE",
"517 163 CURVE SMOOTH",
"517 -52 LINE",
"668 -52 LINE",
"668 209 LINE SMOOTH",
"668 373 OFFCURVE",
"576 405 OFFCURVE",
"395 448 CURVE SMOOTH"
);
}
);
userData = {
com.schriftgestaltung.Glyphs.category = Letter;
com.schriftgestaltung.Glyphs.lastChange = "2017/01/05 17:36:54";
com.schriftgestaltung.Glyphs.subCategory = Uppercase;
};
width = 713;
}
);
unicode = 1E919;
},
{
glyphname = "Tu-adlam";
lastChange = "2019-11-22 21:29:53 +0000";
layers = (
{
anchors = (
{
name = gemconsonanttop;
position = "{447, 666}";
},
{
name = top;
position = "{451, 666}";
}
);
layerId = master01;
paths = (
{
closed = 1;
nodes = (
"538 79 LINE SMOOTH",
"512 79 OFFCURVE",
"503 90 OFFCURVE",
"503 117 CURVE SMOOTH",
"503 593 LINE",
"517 612 OFFCURVE",
"549 645 OFFCURVE",
"617 645 CURVE SMOOTH",
"688 645 OFFCURVE",
"743 587 OFFCURVE",
"743 449 CURVE SMOOTH",
"743 304 OFFCURVE",
"695 242 OFFCURVE",
"636 186 CURVE",
"696 127 LINE",
"777 199 OFFCURVE",
"833 275 OFFCURVE",
"833 449 CURVE SMOOTH",
"833 644 OFFCURVE",
"759 724 OFFCURVE",
"620 724 CURVE SMOOTH",
"530 724 OFFCURVE",
"463 677 OFFCURVE",
"447 659 CURVE",
"442 659 LINE",
"428 677 OFFCURVE",
"381 724 OFFCURVE",
"284 724 CURVE SMOOTH",
"156 724 OFFCURVE",
"100 647 OFFCURVE",
"90 613 CURVE",
"90 0 LINE",
"180 0 LINE",
"180 593 LINE",
"189 615 OFFCURVE",
"223 645 OFFCURVE",
"284 645 CURVE SMOOTH",
"367 645 OFFCURVE",
"403 598 OFFCURVE",
"413 569 CURVE",
"413 54 LINE SMOOTH",
"413 17 OFFCURVE",
"427 0 OFFCURVE",
"464 0 CURVE SMOOTH",
"818 0 LINE",
"818 79 LINE"
);
}
);
userData = {
com.schriftgestaltung.Glyphs.category = Letter;
com.schriftgestaltung.Glyphs.lastChange = "2017/01/05 17:36:54";
com.schriftgestaltung.Glyphs.subCategory = Uppercase;
};
width = 913;
},
{
anchors = (
{
name = gemconsonanttop;
position = "{457, 666}";
},
{
name = top;
position = "{471, 666}";
}
);
layerId = "201D1995-4E5E-441E-AFED-969F1360B126";
paths = (
{
closed = 1;
nodes = (
"594 125 LINE SMOOTH",
"562 125 OFFCURVE",
"553 136 OFFCURVE",
"553 168 CURVE SMOOTH",
"553 569 LINE",
"564 579 OFFCURVE",
"591 599 OFFCURVE",
"637 599 CURVE SMOOTH",
"685 599 OFFCURVE",
"732 566 OFFCURVE",
"732 461 CURVE SMOOTH",
"732 354 OFFCURVE",
"695 298 OFFCURVE",
"652 245 CURVE",
"773 162 LINE",
"829 227 OFFCURVE",
"883 308 OFFCURVE",
"883 473 CURVE SMOOTH",
"883 656 OFFCURVE",
"801 724 OFFCURVE",
"655 724 CURVE SMOOTH",
"549 724 OFFCURVE",
"481 681 OFFCURVE",
"458 659 CURVE",
"451 659 LINE",
"435 679 OFFCURVE",
"394 724 OFFCURVE",
"288 724 CURVE SMOOTH",
"148 724 OFFCURVE",
"100 656 OFFCURVE",
"80 620 CURVE",
"80 0 LINE",
"231 0 LINE",
"231 573 LINE",
"241 585 OFFCURVE",
"263 599 OFFCURVE",
"310 599 CURVE SMOOTH",
"368 599 OFFCURVE",
"393 568 OFFCURVE",
"402 553 CURVE",
"402 54 LINE SMOOTH",
"402 17 OFFCURVE",
"416 0 OFFCURVE",
"462 0 CURVE SMOOTH",
"868 0 LINE",
"868 125 LINE"
);
}
);
userData = {
com.schriftgestaltung.Glyphs.category = Letter;
com.schriftgestaltung.Glyphs.lastChange = "2017/01/05 17:36:54";
com.schriftgestaltung.Glyphs.subCategory = Uppercase;
};
width = 953;
}
);
unicode = 1E91A;
},
{
glyphname = "Nha-adlam";
lastChange = "2019-11-22 21:29:01 +0000";
layers = (
{
anchors = (
{
name = top;
position = "{382, 663}";
}
);
layerId = master01;
paths = (
{
closed = 1;
nodes = (
"472 79 LINE SMOOTH",
"431 79 OFFCURVE",
"422 95 OFFCURVE",
"422 137 CURVE SMOOTH",
"422 366 LINE",
"584 399 OFFCURVE",
"658 434 OFFCURVE",
"658 553 CURVE SMOOTH",
"658 661 OFFCURVE",
"597 714 OFFCURVE",
"425 714 CURVE SMOOTH",
"355 714 LINE SMOOTH",
"192 714 OFFCURVE",
"130 658 OFFCURVE",
"108 618 CURVE",
"168 570 LINE",
"183 595 OFFCURVE",
"216 630 OFFCURVE",
"332 635 CURVE",
"332 426 LINE",
"137 388 OFFCURVE",
"35 326 OFFCURVE",
"35 180 CURVE SMOOTH",
"35 39 OFFCURVE",
"133 -10 OFFCURVE",
"220 -24 CURVE",
"240 54 LINE",
"196 64 OFFCURVE",
"128 84 OFFCURVE",
"128 184 CURVE SMOOTH",
"128 279 OFFCURVE",
"186 315 OFFCURVE",
"332 348 CURVE",
"332 118 LINE SMOOTH",
"332 32 OFFCURVE",
"350 0 OFFCURVE",
"448 0 CURVE SMOOTH",
"638 0 LINE",
"638 79 LINE"
);
},
{
closed = 1;
nodes = (
"565 488 OFFCURVE",
"536 470 OFFCURVE",
"422 445 CURVE",
"422 635 LINE",
"523 635 OFFCURVE",
"565 610 OFFCURVE",
"565 550 CURVE SMOOTH"
);
}
);
userData = {
com.schriftgestaltung.Glyphs.category = Letter;
com.schriftgestaltung.Glyphs.lastChange = "2017/01/05 17:36:54";
com.schriftgestaltung.Glyphs.subCategory = Uppercase;
};
width = 708;
},
{
anchors = (
{
name = top;
position = "{424, 663}";
}
);
layerId = "201D1995-4E5E-441E-AFED-969F1360B126";
paths = (
{
closed = 1;
nodes = (
"539 125 LINE SMOOTH",
"498 125 OFFCURVE",
"489 141 OFFCURVE",
"489 183 CURVE SMOOTH",
"489 310 LINE",
"621 343 OFFCURVE",
"733 388 OFFCURVE",
"733 532 CURVE SMOOTH",
"733 674 OFFCURVE",
"649 714 OFFCURVE",
"470 714 CURVE SMOOTH",
"380 714 LINE SMOOTH",
"209 714 OFFCURVE",
"118 646 OFFCURVE",
"96 606 CURVE",
"192 514 LINE",
"207 539 OFFCURVE",
"255 589 OFFCURVE",
"348 589 CURVE",
"348 406 LINE",
"178 368 OFFCURVE",
"45 316 OFFCURVE",
"45 173 CURVE SMOOTH",
"45 39 OFFCURVE",
"141 -18 OFFCURVE",
"260 -32 CURVE",
"292 103 LINE",
"235 116 OFFCURVE",
"201 131 OFFCURVE",
"201 178 CURVE SMOOTH",
"201 223 OFFCURVE",
"226 253 OFFCURVE",
"348 282 CURVE",
"348 118 LINE SMOOTH",
"348 32 OFFCURVE",
"366 0 OFFCURVE",
"464 0 CURVE SMOOTH",
"713 0 LINE",
"713 125 LINE"
);
},
{
closed = 1;
nodes = (
"577 467 OFFCURVE",
"548 449 OFFCURVE",
"489 435 CURVE",
"489 589 LINE",
"535 589 OFFCURVE",
"577 577 OFFCURVE",
"577 519 CURVE SMOOTH"
);
}
);
userData = {
com.schriftgestaltung.Glyphs.category = Letter;
com.schriftgestaltung.Glyphs.lastChange = "2017/01/05 17:36:54";
com.schriftgestaltung.Glyphs.subCategory = Uppercase;
};
width = 778;
}
);
unicode = 1E91B;
},
{
glyphname = "Va-adlam";
lastChange = "2019-11-22 21:29:01 +0000";
layers = (
{
anchors = (
{
name = top;
position = "{330, 663}";
}
);
layerId = master01;
paths = (
{
closed = 1;
nodes = (
"559 714 LINE",
"202 714 LINE SMOOTH",
"108 714 OFFCURVE",
"90 682 OFFCURVE",
"90 596 CURVE SMOOTH",
"90 0 LINE",
"180 0 LINE",
"180 577 LINE SMOOTH",
"180 619 OFFCURVE",
"189 635 OFFCURVE",
"229 635 CURVE SMOOTH",
"469 635 LINE",
"469 377 LINE",
"285 377 LINE",
"285 298 LINE",
"469 298 LINE",
"469 0 LINE",
"559 0 LINE"
);
}
);
userData = {
com.schriftgestaltung.Glyphs.category = Letter;
com.schriftgestaltung.Glyphs.lastChange = "2017/01/05 17:36:54";
com.schriftgestaltung.Glyphs.subCategory = Uppercase;
};
width = 649;
},
{
anchors = (
{
name = top;
position = "{345, 663}";
}
);
layerId = "201D1995-4E5E-441E-AFED-969F1360B126";
paths = (
{
closed = 1;
nodes = (
"609 714 LINE",
"192 714 LINE SMOOTH",
"98 714 OFFCURVE",
"80 682 OFFCURVE",
"80 596 CURVE SMOOTH",
"80 0 LINE",
"231 0 LINE",
"231 531 LINE SMOOTH",
"231 573 OFFCURVE",
"240 589 OFFCURVE",
"280 589 CURVE SMOOTH",
"458 589 LINE",
"458 400 LINE",
"306 400 LINE",
"306 275 LINE",
"458 275 LINE",
"458 0 LINE",
"609 0 LINE"
);
}
);
userData = {
com.schriftgestaltung.Glyphs.category = Letter;
com.schriftgestaltung.Glyphs.lastChange = "2017/01/05 17:36:54";
com.schriftgestaltung.Glyphs.subCategory = Uppercase;
};
width = 689;
}
);
unicode = 1E91C;
},
{
glyphname = "Kha-adlam";
lastChange = "2019-11-22 21:29:01 +0000";
layers = (
{
anchors = (
{
name = top;
position = "{421, 663}";
}
);
layerId = master01;
paths = (
{
closed = 1;
nodes = (
"108 714 OFFCURVE",
"90 683 OFFCURVE",
"90 597 CURVE SMOOTH",
"90 0 LINE",
"180 0 LINE",
"180 321 LINE",
"366 321 LINE",
"366 118 LINE SMOOTH",
"366 32 OFFCURVE",
"384 0 OFFCURVE",
"478 0 CURVE SMOOTH",
"713 0 LINE",
"713 79 LINE",
"506 79 LINE SMOOTH",
"465 79 OFFCURVE",
"456 95 OFFCURVE",
"456 137 CURVE SMOOTH",
"456 321 LINE",
"607 321 LINE",
"607 400 LINE",
"456 400 LINE",
"456 558 LINE",
"366 558 LINE",
"366 400 LINE",
"180 400 LINE",
"180 576 LINE SMOOTH",
"180 619 OFFCURVE",
"189 635 OFFCURVE",
"230 635 CURVE SMOOTH",
"713 635 LINE",
"713 714 LINE",
"202 714 LINE SMOOTH"
);
}
);
userData = {
com.schriftgestaltung.Glyphs.category = Letter;
com.schriftgestaltung.Glyphs.lastChange = "2017/01/05 17:36:54";
com.schriftgestaltung.Glyphs.subCategory = Uppercase;
};
width = 753;
},
{
anchors = (
{
name = top;
position = "{421, 663}";
}
);
layerId = "201D1995-4E5E-441E-AFED-969F1360B126";
paths = (
{
closed = 1;
nodes = (
"98 714 OFFCURVE",
"80 683 OFFCURVE",
"80 597 CURVE SMOOTH",
"80 0 LINE",
"231 0 LINE",
"231 288 LINE",
"356 288 LINE",
"356 118 LINE SMOOTH",
"356 32 OFFCURVE",
"374 0 OFFCURVE",
"468 0 CURVE SMOOTH",
"733 0 LINE",
"733 125 LINE",
"557 125 LINE SMOOTH",
"516 125 OFFCURVE",
"507 141 OFFCURVE",
"507 183 CURVE SMOOTH",
"507 288 LINE",
"658 288 LINE",
"658 413 LINE",
"507 413 LINE",
"507 522 LINE",
"356 522 LINE",
"356 413 LINE",
"231 413 LINE",
"231 530 LINE SMOOTH",
"231 573 OFFCURVE",
"240 589 OFFCURVE",
"281 589 CURVE SMOOTH",
"733 589 LINE",
"733 714 LINE",
"192 714 LINE SMOOTH"
);
}
);
userData = {
com.schriftgestaltung.Glyphs.category = Letter;
com.schriftgestaltung.Glyphs.lastChange = "2017/01/05 17:36:54";
com.schriftgestaltung.Glyphs.subCategory = Uppercase;
};
width = 753;
}
);
unicode = 1E91D;
},
{
glyphname = "Gbe-adlam";
lastChange = "2019-11-22 21:32:44 +0000";
layers = (
{
anchors = (
{
name = top;
position = "{346, 663}";
}
);
layerId = master01;
paths = (
{
closed = 1;
nodes = (
"473 79 LINE SMOOTH",
"385 79 OFFCURVE",
"360 107 OFFCURVE",
"360 162 CURVE SMOOTH",
"360 225 OFFCURVE",
"384 264 OFFCURVE",
"468 328 CURVE SMOOTH",
"554 393 OFFCURVE",
"596 437 OFFCURVE",
"596 538 CURVE SMOOTH",
"596 683 OFFCURVE",
"496 714 OFFCURVE",
"357 714 CURVE SMOOTH",
"90 714 LINE",
"90 635 LINE",
"357 635 LINE SMOOTH",
"457 635 OFFCURVE",
"503 602 OFFCURVE",
"503 537 CURVE SMOOTH",
"503 464 OFFCURVE",
"460 427 OFFCURVE",
"393 376 CURVE SMOOTH",
"324 324 OFFCURVE",
"296 288 OFFCURVE",
"281 247 CURVE",
"180 247 LINE",
"180 556 LINE",
"90 556 LINE",
"90 0 LINE",
"180 0 LINE",
"180 168 LINE",
"267 168 LINE",
"267 50 OFFCURVE",
"316 0 OFFCURVE",
"468 0 CURVE SMOOTH",
"590 0 LINE",
"590 79 LINE"
);
}
);
userData = {
com.schriftgestaltung.Glyphs.category = Letter;
com.schriftgestaltung.Glyphs.lastChange = "2017/01/05 17:36:54";
com.schriftgestaltung.Glyphs.subCategory = Uppercase;
};
width = 636;
},
{
anchors = (
{
name = top;
position = "{357, 663}";
}
);
layerId = "201D1995-4E5E-441E-AFED-969F1360B126";
paths = (
{
closed = 1;
nodes = (
"534 125 LINE SMOOTH",
"466 125 OFFCURVE",
"441 148 OFFCURVE",
"441 189 CURVE SMOOTH",
"441 233 OFFCURVE",
"466 268 OFFCURVE",
"533 335 CURVE SMOOTH",
"607 411 OFFCURVE",
"649 457 OFFCURVE",
"649 546 CURVE SMOOTH",
"649 683 OFFCURVE",
"547 714 OFFCURVE",
"408 714 CURVE SMOOTH",
"80 714 LINE",
"80 589 LINE",
"378 589 LINE SMOOTH",
"466 589 OFFCURVE",
"493 568 OFFCURVE",
"493 524 CURVE SMOOTH",
"493 485 OFFCURVE",
"469 457 OFFCURVE",
"410 399 CURVE SMOOTH",
"337 328 OFFCURVE",
"320 299 OFFCURVE",
"309 276 CURVE",
"231 276 LINE",
"231 510 LINE",
"80 510 LINE",
"80 0 LINE",
"231 0 LINE",
"231 175 LINE",
"287 175 LINE",
"287 49 OFFCURVE",
"356 0 OFFCURVE",
"519 0 CURVE SMOOTH",
"643 0 LINE",
"643 125 LINE"
);
}
);
userData = {
com.schriftgestaltung.Glyphs.category = Letter;
com.schriftgestaltung.Glyphs.lastChange = "2017/01/05 17:36:54";
com.schriftgestaltung.Glyphs.subCategory = Uppercase;
};
width = 694;
}
);
unicode = 1E91E;
},
{
glyphname = "Zal-adlam";
lastChange = "2019-11-22 21:32:46 +0000";
layers = (
{
anchors = (
{
name = top;
position = "{430, 663}";
}
);
layerId = master01;
paths = (
{
closed = 1;
nodes = (
"634 714 LINE",
"634 417 LINE",
"453 417 LINE",
"453 620 LINE",
"437 656 OFFCURVE",
"392 724 OFFCURVE",
"272 724 CURVE SMOOTH",
"162 724 OFFCURVE",
"90 672 OFFCURVE",
"90 531 CURVE SMOOTH",
"90 0 LINE",
"180 0 LINE",
"180 518 LINE SMOOTH",
"180 612 OFFCURVE",
"214 645 OFFCURVE",
"272 645 CURVE SMOOTH",
"331 645 OFFCURVE",
"353 613 OFFCURVE",
"363 592 CURVE",
"363 170 LINE",
"453 170 LINE",
"453 338 LINE",
"634 338 LINE",
"634 137 LINE SMOOTH",
"634 95 OFFCURVE",
"625 79 OFFCURVE",
"585 79 CURVE SMOOTH",
"366 79 LINE",
"366 0 LINE",
"613 0 LINE SMOOTH",
"707 0 OFFCURVE",
"724 32 OFFCURVE",
"724 118 CURVE SMOOTH",
"724 714 LINE"
);
}
);
userData = {
com.schriftgestaltung.Glyphs.category = Letter;
com.schriftgestaltung.Glyphs.lastChange = "2017/01/05 17:36:54";
com.schriftgestaltung.Glyphs.subCategory = Uppercase;
};
width = 814;
},
{
anchors = (
{
name = top;
position = "{450, 663}";
}
);
layerId = "201D1995-4E5E-441E-AFED-969F1360B126";
paths = (
{
closed = 1;
nodes = (
"623 714 LINE",
"623 450 LINE",
"503 450 LINE",
"503 615 LINE",
"491 637 OFFCURVE",
"443 724 OFFCURVE",
"292 724 CURVE SMOOTH",
"152 724 OFFCURVE",
"80 672 OFFCURVE",
"80 531 CURVE SMOOTH",
"80 0 LINE",
"231 0 LINE",
"231 504 LINE SMOOTH",
"231 576 OFFCURVE",
"252 599 OFFCURVE",
"295 599 CURVE SMOOTH",
"331 599 OFFCURVE",
"347 580 OFFCURVE",
"352 570 CURVE",
"352 200 LINE",
"503 200 LINE",
"503 325 LINE",
"623 325 LINE",
"623 183 LINE SMOOTH",
"623 141 OFFCURVE",
"614 125 OFFCURVE",
"574 125 CURVE SMOOTH",
"355 125 LINE",
"355 0 LINE",
"663 0 LINE SMOOTH",
"757 0 OFFCURVE",
"774 32 OFFCURVE",
"774 118 CURVE SMOOTH",
"774 714 LINE"
);
}
);
userData = {
com.schriftgestaltung.Glyphs.category = Letter;
com.schriftgestaltung.Glyphs.lastChange = "2017/01/05 17:36:54";
com.schriftgestaltung.Glyphs.subCategory = Uppercase;
};
width = 854;
}
);
unicode = 1E91F;
},
{
glyphname = "Kpo-adlam";
lastChange = "2019-11-22 21:29:01 +0000";
layers = (
{
anchors = (
{
name = top;
position = "{339, 663}";
}
);
layerId = master01;
paths = (
{
closed = 1;
nodes = (
"229 79 LINE SMOOTH",
"189 79 OFFCURVE",
"180 95 OFFCURVE",
"180 137 CURVE SMOOTH",
"180 588 LINE",
"202 614 OFFCURVE",
"253 645 OFFCURVE",
"339 645 CURVE SMOOTH",
"423 645 OFFCURVE",
"501 606 OFFCURVE",
"501 472 CURVE SMOOTH",
"501 351 OFFCURVE",
"423 310 OFFCURVE",
"354 310 CURVE SMOOTH",
"302 310 OFFCURVE",
"277 327 OFFCURVE",
"264 337 CURVE",
"228 266 LINE",
"241 254 OFFCURVE",
"269 231 OFFCURVE",
"353 231 CURVE SMOOTH",
"475 231 OFFCURVE",
"594 286 OFFCURVE",
"594 477 CURVE SMOOTH",
"594 672 OFFCURVE",
"477 724 OFFCURVE",
"340 724 CURVE SMOOTH",
"193 724 OFFCURVE",
"122 668 OFFCURVE",
"90 629 CURVE",
"90 118 LINE SMOOTH",
"90 32 OFFCURVE",
"108 0 OFFCURVE",
"202 0 CURVE SMOOTH",
"588 0 LINE",
"588 79 LINE"
);
}
);
userData = {
com.schriftgestaltung.Glyphs.category = Letter;
com.schriftgestaltung.Glyphs.lastChange = "2017/01/05 17:36:54";
com.schriftgestaltung.Glyphs.subCategory = Uppercase;
};
width = 659;
},
{
anchors = (
{
name = top;
position = "{359, 663}";
}
);
layerId = "201D1995-4E5E-441E-AFED-969F1360B126";
paths = (
{
closed = 1;
nodes = (
"280 125 LINE SMOOTH",
"240 125 OFFCURVE",
"231 141 OFFCURVE",
"231 183 CURVE SMOOTH",
"231 558 LINE",
"253 582 OFFCURVE",
"296 599 OFFCURVE",
"354 599 CURVE SMOOTH",
"437 599 OFFCURVE",
"490 560 OFFCURVE",
"490 472 CURVE SMOOTH",
"490 386 OFFCURVE",
"443 356 OFFCURVE",
"382 356 CURVE SMOOTH",
"353 356 OFFCURVE",
"332 362 OFFCURVE",
"319 373 CURVE",
"274 258 LINE",
"287 247 OFFCURVE",
"328 231 OFFCURVE",
"384 231 CURVE SMOOTH",
"512 231 OFFCURVE",
"646 286 OFFCURVE",
"646 477 CURVE SMOOTH",
"646 665 OFFCURVE",
"521 724 OFFCURVE",
"359 724 CURVE SMOOTH",
"195 724 OFFCURVE",
"110 664 OFFCURVE",
"80 629 CURVE",
"80 118 LINE SMOOTH",
"80 32 OFFCURVE",
"98 0 OFFCURVE",
"192 0 CURVE SMOOTH",
"638 0 LINE",
"638 125 LINE"
);
}
);
userData = {
com.schriftgestaltung.Glyphs.category = Letter;
com.schriftgestaltung.Glyphs.lastChange = "2017/01/05 17:36:54";
com.schriftgestaltung.Glyphs.subCategory = Uppercase;
};
width = 701;
}
);
unicode = 1E920;
},
{
glyphname = "Sha-adlam";
lastChange = "2019-11-22 21:32:48 +0000";
layers = (
{
anchors = (
{
name = top;
position = "{430, 663}";
}
);
layerId = master01;
paths = (
{
closed = 1;
nodes = (
"744 596 LINE SMOOTH",
"744 682 OFFCURVE",
"727 714 OFFCURVE",
"633 714 CURVE SMOOTH",
"368 714 LINE",
"368 635 LINE",
"605 635 LINE SMOOTH",
"645 635 OFFCURVE",
"654 619 OFFCURVE",
"654 577 CURVE SMOOTH",
"654 376 LINE",
"458 376 LINE",
"458 544 LINE",
"368 544 LINE",
"368 183 LINE SMOOTH",
"368 102 OFFCURVE",
"334 69 OFFCURVE",
"272 69 CURVE SMOOTH",
"210 69 OFFCURVE",
"186 104 OFFCURVE",
"180 121 CURVE",
"180 714 LINE",
"90 714 LINE",
"90 94 LINE",
"98 74 OFFCURVE",
"140 -10 OFFCURVE",
"272 -10 CURVE SMOOTH",
"388 -10 OFFCURVE",
"458 42 OFFCURVE",
"458 183 CURVE SMOOTH",
"458 297 LINE",
"654 297 LINE",
"654 0 LINE",
"744 0 LINE"
);
}
);
userData = {
com.schriftgestaltung.Glyphs.category = Letter;
com.schriftgestaltung.Glyphs.lastChange = "2017/01/05 17:36:54";
com.schriftgestaltung.Glyphs.subCategory = Uppercase;
};
width = 834;
},
{
anchors = (
{
name = top;
position = "{450, 663}";
}
);
layerId = "201D1995-4E5E-441E-AFED-969F1360B126";
paths = (
{
closed = 1;
nodes = (
"794 596 LINE SMOOTH",
"794 682 OFFCURVE",
"777 714 OFFCURVE",
"683 714 CURVE SMOOTH",
"357 714 LINE",
"357 589 LINE",
"594 589 LINE SMOOTH",
"634 589 OFFCURVE",
"643 573 OFFCURVE",
"643 531 CURVE SMOOTH",
"643 389 LINE",
"508 389 LINE",
"508 508 LINE",
"357 508 LINE",
"357 213 LINE SMOOTH",
"357 138 OFFCURVE",
"334 115 OFFCURVE",
"292 115 CURVE SMOOTH",
"250 115 OFFCURVE",
"238 128 OFFCURVE",
"231 138 CURVE",
"231 714 LINE",
"80 714 LINE",
"80 86 LINE",
"93 61 OFFCURVE",
"140 -10 OFFCURVE",
"292 -10 CURVE SMOOTH",
"438 -10 OFFCURVE",
"508 42 OFFCURVE",
"508 183 CURVE SMOOTH",
"508 264 LINE",
"643 264 LINE",
"643 0 LINE",
"794 0 LINE"
);
}
);
userData = {
com.schriftgestaltung.Glyphs.category = Letter;
com.schriftgestaltung.Glyphs.lastChange = "2017/01/05 17:36:54";
com.schriftgestaltung.Glyphs.subCategory = Uppercase;
};
width = 874;
}
);
unicode = 1E921;
},
{
glyphname = "alif-adlam";
lastChange = "2019-11-22 21:29:01 +0000";
layers = (
{
anchors = (
{
name = gemconsonanttop;
position = "{318, 565}";
},
{
name = top;
position = "{331, 565}";
},
{
name = topAlif;
position = "{85, 597}";
}
);
layerId = master01;
paths = (
{
closed = 1;
nodes = (
"354 482 OFFCURVE",
"302 511 OFFCURVE",
"284 525 CURVE",
"244 458 LINE",
"261 444 OFFCURVE",
"287 429 OFFCURVE",
"331 417 CURVE SMOOTH",
"405 396 OFFCURVE",
"474 340 OFFCURVE",
"474 221 CURVE SMOOTH",
"474 119 OFFCURVE",
"424 64 OFFCURVE",
"320 64 CURVE SMOOTH",
"229 64 OFFCURVE",
"173 103 OFFCURVE",
"173 226 CURVE SMOOTH",
"173 644 LINE",
"85 644 LINE",
"85 226 LINE SMOOTH",
"85 50 OFFCURVE",
"160 -10 OFFCURVE",
"320 -10 CURVE SMOOTH",
"477 -10 OFFCURVE",
"565 79 OFFCURVE",
"565 221 CURVE SMOOTH",
"565 334 OFFCURVE",
"502 390 OFFCURVE",
"481 407 CURVE",
"481 412 LINE",
"512 415 OFFCURVE",
"552 430 OFFCURVE",
"569 443 CURVE",
"541 509 LINE",
"519 496 OFFCURVE",
"477 482 OFFCURVE",
"428 482 CURVE SMOOTH"
);
}
);
userData = {
com.schriftgestaltung.Glyphs.category = Letter;
com.schriftgestaltung.Glyphs.lastChange = "2017/01/05 17:36:54";
com.schriftgestaltung.Glyphs.subCategory = Lowercase;
};
width = 634;
},
{
anchors = (
{
name = gemconsonanttop;
position = "{338, 585}";
},
{
name = top;
position = "{352, 585}";
},
{
name = topAlif;
position = "{104, 638}";
}
);
layerId = "201D1995-4E5E-441E-AFED-969F1360B126";
paths = (
{
closed = 1;
nodes = (
"405 486 OFFCURVE",
"353 516 OFFCURVE",
"331 536 CURVE",
"276 428 LINE",
"294 411 OFFCURVE",
"327 389 OFFCURVE",
"371 373 CURVE SMOOTH",
"427 353 OFFCURVE",
"463 323 OFFCURVE",
"463 234 CURVE SMOOTH",
"463 138 OFFCURVE",
"414 110 OFFCURVE",
"334 110 CURVE SMOOTH",
"272 110 OFFCURVE",
"224 138 OFFCURVE",
"224 249 CURVE SMOOTH",
"224 649 LINE",
"75 649 LINE",
"75 249 LINE SMOOTH",
"75 50 OFFCURVE",
"150 -10 OFFCURVE",
"334 -10 CURVE SMOOTH",
"527 -10 OFFCURVE",
"615 79 OFFCURVE",
"615 209 CURVE SMOOTH",
"615 306 OFFCURVE",
"575 350 OFFCURVE",
"539 372 CURVE",
"539 379 LINE",
"576 383 OFFCURVE",
"612 396 OFFCURVE",
"631 409 CURVE",
"591 518 LINE",
"571 504 OFFCURVE",
"530 486 OFFCURVE",
"474 486 CURVE SMOOTH"
);
}
);
userData = {
com.schriftgestaltung.Glyphs.category = Letter;
com.schriftgestaltung.Glyphs.lastChange = "2017/01/05 17:36:54";
com.schriftgestaltung.Glyphs.subCategory = Lowercase;
};
width = 676;
}
);
unicode = 1E922;
},
{
glyphname = "daali-adlam";
lastChange = "2019-11-22 21:29:01 +0000";
layers = (
{
anchors = (
{
name = gemconsonanttop;
position = "{269, 620}";
},
{
name = top;
position = "{279, 620}";
}
);
layerId = master01;
paths = (
{
closed = 1;
nodes = (
"417 252 LINE",
"412 251 LINE",
"392 280 OFFCURVE",
"361 294 OFFCURVE",
"279 313 CURVE SMOOTH",
"183 335 OFFCURVE",
"163 352 OFFCURVE",
"163 433 CURVE SMOOTH",
"163 575 LINE",
"75 575 LINE",
"75 433 LINE SMOOTH",
"75 302 OFFCURVE",
"124 272 OFFCURVE",
"259 242 CURVE SMOOTH",
"394 212 OFFCURVE",
"417 177 OFFCURVE",
"417 121 CURVE SMOOTH",
"417 86 OFFCURVE",
"409 74 OFFCURVE",
"354 74 CURVE SMOOTH",
"75 74 LINE",
"75 0 LINE",
"389 0 LINE SMOOTH",
"493 0 OFFCURVE",
"505 27 OFFCURVE",
"505 119 CURVE SMOOTH",
"505 714 LINE",
"417 714 LINE"
);
}
);
userData = {
com.schriftgestaltung.Glyphs.category = Letter;
com.schriftgestaltung.Glyphs.lastChange = "2017/01/05 17:36:54";
com.schriftgestaltung.Glyphs.subCategory = Lowercase;
com.schriftgestaltung.hints = (
{
horizontal = 0;
options = 0;
place = (
125,
90
);
stem = -2;
},
{
horizontal = 0;
options = 0;
place = (
581,
90
);
stem = -2;
},
{
horizontal = 0;
options = 0;
place = (
66,
495
);
stem = -2;
},
{
horizontal = 0;
options = 0;
place = (
113,
88
);
stem = -2;
},
{
horizontal = 0;
options = 0;
place = (
478,
87
);
stem = -2;
},
{
horizontal = 0;
options = 0;
place = (
67,
392
);
stem = -2;
},
{
horizontal = 1;
options = 0;
place = (
0,
21
);
stem = -2;
target = (
u,
p
);
type = BottomGhost;
},
{
horizontal = 1;
options = 0;
place = (
333,
79
);
stem = -2;
},
{
horizontal = 1;
options = 0;
place = (
714,
-20
);
stem = -2;
target = (
d,
o,
w,
n
);
type = TopGhost;
},
{
horizontal = 1;
options = 0;
place = (
0,
80
);
stem = -2;
},
{
horizontal = 1;
options = 0;
place = (
634,
80
);
stem = -2;
},
{
horizontal = 1;
options = 0;
place = (
0,
21
);
stem = -2;
target = (
u,
p
);
type = BottomGhost;
},
{
horizontal = 1;
options = 0;
place = (
472,
74
);
stem = -2;
},
{
horizontal = 1;
options = 0;
place = (
536,
-20
);
stem = -2;
target = (
d,
o,
w,
n
);
type = TopGhost;
},
{
horizontal = 1;
options = 0;
place = (
0,
68
);
stem = -2;
},
{
horizontal = 1;
options = 0;
place = (
468,
68
);
stem = -2;
}
);
};
width = 605;
},
{
anchors = (
{
name = gemconsonanttop;
position = "{269, 631}";
},
{
name = top;
position = "{284, 631}";
}
);
layerId = "201D1995-4E5E-441E-AFED-969F1360B126";
paths = (
{
closed = 1;
nodes = (
"391 307 LINE",
"385 304 LINE",
"374 315 OFFCURVE",
"352 328 OFFCURVE",
"285 346 CURVE SMOOTH",
"211 366 OFFCURVE",
"199 374 OFFCURVE",
"199 466 CURVE SMOOTH",
"199 585 LINE",
"50 585 LINE",
"50 430 LINE SMOOTH",
"50 279 OFFCURVE",
"102 263 OFFCURVE",
"246 233 CURVE SMOOTH",
"369 207 OFFCURVE",
"391 193 OFFCURVE",
"391 156 CURVE SMOOTH",
"391 128 OFFCURVE",
"375 120 OFFCURVE",
"341 120 CURVE SMOOTH",
"50 120 LINE",
"50 0 LINE",
"424 0 LINE SMOOTH",
"528 0 OFFCURVE",
"540 27 OFFCURVE",
"540 119 CURVE SMOOTH",
"540 714 LINE",
"391 714 LINE"
);
}
);
userData = {
com.schriftgestaltung.Glyphs.category = Letter;
com.schriftgestaltung.Glyphs.lastChange = "2017/01/05 17:36:54";
com.schriftgestaltung.Glyphs.subCategory = Lowercase;
com.schriftgestaltung.hints = (
{
horizontal = 0;
options = 0;
place = (
125,
90
);
stem = -2;
},
{
horizontal = 0;
options = 0;
place = (
581,
90
);
stem = -2;
},
{
horizontal = 0;
options = 0;
place = (
66,
495
);
stem = -2;
},
{
horizontal = 0;
options = 0;
place = (
113,
88
);
stem = -2;
},
{
horizontal = 0;
options = 0;
place = (
478,
87
);
stem = -2;
},
{
horizontal = 0;
options = 0;
place = (
67,
392
);
stem = -2;
},
{
horizontal = 1;
options = 0;
place = (
0,
21
);
stem = -2;
target = (
u,
p
);
type = BottomGhost;
},
{
horizontal = 1;
options = 0;
place = (
333,
79
);
stem = -2;
},
{
horizontal = 1;
options = 0;
place = (
714,
-20
);
stem = -2;
target = (
d,
o,
w,
n
);
type = TopGhost;
},
{
horizontal = 1;
options = 0;
place = (
0,
80
);
stem = -2;
},
{
horizontal = 1;
options = 0;
place = (
634,
80
);
stem = -2;
},
{
horizontal = 1;
options = 0;
place = (
0,
21
);
stem = -2;
target = (
u,
p
);
type = BottomGhost;
},
{
horizontal = 1;
options = 0;
place = (
472,
74
);
stem = -2;
},
{
horizontal = 1;
options = 0;
place = (
536,
-20
);
stem = -2;
target = (
d,
o,
w,
n
);
type = TopGhost;
},
{
horizontal = 1;
options = 0;
place = (
0,
68
);
stem = -2;
},
{
horizontal = 1;
options = 0;
place = (
468,
68
);
stem = -2;
}
);
};
width = 620;
}
);
unicode = 1E923;
},
{
glyphname = "laam-adlam";
lastChange = "2019-11-22 21:32:52 +0000";
layers = (
{
anchors = (
{
name = top;
position = "{281, 565}";
}
);
layerId = master01;
paths = (
{
closed = 1;
nodes = (
"71 74 LINE",
"71 0 LINE",
"380 0 LINE SMOOTH",
"484 0 OFFCURVE",
"496 27 OFFCURVE",
"496 119 CURVE SMOOTH",
"496 410 LINE SMOOTH",
"496 533 OFFCURVE",
"434 585 OFFCURVE",
"308 585 CURVE SMOOTH",
"158 585 OFFCURVE",
"90 501 OFFCURVE",
"70 465 CURVE",
"70 288 LINE",
"158 288 LINE",
"158 444 LINE",
"171 464 OFFCURVE",
"217 511 OFFCURVE",
"307 511 CURVE SMOOTH",
"380 511 OFFCURVE",
"408 477 OFFCURVE",
"408 398 CURVE SMOOTH",
"408 140 LINE SMOOTH",
"408 86 OFFCURVE",
"401 74 OFFCURVE",
"345 74 CURVE SMOOTH"
);
}
);
userData = {
com.schriftgestaltung.Glyphs.category = Letter;
com.schriftgestaltung.Glyphs.lastChange = "2017/01/05 17:36:54";
com.schriftgestaltung.Glyphs.subCategory = Lowercase;
com.schriftgestaltung.hints = (
{
horizontal = 0;
options = 0;
place = (
71,
91
);
stem = -2;
},
{
horizontal = 0;
options = 0;
place = (
476,
91
);
stem = -2;
},
{
horizontal = 1;
options = 0;
place = (
-10,
73
);
stem = -2;
},
{
horizontal = 1;
options = 0;
place = (
472,
74
);
stem = -2;
}
);
};
width = 581;
},
{
anchors = (
{
name = top;
position = "{296, 575}";
}
);
layerId = "201D1995-4E5E-441E-AFED-969F1360B126";
paths = (
{
closed = 1;
nodes = (
"56 120 LINE",
"56 0 LINE",
"425 0 LINE SMOOTH",
"529 0 OFFCURVE",
"541 27 OFFCURVE",
"541 119 CURVE SMOOTH",
"541 409 LINE SMOOTH",
"541 543 OFFCURVE",
"479 595 OFFCURVE",
"346 595 CURVE SMOOTH",
"157 595 OFFCURVE",
"71 482 OFFCURVE",
"55 442 CURVE",
"55 261 LINE",
"204 261 LINE",
"204 409 LINE",
"213 427 OFFCURVE",
"250 475 OFFCURVE",
"320 475 CURVE SMOOTH",
"369 475 OFFCURVE",
"392 452 OFFCURVE",
"392 399 CURVE SMOOTH",
"392 186 LINE SMOOTH",
"392 132 OFFCURVE",
"385 120 OFFCURVE",
"329 120 CURVE SMOOTH"
);
}
);
userData = {
com.schriftgestaltung.Glyphs.category = Letter;
com.schriftgestaltung.Glyphs.lastChange = "2017/01/05 17:36:54";
com.schriftgestaltung.Glyphs.subCategory = Lowercase;
com.schriftgestaltung.hints = (
{
horizontal = 0;
options = 0;
place = (
71,
91
);
stem = -2;
},
{
horizontal = 0;
options = 0;
place = (
476,
91
);
stem = -2;
},
{
horizontal = 1;
options = 0;
place = (
-10,
73
);
stem = -2;
},
{
horizontal = 1;
options = 0;
place = (
472,
74
);
stem = -2;
}
);
};
width = 616;
}
);
unicode = 1E924;
},
{
glyphname = "miim-adlam";
lastChange = "2019-11-22 21:29:01 +0000";
layers = (
{
anchors = (
{
name = top;
position = "{282, 565}";
}
);
layerId = master01;
paths = (
{
closed = 1;
nodes = (
"133 585 OFFCURVE",
"50 526 OFFCURVE",
"50 407 CURVE SMOOTH",
"50 287 OFFCURVE",
"125 255 OFFCURVE",
"240 235 CURVE SMOOTH",
"357 215 OFFCURVE",
"400 200 OFFCURVE",
"400 122 CURVE SMOOTH",
"400 86 OFFCURVE",
"393 74 OFFCURVE",
"337 74 CURVE SMOOTH",
"53 74 LINE",
"53 0 LINE",
"372 0 LINE SMOOTH",
"476 0 OFFCURVE",
"488 27 OFFCURVE",
"488 119 CURVE SMOOTH",
"488 408 LINE SMOOTH",
"488 540 OFFCURVE",
"418 585 OFFCURVE",
"279 585 CURVE SMOOTH"
);
},
{
closed = 1;
nodes = (
"172 322 OFFCURVE",
"141 345 OFFCURVE",
"141 408 CURVE SMOOTH",
"141 481 OFFCURVE",
"185 511 OFFCURVE",
"273 511 CURVE SMOOTH",
"354 511 OFFCURVE",
"400 483 OFFCURVE",
"400 398 CURVE SMOOTH",
"400 252 LINE",
"395 251 LINE",
"378 273 OFFCURVE",
"350 290 OFFCURVE",
"261 306 CURVE SMOOTH"
);
}
);
userData = {
com.schriftgestaltung.Glyphs.category = Letter;
com.schriftgestaltung.Glyphs.lastChange = "2017/01/05 17:36:54";
com.schriftgestaltung.Glyphs.subCategory = Lowercase;
com.schriftgestaltung.hints = (
{
horizontal = 0;
options = 0;
place = (
54,
84
);
stem = -2;
},
{
horizontal = 0;
options = 0;
place = (
352,
85
);
stem = -2;
},
{
horizontal = 1;
options = 0;
place = (
-10,
71
);
stem = -2;
},
{
horizontal = 1;
options = 0;
place = (
474,
72
);
stem = -2;
}
);
};
width = 573;
},
{
anchors = (
{
name = top;
position = "{307, 575}";
}
);
layerId = "201D1995-4E5E-441E-AFED-969F1360B126";
paths = (
{
closed = 1;
nodes = (
"128 595 OFFCURVE",
"45 536 OFFCURVE",
"45 399 CURVE SMOOTH",
"45 262 OFFCURVE",
"120 237 OFFCURVE",
"249 218 CURVE SMOOTH",
"363 201 OFFCURVE",
"394 188 OFFCURVE",
"394 156 CURVE SMOOTH",
"394 132 OFFCURVE",
"387 120 OFFCURVE",
"340 120 CURVE SMOOTH",
"48 120 LINE",
"48 0 LINE",
"427 0 LINE SMOOTH",
"531 0 OFFCURVE",
"543 27 OFFCURVE",
"543 119 CURVE SMOOTH",
"543 408 LINE SMOOTH",
"543 550 OFFCURVE",
"473 595 OFFCURVE",
"304 595 CURVE SMOOTH"
);
},
{
closed = 1;
nodes = (
"228 337 OFFCURVE",
"197 354 OFFCURVE",
"197 402 CURVE SMOOTH",
"197 452 OFFCURVE",
"227 475 OFFCURVE",
"298 475 CURVE SMOOTH",
"373 475 OFFCURVE",
"394 447 OFFCURVE",
"394 362 CURVE SMOOTH",
"394 293 LINE",
"388 290 LINE",
"370 306 OFFCURVE",
"340 316 OFFCURVE",
"286 326 CURVE SMOOTH"
);
}
);
userData = {
com.schriftgestaltung.Glyphs.category = Letter;
com.schriftgestaltung.Glyphs.lastChange = "2017/01/05 17:36:54";
com.schriftgestaltung.Glyphs.subCategory = Lowercase;
com.schriftgestaltung.hints = (
{
horizontal = 0;
options = 0;
place = (
54,
84
);
stem = -2;
},
{
horizontal = 0;
options = 0;
place = (
352,
85
);
stem = -2;
},
{
horizontal = 1;
options = 0;
place = (
-10,
71
);
stem = -2;
},
{
horizontal = 1;
options = 0;
place = (
474,
72
);
stem = -2;
}
);
};
width = 618;
}
);
unicode = 1E925;
},
{
glyphname = "ba-adlam";
lastChange = "2019-11-22 21:32:54 +0000";
layers = (
{
anchors = (
{
name = top;
position = "{394, 597}";
}
);
layerId = master01;
paths = (
{
closed = 1;
nodes = (
"85 119 LINE SMOOTH",
"85 27 OFFCURVE",
"97 0 OFFCURVE",
"201 0 CURVE SMOOTH",
"618 0 LINE",
"618 74 LINE",
"236 74 LINE SMOOTH",
"181 74 OFFCURVE",
"173 86 OFFCURVE",
"173 140 CURVE SMOOTH",
"173 216 LINE",
"178 218 LINE",
"202 203 OFFCURVE",
"265 177 OFFCURVE",
"357 177 CURVE SMOOTH",
"498 177 OFFCURVE",
"629 243 OFFCURVE",
"629 401 CURVE SMOOTH",
"629 531 OFFCURVE",
"565 585 OFFCURVE",
"449 585 CURVE SMOOTH",
"368 585 OFFCURVE",
"321 557 OFFCURVE",
"302 538 CURVE",
"302 292 LINE",
"390 292 LINE",
"390 497 LINE",
"402 505 OFFCURVE",
"421 511 OFFCURVE",
"449 511 CURVE SMOOTH",
"488 511 OFFCURVE",
"538 490 OFFCURVE",
"538 396 CURVE SMOOTH",
"538 294 OFFCURVE",
"459 250 OFFCURVE",
"357 250 CURVE SMOOTH",
"260 250 OFFCURVE",
"196 284 OFFCURVE",
"173 302 CURVE",
"173 714 LINE",
"85 714 LINE"
);
}
);
userData = {
com.schriftgestaltung.Glyphs.category = Letter;
com.schriftgestaltung.Glyphs.lastChange = "2017/01/05 17:36:54";
com.schriftgestaltung.Glyphs.subCategory = Lowercase;
};
width = 674;
},
{
anchors = (
{
name = top;
position = "{434, 633}";
}
);
layerId = "201D1995-4E5E-441E-AFED-969F1360B126";
paths = (
{
closed = 1;
nodes = (
"75 119 LINE SMOOTH",
"75 27 OFFCURVE",
"87 0 OFFCURVE",
"191 0 CURVE SMOOTH",
"699 0 LINE",
"699 120 LINE",
"287 120 LINE SMOOTH",
"232 120 OFFCURVE",
"224 132 OFFCURVE",
"224 185 CURVE SMOOTH",
"224 218 LINE",
"231 223 LINE",
"262 205 OFFCURVE",
"303 180 OFFCURVE",
"419 180 CURVE SMOOTH",
"585 180 OFFCURVE",
"710 250 OFFCURVE",
"710 403 CURVE SMOOTH",
"710 532 OFFCURVE",
"631 595 OFFCURVE",
"503 595 CURVE SMOOTH",
"397 595 OFFCURVE",
"336 564 OFFCURVE",
"317 548 CURVE",
"317 345 LINE",
"451 345 LINE",
"451 470 LINE",
"459 473 OFFCURVE",
"471 475 OFFCURVE",
"486 475 CURVE SMOOTH",
"521 475 OFFCURVE",
"558 462 OFFCURVE",
"558 398 CURVE SMOOTH",
"558 328 OFFCURVE",
"521 300 OFFCURVE",
"419 300 CURVE SMOOTH",
"303 300 OFFCURVE",
"244 336 OFFCURVE",
"224 352 CURVE",
"224 714 LINE",
"75 714 LINE"
);
}
);
userData = {
com.schriftgestaltung.Glyphs.category = Letter;
com.schriftgestaltung.Glyphs.lastChange = "2017/01/05 17:36:54";
com.schriftgestaltung.Glyphs.subCategory = Lowercase;
};
width = 755;
}
);
unicode = 1E926;
},
{
glyphname = "sinnyiiyhe-adlam";
lastChange = "2019-11-22 21:29:01 +0000";
layers = (
{
anchors = (
{
name = bottom;
position = "{420, 2}";
},
{
name = gemconsonanttop;
position = "{422, 565}";
},
{
name = top;
position = "{418, 565}";
}
);
layerId = master01;
paths = (
{
closed = 1;
nodes = (
"662 575 LINE",
"662 203 LINE SMOOTH",
"662 102 OFFCURVE",
"627 64 OFFCURVE",
"564 64 CURVE SMOOTH",
"504 64 OFFCURVE",
"462 102 OFFCURVE",
"462 192 CURVE SMOOTH",
"462 575 LINE",
"374 575 LINE",
"374 192 LINE SMOOTH",
"374 102 OFFCURVE",
"336 64 OFFCURVE",
"271 64 CURVE SMOOTH",
"207 64 OFFCURVE",
"173 98 OFFCURVE",
"173 201 CURVE SMOOTH",
"173 666 LINE",
"85 666 LINE",
"85 184 LINE SMOOTH",
"85 38 OFFCURVE",
"159 -10 OFFCURVE",
"267 -10 CURVE SMOOTH",
"359 -10 OFFCURVE",
"398 30 OFFCURVE",
"415 73 CURVE",
"421 73 LINE",
"439 27 OFFCURVE",
"479 -10 OFFCURVE",
"562 -10 CURVE SMOOTH",
"669 -10 OFFCURVE",
"750 40 OFFCURVE",
"750 183 CURVE SMOOTH",
"750 575 LINE"
);
}
);
userData = {
com.schriftgestaltung.Glyphs.category = Letter;
com.schriftgestaltung.Glyphs.lastChange = "2017/01/05 17:36:54";
com.schriftgestaltung.Glyphs.subCategory = Lowercase;
};
width = 835;
},
{
anchors = (
{
name = bottom;
position = "{440, 2}";
},
{
name = gemconsonanttop;
position = "{442, 575}";
},
{
name = top;
position = "{438, 575}";
}
);
layerId = "201D1995-4E5E-441E-AFED-969F1360B126";
paths = (
{
closed = 1;
nodes = (
"653 585 LINE",
"653 196 LINE SMOOTH",
"653 141 OFFCURVE",
"630 110 OFFCURVE",
"583 110 CURVE SMOOTH",
"536 110 OFFCURVE",
"513 141 OFFCURVE",
"513 196 CURVE SMOOTH",
"513 585 LINE",
"364 585 LINE",
"364 196 LINE SMOOTH",
"364 141 OFFCURVE",
"341 110 OFFCURVE",
"294 110 CURVE SMOOTH",
"247 110 OFFCURVE",
"224 141 OFFCURVE",
"224 196 CURVE SMOOTH",
"224 676 LINE",
"75 676 LINE",
"75 196 LINE SMOOTH",
"75 38 OFFCURVE",
"149 -10 OFFCURVE",
"270 -10 CURVE SMOOTH",
"375 -10 OFFCURVE",
"416 27 OFFCURVE",
"435 73 CURVE",
"441 73 LINE",
"463 27 OFFCURVE",
"499 -10 OFFCURVE",
"598 -10 CURVE SMOOTH",
"721 -10 OFFCURVE",
"802 41 OFFCURVE",
"802 196 CURVE SMOOTH",
"802 585 LINE"
);
}
);
userData = {
com.schriftgestaltung.Glyphs.category = Letter;
com.schriftgestaltung.Glyphs.lastChange = "2017/01/05 17:36:54";
com.schriftgestaltung.Glyphs.subCategory = Lowercase;
};
width = 877;
}
);
unicode = 1E927;
},
{
glyphname = "pe-adlam";
lastChange = "2019-11-22 21:29:01 +0000";
layers = (
{
anchors = (
{
name = top;
position = "{275, 565}";
}
);
layerId = master01;
paths = (
{
closed = 1;
nodes = (
"236 74 LINE SMOOTH",
"180 74 OFFCURVE",
"173 86 OFFCURVE",
"173 140 CURVE SMOOTH",
"173 503 LINE",
"184 507 OFFCURVE",
"205 512 OFFCURVE",
"234 512 CURVE SMOOTH",
"291 512 OFFCURVE",
"371 486 OFFCURVE",
"371 352 CURVE SMOOTH",
"371 263 OFFCURVE",
"336 225 OFFCURVE",
"293 184 CURVE",
"354 128 LINE",
"415 174 OFFCURVE",
"459 235 OFFCURVE",
"459 352 CURVE SMOOTH",
"459 517 OFFCURVE",
"371 585 OFFCURVE",
"246 585 CURVE SMOOTH",
"167 585 OFFCURVE",
"112 565 OFFCURVE",
"85 551 CURVE",
"85 119 LINE SMOOTH",
"85 27 OFFCURVE",
"97 0 OFFCURVE",
"201 0 CURVE SMOOTH",
"443 0 LINE",
"443 74 LINE"
);
}
);
userData = {
com.schriftgestaltung.Glyphs.category = Letter;
com.schriftgestaltung.Glyphs.lastChange = "2017/01/05 17:36:54";
com.schriftgestaltung.Glyphs.subCategory = Lowercase;
};
width = 534;
},
{
anchors = (
{
name = top;
position = "{295, 575}";
}
);
layerId = "201D1995-4E5E-441E-AFED-969F1360B126";
paths = (
{
closed = 1;
nodes = (
"287 120 LINE SMOOTH",
"231 120 OFFCURVE",
"224 132 OFFCURVE",
"224 185 CURVE SMOOTH",
"224 467 LINE",
"233 472 OFFCURVE",
"250 475 OFFCURVE",
"264 475 CURVE SMOOTH",
"318 475 OFFCURVE",
"370 441 OFFCURVE",
"370 346 CURVE SMOOTH",
"370 289 OFFCURVE",
"344 251 OFFCURVE",
"327 231 CURVE",
"440 148 LINE",
"471 176 OFFCURVE",
"522 242 OFFCURVE",
"522 354 CURVE SMOOTH",
"522 516 OFFCURVE",
"432 595 OFFCURVE",
"269 595 CURVE SMOOTH",
"179 595 OFFCURVE",
"108 574 OFFCURVE",
"75 561 CURVE",
"75 119 LINE SMOOTH",
"75 27 OFFCURVE",
"87 0 OFFCURVE",
"191 0 CURVE SMOOTH",
"506 0 LINE",
"506 120 LINE"
);
}
);
userData = {
com.schriftgestaltung.Glyphs.category = Letter;
com.schriftgestaltung.Glyphs.lastChange = "2017/01/05 17:36:54";
com.schriftgestaltung.Glyphs.subCategory = Lowercase;
};
width = 567;
}
);
unicode = 1E928;
},
